G75*
G70*
%OFA0B0*%
%FSLAX24Y24*%
%IPPOS*%
%LPD*%
%AMOC8*
5,1,8,0,0,1.08239X$1,22.5*
%
%ADD10C,0.0070*%
%ADD11C,0.0080*%
%ADD12C,0.0150*%
%ADD13C,0.0110*%
%ADD14R,0.0180X0.0300*%
%ADD15C,0.0060*%
%ADD16C,0.0020*%
%ADD17C,0.0040*%
%ADD18R,0.0500X0.0350*%
%ADD19R,0.0350X0.0500*%
D10*
X011001Y011771D02*
X011001Y011936D01*
X011056Y011991D01*
X011111Y011991D01*
X011166Y011936D01*
X011166Y011826D01*
X011111Y011771D01*
X011001Y011771D01*
X010891Y011881D01*
X010836Y011991D01*
X010836Y012139D02*
X010836Y012304D01*
X010891Y012360D01*
X011111Y012360D01*
X011166Y012304D01*
X011166Y012139D01*
X010836Y012139D01*
X010891Y012508D02*
X011111Y012508D01*
X011166Y012563D01*
X011166Y012673D01*
X011111Y012728D01*
X010891Y012728D01*
X010836Y012673D01*
X010836Y012563D01*
X010891Y012508D01*
X010836Y012876D02*
X010836Y013096D01*
X011001Y012986D02*
X011001Y012876D01*
X011166Y012876D02*
X010836Y012876D01*
X011436Y013213D02*
X011436Y013268D01*
X011766Y013268D01*
X011766Y013213D02*
X011766Y013323D01*
X011766Y013064D02*
X011766Y012899D01*
X011711Y012844D01*
X011656Y012899D01*
X011656Y013064D01*
X011601Y013064D02*
X011766Y013064D01*
X011601Y013064D02*
X011546Y013009D01*
X011546Y012899D01*
X011546Y012709D02*
X011546Y012599D01*
X011491Y012654D02*
X011711Y012654D01*
X011766Y012709D01*
X011766Y012463D02*
X011766Y012353D01*
X011766Y012408D02*
X011546Y012408D01*
X011546Y012353D01*
X011436Y012408D02*
X011381Y012408D01*
X011546Y012205D02*
X011546Y012040D01*
X011601Y011985D01*
X011711Y011985D01*
X011766Y012040D01*
X011766Y012205D01*
X011821Y012205D02*
X011546Y012205D01*
X011821Y012205D02*
X011876Y012150D01*
X011876Y012095D01*
X011766Y011849D02*
X011766Y011739D01*
X011766Y011794D02*
X011546Y011794D01*
X011546Y011739D01*
X011436Y011794D02*
X011381Y011794D01*
X011491Y011591D02*
X011436Y011536D01*
X011436Y011371D01*
X011766Y011371D01*
X011766Y011536D01*
X011711Y011591D01*
X011491Y011591D01*
X017536Y011991D02*
X017591Y011881D01*
X017701Y011771D01*
X017701Y011936D01*
X017756Y011991D01*
X017811Y011991D01*
X017866Y011936D01*
X017866Y011826D01*
X017811Y011771D01*
X017701Y011771D01*
X018081Y011794D02*
X018136Y011794D01*
X018246Y011794D02*
X018466Y011794D01*
X018466Y011739D02*
X018466Y011849D01*
X018411Y011985D02*
X018466Y012040D01*
X018466Y012205D01*
X018521Y012205D02*
X018246Y012205D01*
X018246Y012040D01*
X018301Y011985D01*
X018411Y011985D01*
X018576Y012095D02*
X018576Y012150D01*
X018521Y012205D01*
X018466Y012353D02*
X018466Y012463D01*
X018466Y012408D02*
X018246Y012408D01*
X018246Y012353D01*
X018136Y012408D02*
X018081Y012408D01*
X017866Y012304D02*
X017811Y012360D01*
X017591Y012360D01*
X017536Y012304D01*
X017536Y012139D01*
X017866Y012139D01*
X017866Y012304D01*
X017811Y012508D02*
X017866Y012563D01*
X017866Y012673D01*
X017811Y012728D01*
X017591Y012728D01*
X017536Y012673D01*
X017536Y012563D01*
X017591Y012508D01*
X017811Y012508D01*
X017866Y012876D02*
X017536Y012876D01*
X017536Y013096D01*
X017701Y012986D02*
X017701Y012876D01*
X018191Y012654D02*
X018411Y012654D01*
X018466Y012709D01*
X018411Y012844D02*
X018356Y012899D01*
X018356Y013064D01*
X018301Y013064D02*
X018466Y013064D01*
X018466Y012899D01*
X018411Y012844D01*
X018246Y012899D02*
X018246Y013009D01*
X018301Y013064D01*
X018136Y013213D02*
X018136Y013268D01*
X018466Y013268D01*
X018466Y013213D02*
X018466Y013323D01*
X018246Y012709D02*
X018246Y012599D01*
X018246Y011794D02*
X018246Y011739D01*
X018191Y011591D02*
X018136Y011536D01*
X018136Y011371D01*
X018466Y011371D01*
X018466Y011536D01*
X018411Y011591D01*
X018191Y011591D01*
X024236Y011991D02*
X024291Y011881D01*
X024401Y011771D01*
X024401Y011936D01*
X024456Y011991D01*
X024511Y011991D01*
X024566Y011936D01*
X024566Y011826D01*
X024511Y011771D01*
X024401Y011771D01*
X024781Y011794D02*
X024836Y011794D01*
X024946Y011794D02*
X025166Y011794D01*
X025166Y011739D02*
X025166Y011849D01*
X025111Y011985D02*
X025166Y012040D01*
X025166Y012205D01*
X025221Y012205D02*
X024946Y012205D01*
X024946Y012040D01*
X025001Y011985D01*
X025111Y011985D01*
X025276Y012095D02*
X025276Y012150D01*
X025221Y012205D01*
X025166Y012353D02*
X025166Y012463D01*
X025166Y012408D02*
X024946Y012408D01*
X024946Y012353D01*
X024836Y012408D02*
X024781Y012408D01*
X024566Y012304D02*
X024511Y012360D01*
X024291Y012360D01*
X024236Y012304D01*
X024236Y012139D01*
X024566Y012139D01*
X024566Y012304D01*
X024511Y012508D02*
X024566Y012563D01*
X024566Y012673D01*
X024511Y012728D01*
X024291Y012728D01*
X024236Y012673D01*
X024236Y012563D01*
X024291Y012508D01*
X024511Y012508D01*
X024566Y012876D02*
X024236Y012876D01*
X024236Y013096D01*
X024401Y012986D02*
X024401Y012876D01*
X024891Y012654D02*
X025111Y012654D01*
X025166Y012709D01*
X025111Y012844D02*
X025166Y012899D01*
X025166Y013064D01*
X025001Y013064D01*
X024946Y013009D01*
X024946Y012899D01*
X025056Y012899D02*
X025056Y013064D01*
X025056Y012899D02*
X025111Y012844D01*
X024946Y012709D02*
X024946Y012599D01*
X024836Y013213D02*
X024836Y013268D01*
X025166Y013268D01*
X025166Y013213D02*
X025166Y013323D01*
X024946Y011794D02*
X024946Y011739D01*
X024891Y011591D02*
X024836Y011536D01*
X024836Y011371D01*
X025166Y011371D01*
X025166Y011536D01*
X025111Y011591D01*
X024891Y011591D01*
X030936Y011991D02*
X030991Y011881D01*
X031101Y011771D01*
X031101Y011936D01*
X031156Y011991D01*
X031211Y011991D01*
X031266Y011936D01*
X031266Y011826D01*
X031211Y011771D01*
X031101Y011771D01*
X031481Y011794D02*
X031536Y011794D01*
X031646Y011794D02*
X031866Y011794D01*
X031866Y011739D02*
X031866Y011849D01*
X031811Y011985D02*
X031866Y012040D01*
X031866Y012205D01*
X031921Y012205D02*
X031646Y012205D01*
X031646Y012040D01*
X031701Y011985D01*
X031811Y011985D01*
X031976Y012095D02*
X031976Y012150D01*
X031921Y012205D01*
X031866Y012353D02*
X031866Y012463D01*
X031866Y012408D02*
X031646Y012408D01*
X031646Y012353D01*
X031536Y012408D02*
X031481Y012408D01*
X031266Y012304D02*
X031211Y012360D01*
X030991Y012360D01*
X030936Y012304D01*
X030936Y012139D01*
X031266Y012139D01*
X031266Y012304D01*
X031211Y012508D02*
X031266Y012563D01*
X031266Y012673D01*
X031211Y012728D01*
X030991Y012728D01*
X030936Y012673D01*
X030936Y012563D01*
X030991Y012508D01*
X031211Y012508D01*
X031266Y012876D02*
X030936Y012876D01*
X030936Y013096D01*
X031101Y012986D02*
X031101Y012876D01*
X031591Y012654D02*
X031811Y012654D01*
X031866Y012709D01*
X031811Y012844D02*
X031756Y012899D01*
X031756Y013064D01*
X031701Y013064D02*
X031866Y013064D01*
X031866Y012899D01*
X031811Y012844D01*
X031646Y012899D02*
X031646Y013009D01*
X031701Y013064D01*
X031536Y013213D02*
X031536Y013268D01*
X031866Y013268D01*
X031866Y013213D02*
X031866Y013323D01*
X031646Y012709D02*
X031646Y012599D01*
X031646Y011794D02*
X031646Y011739D01*
X031591Y011591D02*
X031536Y011536D01*
X031536Y011371D01*
X031866Y011371D01*
X031866Y011536D01*
X031811Y011591D01*
X031591Y011591D01*
X037636Y011991D02*
X037691Y011881D01*
X037801Y011771D01*
X037801Y011936D01*
X037856Y011991D01*
X037911Y011991D01*
X037966Y011936D01*
X037966Y011826D01*
X037911Y011771D01*
X037801Y011771D01*
X038181Y011794D02*
X038236Y011794D01*
X038346Y011794D02*
X038566Y011794D01*
X038566Y011739D02*
X038566Y011849D01*
X038511Y011985D02*
X038566Y012040D01*
X038566Y012205D01*
X038621Y012205D02*
X038346Y012205D01*
X038346Y012040D01*
X038401Y011985D01*
X038511Y011985D01*
X038676Y012095D02*
X038676Y012150D01*
X038621Y012205D01*
X038566Y012353D02*
X038566Y012463D01*
X038566Y012408D02*
X038346Y012408D01*
X038346Y012353D01*
X038236Y012408D02*
X038181Y012408D01*
X037966Y012304D02*
X037911Y012360D01*
X037691Y012360D01*
X037636Y012304D01*
X037636Y012139D01*
X037966Y012139D01*
X037966Y012304D01*
X037911Y012508D02*
X037691Y012508D01*
X037636Y012563D01*
X037636Y012673D01*
X037691Y012728D01*
X037911Y012728D01*
X037966Y012673D01*
X037966Y012563D01*
X037911Y012508D01*
X037966Y012876D02*
X037636Y012876D01*
X037636Y013096D01*
X037801Y012986D02*
X037801Y012876D01*
X038291Y012654D02*
X038511Y012654D01*
X038566Y012709D01*
X038511Y012844D02*
X038456Y012899D01*
X038456Y013064D01*
X038401Y013064D02*
X038566Y013064D01*
X038566Y012899D01*
X038511Y012844D01*
X038346Y012899D02*
X038346Y013009D01*
X038401Y013064D01*
X038236Y013213D02*
X038236Y013268D01*
X038566Y013268D01*
X038566Y013213D02*
X038566Y013323D01*
X038346Y012709D02*
X038346Y012599D01*
X038346Y011794D02*
X038346Y011739D01*
X038291Y011591D02*
X038236Y011536D01*
X038236Y011371D01*
X038566Y011371D01*
X038566Y011536D01*
X038511Y011591D01*
X038291Y011591D01*
X038236Y017571D02*
X038236Y017736D01*
X038291Y017791D01*
X038511Y017791D01*
X038566Y017736D01*
X038566Y017571D01*
X038236Y017571D01*
X038346Y017939D02*
X038346Y017994D01*
X038566Y017994D01*
X038566Y017939D02*
X038566Y018049D01*
X038511Y018185D02*
X038566Y018240D01*
X038566Y018405D01*
X038621Y018405D02*
X038346Y018405D01*
X038346Y018240D01*
X038401Y018185D01*
X038511Y018185D01*
X038676Y018295D02*
X038676Y018350D01*
X038621Y018405D01*
X038566Y018553D02*
X038566Y018663D01*
X038566Y018608D02*
X038346Y018608D01*
X038346Y018553D01*
X038236Y018608D02*
X038181Y018608D01*
X037966Y018504D02*
X037911Y018560D01*
X037691Y018560D01*
X037636Y018504D01*
X037636Y018339D01*
X037966Y018339D01*
X037966Y018504D01*
X037911Y018708D02*
X037966Y018763D01*
X037966Y018873D01*
X037911Y018928D01*
X037691Y018928D01*
X037636Y018873D01*
X037636Y018763D01*
X037691Y018708D01*
X037911Y018708D01*
X037966Y019076D02*
X037636Y019076D01*
X037636Y019296D01*
X037801Y019186D02*
X037801Y019076D01*
X038291Y018854D02*
X038511Y018854D01*
X038566Y018909D01*
X038511Y019044D02*
X038456Y019099D01*
X038456Y019264D01*
X038401Y019264D02*
X038566Y019264D01*
X038566Y019099D01*
X038511Y019044D01*
X038346Y019099D02*
X038346Y019209D01*
X038401Y019264D01*
X038236Y019413D02*
X038236Y019468D01*
X038566Y019468D01*
X038566Y019413D02*
X038566Y019523D01*
X038346Y018909D02*
X038346Y018799D01*
X037911Y018191D02*
X037856Y018191D01*
X037801Y018136D01*
X037801Y017971D01*
X037911Y017971D01*
X037966Y018026D01*
X037966Y018136D01*
X037911Y018191D01*
X037691Y018081D02*
X037801Y017971D01*
X037691Y018081D02*
X037636Y018191D01*
X038181Y017994D02*
X038236Y017994D01*
X031976Y018295D02*
X031976Y018350D01*
X031921Y018405D01*
X031646Y018405D01*
X031646Y018240D01*
X031701Y018185D01*
X031811Y018185D01*
X031866Y018240D01*
X031866Y018405D01*
X031866Y018553D02*
X031866Y018663D01*
X031866Y018608D02*
X031646Y018608D01*
X031646Y018553D01*
X031536Y018608D02*
X031481Y018608D01*
X031266Y018504D02*
X031211Y018560D01*
X030991Y018560D01*
X030936Y018504D01*
X030936Y018339D01*
X031266Y018339D01*
X031266Y018504D01*
X031211Y018708D02*
X031266Y018763D01*
X031266Y018873D01*
X031211Y018928D01*
X030991Y018928D01*
X030936Y018873D01*
X030936Y018763D01*
X030991Y018708D01*
X031211Y018708D01*
X031266Y019076D02*
X030936Y019076D01*
X030936Y019296D01*
X031101Y019186D02*
X031101Y019076D01*
X031591Y018854D02*
X031811Y018854D01*
X031866Y018909D01*
X031811Y019044D02*
X031756Y019099D01*
X031756Y019264D01*
X031701Y019264D02*
X031866Y019264D01*
X031866Y019099D01*
X031811Y019044D01*
X031646Y019099D02*
X031646Y019209D01*
X031701Y019264D01*
X031536Y019413D02*
X031536Y019468D01*
X031866Y019468D01*
X031866Y019413D02*
X031866Y019523D01*
X031646Y018909D02*
X031646Y018799D01*
X031211Y018191D02*
X031156Y018191D01*
X031101Y018136D01*
X031101Y017971D01*
X031211Y017971D01*
X031266Y018026D01*
X031266Y018136D01*
X031211Y018191D01*
X030991Y018081D02*
X031101Y017971D01*
X030991Y018081D02*
X030936Y018191D01*
X031481Y017994D02*
X031536Y017994D01*
X031646Y017994D02*
X031866Y017994D01*
X031866Y017939D02*
X031866Y018049D01*
X031646Y017994D02*
X031646Y017939D01*
X031591Y017791D02*
X031536Y017736D01*
X031536Y017571D01*
X031866Y017571D01*
X031866Y017736D01*
X031811Y017791D01*
X031591Y017791D01*
X025276Y018295D02*
X025276Y018350D01*
X025221Y018405D01*
X024946Y018405D01*
X024946Y018240D01*
X025001Y018185D01*
X025111Y018185D01*
X025166Y018240D01*
X025166Y018405D01*
X025166Y018553D02*
X025166Y018663D01*
X025166Y018608D02*
X024946Y018608D01*
X024946Y018553D01*
X024836Y018608D02*
X024781Y018608D01*
X024566Y018504D02*
X024511Y018560D01*
X024291Y018560D01*
X024236Y018504D01*
X024236Y018339D01*
X024566Y018339D01*
X024566Y018504D01*
X024511Y018708D02*
X024566Y018763D01*
X024566Y018873D01*
X024511Y018928D01*
X024291Y018928D01*
X024236Y018873D01*
X024236Y018763D01*
X024291Y018708D01*
X024511Y018708D01*
X024566Y019076D02*
X024236Y019076D01*
X024236Y019296D01*
X024401Y019186D02*
X024401Y019076D01*
X024891Y018854D02*
X025111Y018854D01*
X025166Y018909D01*
X025111Y019044D02*
X025166Y019099D01*
X025166Y019264D01*
X025001Y019264D01*
X024946Y019209D01*
X024946Y019099D01*
X025056Y019099D02*
X025056Y019264D01*
X025056Y019099D02*
X025111Y019044D01*
X024946Y018909D02*
X024946Y018799D01*
X024511Y018191D02*
X024456Y018191D01*
X024401Y018136D01*
X024401Y017971D01*
X024511Y017971D01*
X024566Y018026D01*
X024566Y018136D01*
X024511Y018191D01*
X024291Y018081D02*
X024401Y017971D01*
X024291Y018081D02*
X024236Y018191D01*
X024781Y017994D02*
X024836Y017994D01*
X024946Y017994D02*
X025166Y017994D01*
X025166Y017939D02*
X025166Y018049D01*
X024946Y017994D02*
X024946Y017939D01*
X024891Y017791D02*
X024836Y017736D01*
X024836Y017571D01*
X025166Y017571D01*
X025166Y017736D01*
X025111Y017791D01*
X024891Y017791D01*
X024836Y019413D02*
X024836Y019468D01*
X025166Y019468D01*
X025166Y019413D02*
X025166Y019523D01*
X025166Y023771D02*
X024836Y023771D01*
X024836Y023936D01*
X024891Y023991D01*
X025111Y023991D01*
X025166Y023936D01*
X025166Y023771D01*
X025166Y024139D02*
X025166Y024249D01*
X025166Y024194D02*
X024946Y024194D01*
X024946Y024139D01*
X024836Y024194D02*
X024781Y024194D01*
X024566Y024226D02*
X024566Y024336D01*
X024511Y024391D01*
X024456Y024391D01*
X024401Y024336D01*
X024401Y024171D01*
X024511Y024171D01*
X024566Y024226D01*
X024401Y024171D02*
X024291Y024281D01*
X024236Y024391D01*
X024236Y024539D02*
X024236Y024704D01*
X024291Y024760D01*
X024511Y024760D01*
X024566Y024704D01*
X024566Y024539D01*
X024236Y024539D01*
X024291Y024908D02*
X024236Y024963D01*
X024236Y025073D01*
X024291Y025128D01*
X024511Y025128D01*
X024566Y025073D01*
X024566Y024963D01*
X024511Y024908D01*
X024291Y024908D01*
X024236Y025276D02*
X024566Y025276D01*
X024401Y025276D02*
X024401Y025386D01*
X024236Y025276D02*
X024236Y025496D01*
X024836Y025613D02*
X024836Y025668D01*
X025166Y025668D01*
X025166Y025613D02*
X025166Y025723D01*
X025166Y025464D02*
X025166Y025299D01*
X025111Y025244D01*
X025056Y025299D01*
X025056Y025464D01*
X025001Y025464D02*
X025166Y025464D01*
X025001Y025464D02*
X024946Y025409D01*
X024946Y025299D01*
X024946Y025109D02*
X024946Y024999D01*
X024891Y025054D02*
X025111Y025054D01*
X025166Y025109D01*
X025166Y024863D02*
X025166Y024753D01*
X025166Y024808D02*
X024946Y024808D01*
X024946Y024753D01*
X024836Y024808D02*
X024781Y024808D01*
X024946Y024605D02*
X024946Y024440D01*
X025001Y024385D01*
X025111Y024385D01*
X025166Y024440D01*
X025166Y024605D01*
X025221Y024605D02*
X024946Y024605D01*
X025221Y024605D02*
X025276Y024550D01*
X025276Y024495D01*
X030936Y024539D02*
X030936Y024704D01*
X030991Y024760D01*
X031211Y024760D01*
X031266Y024704D01*
X031266Y024539D01*
X030936Y024539D01*
X030936Y024391D02*
X030991Y024281D01*
X031101Y024171D01*
X031101Y024336D01*
X031156Y024391D01*
X031211Y024391D01*
X031266Y024336D01*
X031266Y024226D01*
X031211Y024171D01*
X031101Y024171D01*
X031481Y024194D02*
X031536Y024194D01*
X031646Y024194D02*
X031866Y024194D01*
X031866Y024139D02*
X031866Y024249D01*
X031811Y024385D02*
X031866Y024440D01*
X031866Y024605D01*
X031921Y024605D02*
X031646Y024605D01*
X031646Y024440D01*
X031701Y024385D01*
X031811Y024385D01*
X031976Y024495D02*
X031976Y024550D01*
X031921Y024605D01*
X031866Y024753D02*
X031866Y024863D01*
X031866Y024808D02*
X031646Y024808D01*
X031646Y024753D01*
X031536Y024808D02*
X031481Y024808D01*
X031646Y024999D02*
X031646Y025109D01*
X031591Y025054D02*
X031811Y025054D01*
X031866Y025109D01*
X031811Y025244D02*
X031756Y025299D01*
X031756Y025464D01*
X031701Y025464D02*
X031866Y025464D01*
X031866Y025299D01*
X031811Y025244D01*
X031646Y025299D02*
X031646Y025409D01*
X031701Y025464D01*
X031536Y025613D02*
X031536Y025668D01*
X031866Y025668D01*
X031866Y025613D02*
X031866Y025723D01*
X031266Y025276D02*
X030936Y025276D01*
X030936Y025496D01*
X031101Y025386D02*
X031101Y025276D01*
X030991Y025128D02*
X030936Y025073D01*
X030936Y024963D01*
X030991Y024908D01*
X031211Y024908D01*
X031266Y024963D01*
X031266Y025073D01*
X031211Y025128D01*
X030991Y025128D01*
X031646Y024194D02*
X031646Y024139D01*
X031591Y023991D02*
X031536Y023936D01*
X031536Y023771D01*
X031866Y023771D01*
X031866Y023936D01*
X031811Y023991D01*
X031591Y023991D01*
X037636Y024391D02*
X037691Y024281D01*
X037801Y024171D01*
X037801Y024336D01*
X037856Y024391D01*
X037911Y024391D01*
X037966Y024336D01*
X037966Y024226D01*
X037911Y024171D01*
X037801Y024171D01*
X038181Y024194D02*
X038236Y024194D01*
X038346Y024194D02*
X038566Y024194D01*
X038566Y024139D02*
X038566Y024249D01*
X038511Y024385D02*
X038566Y024440D01*
X038566Y024605D01*
X038621Y024605D02*
X038346Y024605D01*
X038346Y024440D01*
X038401Y024385D01*
X038511Y024385D01*
X038676Y024495D02*
X038676Y024550D01*
X038621Y024605D01*
X038566Y024753D02*
X038566Y024863D01*
X038566Y024808D02*
X038346Y024808D01*
X038346Y024753D01*
X038236Y024808D02*
X038181Y024808D01*
X037966Y024704D02*
X037911Y024760D01*
X037691Y024760D01*
X037636Y024704D01*
X037636Y024539D01*
X037966Y024539D01*
X037966Y024704D01*
X037911Y024908D02*
X037691Y024908D01*
X037636Y024963D01*
X037636Y025073D01*
X037691Y025128D01*
X037911Y025128D01*
X037966Y025073D01*
X037966Y024963D01*
X037911Y024908D01*
X037966Y025276D02*
X037636Y025276D01*
X037636Y025496D01*
X037801Y025386D02*
X037801Y025276D01*
X038291Y025054D02*
X038511Y025054D01*
X038566Y025109D01*
X038511Y025244D02*
X038456Y025299D01*
X038456Y025464D01*
X038401Y025464D02*
X038566Y025464D01*
X038566Y025299D01*
X038511Y025244D01*
X038346Y025299D02*
X038346Y025409D01*
X038401Y025464D01*
X038236Y025613D02*
X038236Y025668D01*
X038566Y025668D01*
X038566Y025613D02*
X038566Y025723D01*
X038346Y025109D02*
X038346Y024999D01*
X038346Y024194D02*
X038346Y024139D01*
X038291Y023991D02*
X038236Y023936D01*
X038236Y023771D01*
X038566Y023771D01*
X038566Y023936D01*
X038511Y023991D01*
X038291Y023991D01*
X038236Y029971D02*
X038236Y030136D01*
X038291Y030191D01*
X038511Y030191D01*
X038566Y030136D01*
X038566Y029971D01*
X038236Y029971D01*
X038346Y030339D02*
X038346Y030394D01*
X038566Y030394D01*
X038566Y030339D02*
X038566Y030449D01*
X038511Y030585D02*
X038566Y030640D01*
X038566Y030805D01*
X038621Y030805D02*
X038346Y030805D01*
X038346Y030640D01*
X038401Y030585D01*
X038511Y030585D01*
X038676Y030695D02*
X038676Y030750D01*
X038621Y030805D01*
X038566Y030953D02*
X038566Y031063D01*
X038566Y031008D02*
X038346Y031008D01*
X038346Y030953D01*
X038236Y031008D02*
X038181Y031008D01*
X037966Y030904D02*
X037911Y030960D01*
X037691Y030960D01*
X037636Y030904D01*
X037636Y030739D01*
X037966Y030739D01*
X037966Y030904D01*
X037911Y031108D02*
X037966Y031163D01*
X037966Y031273D01*
X037911Y031328D01*
X037691Y031328D01*
X037636Y031273D01*
X037636Y031163D01*
X037691Y031108D01*
X037911Y031108D01*
X037966Y031476D02*
X037636Y031476D01*
X037636Y031696D01*
X037801Y031586D02*
X037801Y031476D01*
X038291Y031254D02*
X038511Y031254D01*
X038566Y031309D01*
X038511Y031444D02*
X038456Y031499D01*
X038456Y031664D01*
X038401Y031664D02*
X038566Y031664D01*
X038566Y031499D01*
X038511Y031444D01*
X038346Y031499D02*
X038346Y031609D01*
X038401Y031664D01*
X038236Y031813D02*
X038236Y031868D01*
X038566Y031868D01*
X038566Y031813D02*
X038566Y031923D01*
X038346Y031309D02*
X038346Y031199D01*
X037911Y030591D02*
X037856Y030591D01*
X037801Y030536D01*
X037801Y030371D01*
X037911Y030371D01*
X037966Y030426D01*
X037966Y030536D01*
X037911Y030591D01*
X037691Y030481D02*
X037801Y030371D01*
X037691Y030481D02*
X037636Y030591D01*
X038181Y030394D02*
X038236Y030394D01*
X031976Y030695D02*
X031976Y030750D01*
X031921Y030805D01*
X031646Y030805D01*
X031646Y030640D01*
X031701Y030585D01*
X031811Y030585D01*
X031866Y030640D01*
X031866Y030805D01*
X031866Y030953D02*
X031866Y031063D01*
X031866Y031008D02*
X031646Y031008D01*
X031646Y030953D01*
X031536Y031008D02*
X031481Y031008D01*
X031266Y030904D02*
X031211Y030960D01*
X030991Y030960D01*
X030936Y030904D01*
X030936Y030739D01*
X031266Y030739D01*
X031266Y030904D01*
X031211Y031108D02*
X031266Y031163D01*
X031266Y031273D01*
X031211Y031328D01*
X030991Y031328D01*
X030936Y031273D01*
X030936Y031163D01*
X030991Y031108D01*
X031211Y031108D01*
X031266Y031476D02*
X030936Y031476D01*
X030936Y031696D01*
X031101Y031586D02*
X031101Y031476D01*
X031591Y031254D02*
X031811Y031254D01*
X031866Y031309D01*
X031811Y031444D02*
X031756Y031499D01*
X031756Y031664D01*
X031701Y031664D02*
X031866Y031664D01*
X031866Y031499D01*
X031811Y031444D01*
X031646Y031499D02*
X031646Y031609D01*
X031701Y031664D01*
X031536Y031813D02*
X031536Y031868D01*
X031866Y031868D01*
X031866Y031813D02*
X031866Y031923D01*
X031646Y031309D02*
X031646Y031199D01*
X031211Y030591D02*
X031156Y030591D01*
X031101Y030536D01*
X031101Y030371D01*
X031211Y030371D01*
X031266Y030426D01*
X031266Y030536D01*
X031211Y030591D01*
X030991Y030481D02*
X031101Y030371D01*
X030991Y030481D02*
X030936Y030591D01*
X031481Y030394D02*
X031536Y030394D01*
X031646Y030394D02*
X031866Y030394D01*
X031866Y030339D02*
X031866Y030449D01*
X031646Y030394D02*
X031646Y030339D01*
X031591Y030191D02*
X031536Y030136D01*
X031536Y029971D01*
X031866Y029971D01*
X031866Y030136D01*
X031811Y030191D01*
X031591Y030191D01*
X025276Y030695D02*
X025276Y030750D01*
X025221Y030805D01*
X024946Y030805D01*
X024946Y030640D01*
X025001Y030585D01*
X025111Y030585D01*
X025166Y030640D01*
X025166Y030805D01*
X025166Y030953D02*
X025166Y031063D01*
X025166Y031008D02*
X024946Y031008D01*
X024946Y030953D01*
X024836Y031008D02*
X024781Y031008D01*
X024566Y030904D02*
X024511Y030960D01*
X024291Y030960D01*
X024236Y030904D01*
X024236Y030739D01*
X024566Y030739D01*
X024566Y030904D01*
X024511Y031108D02*
X024566Y031163D01*
X024566Y031273D01*
X024511Y031328D01*
X024291Y031328D01*
X024236Y031273D01*
X024236Y031163D01*
X024291Y031108D01*
X024511Y031108D01*
X024566Y031476D02*
X024236Y031476D01*
X024236Y031696D01*
X024401Y031586D02*
X024401Y031476D01*
X024891Y031254D02*
X025111Y031254D01*
X025166Y031309D01*
X025111Y031444D02*
X025166Y031499D01*
X025166Y031664D01*
X025001Y031664D01*
X024946Y031609D01*
X024946Y031499D01*
X025056Y031499D02*
X025056Y031664D01*
X025056Y031499D02*
X025111Y031444D01*
X024946Y031309D02*
X024946Y031199D01*
X024511Y030591D02*
X024456Y030591D01*
X024401Y030536D01*
X024401Y030371D01*
X024511Y030371D01*
X024566Y030426D01*
X024566Y030536D01*
X024511Y030591D01*
X024291Y030481D02*
X024401Y030371D01*
X024291Y030481D02*
X024236Y030591D01*
X024781Y030394D02*
X024836Y030394D01*
X024946Y030394D02*
X025166Y030394D01*
X025166Y030339D02*
X025166Y030449D01*
X024946Y030394D02*
X024946Y030339D01*
X024891Y030191D02*
X024836Y030136D01*
X024836Y029971D01*
X025166Y029971D01*
X025166Y030136D01*
X025111Y030191D01*
X024891Y030191D01*
X024836Y031813D02*
X024836Y031868D01*
X025166Y031868D01*
X025166Y031813D02*
X025166Y031923D01*
X025166Y036171D02*
X024836Y036171D01*
X024836Y036336D01*
X024891Y036391D01*
X025111Y036391D01*
X025166Y036336D01*
X025166Y036171D01*
X025166Y036539D02*
X025166Y036649D01*
X025166Y036594D02*
X024946Y036594D01*
X024946Y036539D01*
X024836Y036594D02*
X024781Y036594D01*
X024566Y036626D02*
X024511Y036571D01*
X024401Y036571D01*
X024401Y036736D01*
X024456Y036791D01*
X024511Y036791D01*
X024566Y036736D01*
X024566Y036626D01*
X024401Y036571D02*
X024291Y036681D01*
X024236Y036791D01*
X024236Y036939D02*
X024236Y037104D01*
X024291Y037160D01*
X024511Y037160D01*
X024566Y037104D01*
X024566Y036939D01*
X024236Y036939D01*
X024291Y037308D02*
X024236Y037363D01*
X024236Y037473D01*
X024291Y037528D01*
X024511Y037528D01*
X024566Y037473D01*
X024566Y037363D01*
X024511Y037308D01*
X024291Y037308D01*
X024236Y037676D02*
X024566Y037676D01*
X024401Y037676D02*
X024401Y037786D01*
X024236Y037676D02*
X024236Y037896D01*
X024836Y038013D02*
X024836Y038068D01*
X025166Y038068D01*
X025166Y038013D02*
X025166Y038123D01*
X025166Y037864D02*
X025166Y037699D01*
X025111Y037644D01*
X025056Y037699D01*
X025056Y037864D01*
X025001Y037864D02*
X025166Y037864D01*
X025001Y037864D02*
X024946Y037809D01*
X024946Y037699D01*
X024946Y037509D02*
X024946Y037399D01*
X024891Y037454D02*
X025111Y037454D01*
X025166Y037509D01*
X025166Y037263D02*
X025166Y037153D01*
X025166Y037208D02*
X024946Y037208D01*
X024946Y037153D01*
X024836Y037208D02*
X024781Y037208D01*
X024946Y037005D02*
X024946Y036840D01*
X025001Y036785D01*
X025111Y036785D01*
X025166Y036840D01*
X025166Y037005D01*
X025221Y037005D02*
X024946Y037005D01*
X025221Y037005D02*
X025276Y036950D01*
X025276Y036895D01*
X030936Y036939D02*
X030936Y037104D01*
X030991Y037160D01*
X031211Y037160D01*
X031266Y037104D01*
X031266Y036939D01*
X030936Y036939D01*
X030936Y036791D02*
X030991Y036681D01*
X031101Y036571D01*
X031101Y036736D01*
X031156Y036791D01*
X031211Y036791D01*
X031266Y036736D01*
X031266Y036626D01*
X031211Y036571D01*
X031101Y036571D01*
X031481Y036594D02*
X031536Y036594D01*
X031646Y036594D02*
X031866Y036594D01*
X031866Y036539D02*
X031866Y036649D01*
X031811Y036785D02*
X031866Y036840D01*
X031866Y037005D01*
X031921Y037005D02*
X031646Y037005D01*
X031646Y036840D01*
X031701Y036785D01*
X031811Y036785D01*
X031976Y036895D02*
X031976Y036950D01*
X031921Y037005D01*
X031866Y037153D02*
X031866Y037263D01*
X031866Y037208D02*
X031646Y037208D01*
X031646Y037153D01*
X031536Y037208D02*
X031481Y037208D01*
X031646Y037399D02*
X031646Y037509D01*
X031591Y037454D02*
X031811Y037454D01*
X031866Y037509D01*
X031811Y037644D02*
X031756Y037699D01*
X031756Y037864D01*
X031701Y037864D02*
X031866Y037864D01*
X031866Y037699D01*
X031811Y037644D01*
X031646Y037699D02*
X031646Y037809D01*
X031701Y037864D01*
X031536Y038013D02*
X031536Y038068D01*
X031866Y038068D01*
X031866Y038013D02*
X031866Y038123D01*
X031266Y037676D02*
X030936Y037676D01*
X030936Y037896D01*
X031101Y037786D02*
X031101Y037676D01*
X030991Y037528D02*
X030936Y037473D01*
X030936Y037363D01*
X030991Y037308D01*
X031211Y037308D01*
X031266Y037363D01*
X031266Y037473D01*
X031211Y037528D01*
X030991Y037528D01*
X031646Y036594D02*
X031646Y036539D01*
X031591Y036391D02*
X031536Y036336D01*
X031536Y036171D01*
X031866Y036171D01*
X031866Y036336D01*
X031811Y036391D01*
X031591Y036391D01*
X037636Y036791D02*
X037691Y036681D01*
X037801Y036571D01*
X037801Y036736D01*
X037856Y036791D01*
X037911Y036791D01*
X037966Y036736D01*
X037966Y036626D01*
X037911Y036571D01*
X037801Y036571D01*
X038181Y036594D02*
X038236Y036594D01*
X038346Y036594D02*
X038566Y036594D01*
X038566Y036539D02*
X038566Y036649D01*
X038511Y036785D02*
X038566Y036840D01*
X038566Y037005D01*
X038621Y037005D02*
X038346Y037005D01*
X038346Y036840D01*
X038401Y036785D01*
X038511Y036785D01*
X038676Y036895D02*
X038676Y036950D01*
X038621Y037005D01*
X038566Y037153D02*
X038566Y037263D01*
X038566Y037208D02*
X038346Y037208D01*
X038346Y037153D01*
X038236Y037208D02*
X038181Y037208D01*
X037966Y037104D02*
X037911Y037160D01*
X037691Y037160D01*
X037636Y037104D01*
X037636Y036939D01*
X037966Y036939D01*
X037966Y037104D01*
X037911Y037308D02*
X037691Y037308D01*
X037636Y037363D01*
X037636Y037473D01*
X037691Y037528D01*
X037911Y037528D01*
X037966Y037473D01*
X037966Y037363D01*
X037911Y037308D01*
X037966Y037676D02*
X037636Y037676D01*
X037636Y037896D01*
X037801Y037786D02*
X037801Y037676D01*
X038291Y037454D02*
X038511Y037454D01*
X038566Y037509D01*
X038511Y037644D02*
X038456Y037699D01*
X038456Y037864D01*
X038401Y037864D02*
X038566Y037864D01*
X038566Y037699D01*
X038511Y037644D01*
X038346Y037699D02*
X038346Y037809D01*
X038401Y037864D01*
X038236Y038013D02*
X038236Y038068D01*
X038566Y038068D01*
X038566Y038013D02*
X038566Y038123D01*
X038346Y037509D02*
X038346Y037399D01*
X038346Y036594D02*
X038346Y036539D01*
X038291Y036391D02*
X038236Y036336D01*
X038236Y036171D01*
X038566Y036171D01*
X038566Y036336D01*
X038511Y036391D01*
X038291Y036391D01*
X038236Y042371D02*
X038236Y042536D01*
X038291Y042591D01*
X038511Y042591D01*
X038566Y042536D01*
X038566Y042371D01*
X038236Y042371D01*
X038346Y042739D02*
X038346Y042794D01*
X038566Y042794D01*
X038566Y042739D02*
X038566Y042849D01*
X038511Y042985D02*
X038566Y043040D01*
X038566Y043205D01*
X038621Y043205D02*
X038346Y043205D01*
X038346Y043040D01*
X038401Y042985D01*
X038511Y042985D01*
X038676Y043095D02*
X038676Y043150D01*
X038621Y043205D01*
X038566Y043353D02*
X038566Y043463D01*
X038566Y043408D02*
X038346Y043408D01*
X038346Y043353D01*
X038236Y043408D02*
X038181Y043408D01*
X037966Y043304D02*
X037911Y043360D01*
X037691Y043360D01*
X037636Y043304D01*
X037636Y043139D01*
X037966Y043139D01*
X037966Y043304D01*
X037911Y043508D02*
X037966Y043563D01*
X037966Y043673D01*
X037911Y043728D01*
X037691Y043728D01*
X037636Y043673D01*
X037636Y043563D01*
X037691Y043508D01*
X037911Y043508D01*
X037966Y043876D02*
X037636Y043876D01*
X037636Y044096D01*
X037801Y043986D02*
X037801Y043876D01*
X038291Y043654D02*
X038511Y043654D01*
X038566Y043709D01*
X038511Y043844D02*
X038456Y043899D01*
X038456Y044064D01*
X038401Y044064D02*
X038566Y044064D01*
X038566Y043899D01*
X038511Y043844D01*
X038346Y043899D02*
X038346Y044009D01*
X038401Y044064D01*
X038236Y044213D02*
X038236Y044268D01*
X038566Y044268D01*
X038566Y044213D02*
X038566Y044323D01*
X038346Y043709D02*
X038346Y043599D01*
X037911Y042991D02*
X037856Y042991D01*
X037801Y042936D01*
X037801Y042771D01*
X037911Y042771D01*
X037966Y042826D01*
X037966Y042936D01*
X037911Y042991D01*
X037691Y042881D02*
X037801Y042771D01*
X037691Y042881D02*
X037636Y042991D01*
X038181Y042794D02*
X038236Y042794D01*
X031976Y043095D02*
X031976Y043150D01*
X031921Y043205D01*
X031646Y043205D01*
X031646Y043040D01*
X031701Y042985D01*
X031811Y042985D01*
X031866Y043040D01*
X031866Y043205D01*
X031866Y043353D02*
X031866Y043463D01*
X031866Y043408D02*
X031646Y043408D01*
X031646Y043353D01*
X031536Y043408D02*
X031481Y043408D01*
X031266Y043304D02*
X031211Y043360D01*
X030991Y043360D01*
X030936Y043304D01*
X030936Y043139D01*
X031266Y043139D01*
X031266Y043304D01*
X031211Y043508D02*
X031266Y043563D01*
X031266Y043673D01*
X031211Y043728D01*
X030991Y043728D01*
X030936Y043673D01*
X030936Y043563D01*
X030991Y043508D01*
X031211Y043508D01*
X031266Y043876D02*
X030936Y043876D01*
X030936Y044096D01*
X031101Y043986D02*
X031101Y043876D01*
X031591Y043654D02*
X031811Y043654D01*
X031866Y043709D01*
X031811Y043844D02*
X031756Y043899D01*
X031756Y044064D01*
X031701Y044064D02*
X031866Y044064D01*
X031866Y043899D01*
X031811Y043844D01*
X031646Y043899D02*
X031646Y044009D01*
X031701Y044064D01*
X031536Y044213D02*
X031536Y044268D01*
X031866Y044268D01*
X031866Y044213D02*
X031866Y044323D01*
X031646Y043709D02*
X031646Y043599D01*
X031211Y042991D02*
X031156Y042991D01*
X031101Y042936D01*
X031101Y042771D01*
X031211Y042771D01*
X031266Y042826D01*
X031266Y042936D01*
X031211Y042991D01*
X030991Y042881D02*
X031101Y042771D01*
X030991Y042881D02*
X030936Y042991D01*
X031481Y042794D02*
X031536Y042794D01*
X031646Y042794D02*
X031866Y042794D01*
X031866Y042739D02*
X031866Y042849D01*
X031646Y042794D02*
X031646Y042739D01*
X031591Y042591D02*
X031536Y042536D01*
X031536Y042371D01*
X031866Y042371D01*
X031866Y042536D01*
X031811Y042591D01*
X031591Y042591D01*
X025276Y043095D02*
X025276Y043150D01*
X025221Y043205D01*
X024946Y043205D01*
X024946Y043040D01*
X025001Y042985D01*
X025111Y042985D01*
X025166Y043040D01*
X025166Y043205D01*
X025166Y043353D02*
X025166Y043463D01*
X025166Y043408D02*
X024946Y043408D01*
X024946Y043353D01*
X024836Y043408D02*
X024781Y043408D01*
X024566Y043304D02*
X024511Y043360D01*
X024291Y043360D01*
X024236Y043304D01*
X024236Y043139D01*
X024566Y043139D01*
X024566Y043304D01*
X024511Y043508D02*
X024566Y043563D01*
X024566Y043673D01*
X024511Y043728D01*
X024291Y043728D01*
X024236Y043673D01*
X024236Y043563D01*
X024291Y043508D01*
X024511Y043508D01*
X024566Y043876D02*
X024236Y043876D01*
X024236Y044096D01*
X024401Y043986D02*
X024401Y043876D01*
X024891Y043654D02*
X025111Y043654D01*
X025166Y043709D01*
X025111Y043844D02*
X025166Y043899D01*
X025166Y044064D01*
X025001Y044064D01*
X024946Y044009D01*
X024946Y043899D01*
X025056Y043899D02*
X025056Y044064D01*
X025056Y043899D02*
X025111Y043844D01*
X024946Y043709D02*
X024946Y043599D01*
X024511Y042991D02*
X024456Y042991D01*
X024401Y042936D01*
X024401Y042771D01*
X024511Y042771D01*
X024566Y042826D01*
X024566Y042936D01*
X024511Y042991D01*
X024291Y042881D02*
X024401Y042771D01*
X024291Y042881D02*
X024236Y042991D01*
X024781Y042794D02*
X024836Y042794D01*
X024946Y042794D02*
X025166Y042794D01*
X025166Y042739D02*
X025166Y042849D01*
X024946Y042794D02*
X024946Y042739D01*
X024891Y042591D02*
X024836Y042536D01*
X024836Y042371D01*
X025166Y042371D01*
X025166Y042536D01*
X025111Y042591D01*
X024891Y042591D01*
X024836Y044213D02*
X024836Y044268D01*
X025166Y044268D01*
X025166Y044213D02*
X025166Y044323D01*
X018576Y043150D02*
X018521Y043205D01*
X018246Y043205D01*
X018246Y043040D01*
X018301Y042985D01*
X018411Y042985D01*
X018466Y043040D01*
X018466Y043205D01*
X018576Y043150D02*
X018576Y043095D01*
X018466Y042849D02*
X018466Y042739D01*
X018466Y042794D02*
X018246Y042794D01*
X018246Y042739D01*
X018136Y042794D02*
X018081Y042794D01*
X017866Y042826D02*
X017866Y042936D01*
X017811Y042991D01*
X017756Y042991D01*
X017701Y042936D01*
X017701Y042771D01*
X017811Y042771D01*
X017866Y042826D01*
X017701Y042771D02*
X017591Y042881D01*
X017536Y042991D01*
X017536Y043139D02*
X017536Y043304D01*
X017591Y043360D01*
X017811Y043360D01*
X017866Y043304D01*
X017866Y043139D01*
X017536Y043139D01*
X017591Y043508D02*
X017811Y043508D01*
X017866Y043563D01*
X017866Y043673D01*
X017811Y043728D01*
X017591Y043728D01*
X017536Y043673D01*
X017536Y043563D01*
X017591Y043508D01*
X017536Y043876D02*
X017536Y044096D01*
X017701Y043986D02*
X017701Y043876D01*
X017866Y043876D02*
X017536Y043876D01*
X018136Y044213D02*
X018136Y044268D01*
X018466Y044268D01*
X018466Y044213D02*
X018466Y044323D01*
X018466Y044064D02*
X018466Y043899D01*
X018411Y043844D01*
X018356Y043899D01*
X018356Y044064D01*
X018301Y044064D02*
X018466Y044064D01*
X018301Y044064D02*
X018246Y044009D01*
X018246Y043899D01*
X018246Y043709D02*
X018246Y043599D01*
X018191Y043654D02*
X018411Y043654D01*
X018466Y043709D01*
X018466Y043463D02*
X018466Y043353D01*
X018466Y043408D02*
X018246Y043408D01*
X018246Y043353D01*
X018136Y043408D02*
X018081Y043408D01*
X018191Y042591D02*
X018136Y042536D01*
X018136Y042371D01*
X018466Y042371D01*
X018466Y042536D01*
X018411Y042591D01*
X018191Y042591D01*
X011876Y043095D02*
X011876Y043150D01*
X011821Y043205D01*
X011546Y043205D01*
X011546Y043040D01*
X011601Y042985D01*
X011711Y042985D01*
X011766Y043040D01*
X011766Y043205D01*
X011766Y043353D02*
X011766Y043463D01*
X011766Y043408D02*
X011546Y043408D01*
X011546Y043353D01*
X011436Y043408D02*
X011381Y043408D01*
X011166Y043304D02*
X011111Y043360D01*
X010891Y043360D01*
X010836Y043304D01*
X010836Y043139D01*
X011166Y043139D01*
X011166Y043304D01*
X011111Y043508D02*
X011166Y043563D01*
X011166Y043673D01*
X011111Y043728D01*
X010891Y043728D01*
X010836Y043673D01*
X010836Y043563D01*
X010891Y043508D01*
X011111Y043508D01*
X011166Y043876D02*
X010836Y043876D01*
X010836Y044096D01*
X011001Y043986D02*
X011001Y043876D01*
X011491Y043654D02*
X011711Y043654D01*
X011766Y043709D01*
X011711Y043844D02*
X011656Y043899D01*
X011656Y044064D01*
X011601Y044064D02*
X011766Y044064D01*
X011766Y043899D01*
X011711Y043844D01*
X011546Y043899D02*
X011546Y044009D01*
X011601Y044064D01*
X011436Y044213D02*
X011436Y044268D01*
X011766Y044268D01*
X011766Y044213D02*
X011766Y044323D01*
X011546Y043709D02*
X011546Y043599D01*
X011111Y042991D02*
X011056Y042991D01*
X011001Y042936D01*
X011001Y042771D01*
X011111Y042771D01*
X011166Y042826D01*
X011166Y042936D01*
X011111Y042991D01*
X010891Y042881D02*
X011001Y042771D01*
X010891Y042881D02*
X010836Y042991D01*
X011381Y042794D02*
X011436Y042794D01*
X011546Y042794D02*
X011766Y042794D01*
X011766Y042739D02*
X011766Y042849D01*
X011546Y042794D02*
X011546Y042739D01*
X011491Y042591D02*
X011436Y042536D01*
X011436Y042371D01*
X011766Y042371D01*
X011766Y042536D01*
X011711Y042591D01*
X011491Y042591D01*
X011766Y038123D02*
X011766Y038013D01*
X011766Y038068D02*
X011436Y038068D01*
X011436Y038013D01*
X011601Y037864D02*
X011766Y037864D01*
X011766Y037699D01*
X011711Y037644D01*
X011656Y037699D01*
X011656Y037864D01*
X011601Y037864D02*
X011546Y037809D01*
X011546Y037699D01*
X011546Y037509D02*
X011546Y037399D01*
X011491Y037454D02*
X011711Y037454D01*
X011766Y037509D01*
X011766Y037263D02*
X011766Y037153D01*
X011766Y037208D02*
X011546Y037208D01*
X011546Y037153D01*
X011436Y037208D02*
X011381Y037208D01*
X011166Y037104D02*
X011111Y037160D01*
X010891Y037160D01*
X010836Y037104D01*
X010836Y036939D01*
X011166Y036939D01*
X011166Y037104D01*
X011111Y037308D02*
X011166Y037363D01*
X011166Y037473D01*
X011111Y037528D01*
X010891Y037528D01*
X010836Y037473D01*
X010836Y037363D01*
X010891Y037308D01*
X011111Y037308D01*
X011166Y037676D02*
X010836Y037676D01*
X010836Y037896D01*
X011001Y037786D02*
X011001Y037676D01*
X011546Y037005D02*
X011546Y036840D01*
X011601Y036785D01*
X011711Y036785D01*
X011766Y036840D01*
X011766Y037005D01*
X011821Y037005D02*
X011546Y037005D01*
X011821Y037005D02*
X011876Y036950D01*
X011876Y036895D01*
X011766Y036649D02*
X011766Y036539D01*
X011766Y036594D02*
X011546Y036594D01*
X011546Y036539D01*
X011436Y036594D02*
X011381Y036594D01*
X011166Y036626D02*
X011111Y036571D01*
X011001Y036571D01*
X011001Y036736D01*
X011056Y036791D01*
X011111Y036791D01*
X011166Y036736D01*
X011166Y036626D01*
X011001Y036571D02*
X010891Y036681D01*
X010836Y036791D01*
X011436Y036336D02*
X011436Y036171D01*
X011766Y036171D01*
X011766Y036336D01*
X011711Y036391D01*
X011491Y036391D01*
X011436Y036336D01*
X017536Y036791D02*
X017591Y036681D01*
X017701Y036571D01*
X017701Y036736D01*
X017756Y036791D01*
X017811Y036791D01*
X017866Y036736D01*
X017866Y036626D01*
X017811Y036571D01*
X017701Y036571D01*
X018081Y036594D02*
X018136Y036594D01*
X018246Y036594D02*
X018466Y036594D01*
X018466Y036539D02*
X018466Y036649D01*
X018411Y036785D02*
X018466Y036840D01*
X018466Y037005D01*
X018521Y037005D02*
X018246Y037005D01*
X018246Y036840D01*
X018301Y036785D01*
X018411Y036785D01*
X018576Y036895D02*
X018576Y036950D01*
X018521Y037005D01*
X018466Y037153D02*
X018466Y037263D01*
X018466Y037208D02*
X018246Y037208D01*
X018246Y037153D01*
X018136Y037208D02*
X018081Y037208D01*
X017866Y037104D02*
X017811Y037160D01*
X017591Y037160D01*
X017536Y037104D01*
X017536Y036939D01*
X017866Y036939D01*
X017866Y037104D01*
X017811Y037308D02*
X017866Y037363D01*
X017866Y037473D01*
X017811Y037528D01*
X017591Y037528D01*
X017536Y037473D01*
X017536Y037363D01*
X017591Y037308D01*
X017811Y037308D01*
X017866Y037676D02*
X017536Y037676D01*
X017536Y037896D01*
X017701Y037786D02*
X017701Y037676D01*
X018191Y037454D02*
X018411Y037454D01*
X018466Y037509D01*
X018411Y037644D02*
X018356Y037699D01*
X018356Y037864D01*
X018301Y037864D02*
X018466Y037864D01*
X018466Y037699D01*
X018411Y037644D01*
X018246Y037699D02*
X018246Y037809D01*
X018301Y037864D01*
X018136Y038013D02*
X018136Y038068D01*
X018466Y038068D01*
X018466Y038013D02*
X018466Y038123D01*
X018246Y037509D02*
X018246Y037399D01*
X018246Y036594D02*
X018246Y036539D01*
X018191Y036391D02*
X018136Y036336D01*
X018136Y036171D01*
X018466Y036171D01*
X018466Y036336D01*
X018411Y036391D01*
X018191Y036391D01*
X018466Y031923D02*
X018466Y031813D01*
X018466Y031868D02*
X018136Y031868D01*
X018136Y031813D01*
X018301Y031664D02*
X018466Y031664D01*
X018466Y031499D01*
X018411Y031444D01*
X018356Y031499D01*
X018356Y031664D01*
X018301Y031664D02*
X018246Y031609D01*
X018246Y031499D01*
X018246Y031309D02*
X018246Y031199D01*
X018191Y031254D02*
X018411Y031254D01*
X018466Y031309D01*
X018466Y031063D02*
X018466Y030953D01*
X018466Y031008D02*
X018246Y031008D01*
X018246Y030953D01*
X018136Y031008D02*
X018081Y031008D01*
X017866Y030904D02*
X017811Y030960D01*
X017591Y030960D01*
X017536Y030904D01*
X017536Y030739D01*
X017866Y030739D01*
X017866Y030904D01*
X017811Y031108D02*
X017866Y031163D01*
X017866Y031273D01*
X017811Y031328D01*
X017591Y031328D01*
X017536Y031273D01*
X017536Y031163D01*
X017591Y031108D01*
X017811Y031108D01*
X017866Y031476D02*
X017536Y031476D01*
X017536Y031696D01*
X017701Y031586D02*
X017701Y031476D01*
X018246Y030805D02*
X018246Y030640D01*
X018301Y030585D01*
X018411Y030585D01*
X018466Y030640D01*
X018466Y030805D01*
X018521Y030805D02*
X018246Y030805D01*
X018521Y030805D02*
X018576Y030750D01*
X018576Y030695D01*
X018466Y030449D02*
X018466Y030339D01*
X018466Y030394D02*
X018246Y030394D01*
X018246Y030339D01*
X018136Y030394D02*
X018081Y030394D01*
X017866Y030426D02*
X017866Y030536D01*
X017811Y030591D01*
X017756Y030591D01*
X017701Y030536D01*
X017701Y030371D01*
X017811Y030371D01*
X017866Y030426D01*
X017701Y030371D02*
X017591Y030481D01*
X017536Y030591D01*
X018136Y030136D02*
X018136Y029971D01*
X018466Y029971D01*
X018466Y030136D01*
X018411Y030191D01*
X018191Y030191D01*
X018136Y030136D01*
X011876Y030695D02*
X011876Y030750D01*
X011821Y030805D01*
X011546Y030805D01*
X011546Y030640D01*
X011601Y030585D01*
X011711Y030585D01*
X011766Y030640D01*
X011766Y030805D01*
X011766Y030953D02*
X011766Y031063D01*
X011766Y031008D02*
X011546Y031008D01*
X011546Y030953D01*
X011436Y031008D02*
X011381Y031008D01*
X011166Y030904D02*
X011111Y030960D01*
X010891Y030960D01*
X010836Y030904D01*
X010836Y030739D01*
X011166Y030739D01*
X011166Y030904D01*
X011111Y031108D02*
X011166Y031163D01*
X011166Y031273D01*
X011111Y031328D01*
X010891Y031328D01*
X010836Y031273D01*
X010836Y031163D01*
X010891Y031108D01*
X011111Y031108D01*
X011166Y031476D02*
X010836Y031476D01*
X010836Y031696D01*
X011001Y031586D02*
X011001Y031476D01*
X011491Y031254D02*
X011711Y031254D01*
X011766Y031309D01*
X011711Y031444D02*
X011656Y031499D01*
X011656Y031664D01*
X011601Y031664D02*
X011766Y031664D01*
X011766Y031499D01*
X011711Y031444D01*
X011546Y031499D02*
X011546Y031609D01*
X011601Y031664D01*
X011436Y031813D02*
X011436Y031868D01*
X011766Y031868D01*
X011766Y031813D02*
X011766Y031923D01*
X011546Y031309D02*
X011546Y031199D01*
X011111Y030591D02*
X011056Y030591D01*
X011001Y030536D01*
X011001Y030371D01*
X011111Y030371D01*
X011166Y030426D01*
X011166Y030536D01*
X011111Y030591D01*
X010891Y030481D02*
X011001Y030371D01*
X010891Y030481D02*
X010836Y030591D01*
X011381Y030394D02*
X011436Y030394D01*
X011546Y030394D02*
X011766Y030394D01*
X011766Y030339D02*
X011766Y030449D01*
X011546Y030394D02*
X011546Y030339D01*
X011491Y030191D02*
X011436Y030136D01*
X011436Y029971D01*
X011766Y029971D01*
X011766Y030136D01*
X011711Y030191D01*
X011491Y030191D01*
X011766Y025723D02*
X011766Y025613D01*
X011766Y025668D02*
X011436Y025668D01*
X011436Y025613D01*
X011601Y025464D02*
X011766Y025464D01*
X011766Y025299D01*
X011711Y025244D01*
X011656Y025299D01*
X011656Y025464D01*
X011601Y025464D02*
X011546Y025409D01*
X011546Y025299D01*
X011546Y025109D02*
X011546Y024999D01*
X011491Y025054D02*
X011711Y025054D01*
X011766Y025109D01*
X011766Y024863D02*
X011766Y024753D01*
X011766Y024808D02*
X011546Y024808D01*
X011546Y024753D01*
X011436Y024808D02*
X011381Y024808D01*
X011166Y024704D02*
X011111Y024760D01*
X010891Y024760D01*
X010836Y024704D01*
X010836Y024539D01*
X011166Y024539D01*
X011166Y024704D01*
X011111Y024908D02*
X011166Y024963D01*
X011166Y025073D01*
X011111Y025128D01*
X010891Y025128D01*
X010836Y025073D01*
X010836Y024963D01*
X010891Y024908D01*
X011111Y024908D01*
X011166Y025276D02*
X010836Y025276D01*
X010836Y025496D01*
X011001Y025386D02*
X011001Y025276D01*
X011546Y024605D02*
X011546Y024440D01*
X011601Y024385D01*
X011711Y024385D01*
X011766Y024440D01*
X011766Y024605D01*
X011821Y024605D02*
X011546Y024605D01*
X011821Y024605D02*
X011876Y024550D01*
X011876Y024495D01*
X011766Y024249D02*
X011766Y024139D01*
X011766Y024194D02*
X011546Y024194D01*
X011546Y024139D01*
X011436Y024194D02*
X011381Y024194D01*
X011166Y024226D02*
X011166Y024336D01*
X011111Y024391D01*
X011056Y024391D01*
X011001Y024336D01*
X011001Y024171D01*
X011111Y024171D01*
X011166Y024226D01*
X011001Y024171D02*
X010891Y024281D01*
X010836Y024391D01*
X011436Y023936D02*
X011436Y023771D01*
X011766Y023771D01*
X011766Y023936D01*
X011711Y023991D01*
X011491Y023991D01*
X011436Y023936D01*
X017536Y024391D02*
X017591Y024281D01*
X017701Y024171D01*
X017701Y024336D01*
X017756Y024391D01*
X017811Y024391D01*
X017866Y024336D01*
X017866Y024226D01*
X017811Y024171D01*
X017701Y024171D01*
X018081Y024194D02*
X018136Y024194D01*
X018246Y024194D02*
X018466Y024194D01*
X018466Y024139D02*
X018466Y024249D01*
X018411Y024385D02*
X018466Y024440D01*
X018466Y024605D01*
X018521Y024605D02*
X018246Y024605D01*
X018246Y024440D01*
X018301Y024385D01*
X018411Y024385D01*
X018576Y024495D02*
X018576Y024550D01*
X018521Y024605D01*
X018466Y024753D02*
X018466Y024863D01*
X018466Y024808D02*
X018246Y024808D01*
X018246Y024753D01*
X018136Y024808D02*
X018081Y024808D01*
X017866Y024704D02*
X017811Y024760D01*
X017591Y024760D01*
X017536Y024704D01*
X017536Y024539D01*
X017866Y024539D01*
X017866Y024704D01*
X017811Y024908D02*
X017866Y024963D01*
X017866Y025073D01*
X017811Y025128D01*
X017591Y025128D01*
X017536Y025073D01*
X017536Y024963D01*
X017591Y024908D01*
X017811Y024908D01*
X017866Y025276D02*
X017536Y025276D01*
X017536Y025496D01*
X017701Y025386D02*
X017701Y025276D01*
X018191Y025054D02*
X018411Y025054D01*
X018466Y025109D01*
X018411Y025244D02*
X018356Y025299D01*
X018356Y025464D01*
X018301Y025464D02*
X018466Y025464D01*
X018466Y025299D01*
X018411Y025244D01*
X018246Y025299D02*
X018246Y025409D01*
X018301Y025464D01*
X018136Y025613D02*
X018136Y025668D01*
X018466Y025668D01*
X018466Y025613D02*
X018466Y025723D01*
X018246Y025109D02*
X018246Y024999D01*
X018246Y024194D02*
X018246Y024139D01*
X018191Y023991D02*
X018136Y023936D01*
X018136Y023771D01*
X018466Y023771D01*
X018466Y023936D01*
X018411Y023991D01*
X018191Y023991D01*
X018466Y019523D02*
X018466Y019413D01*
X018466Y019468D02*
X018136Y019468D01*
X018136Y019413D01*
X018301Y019264D02*
X018466Y019264D01*
X018466Y019099D01*
X018411Y019044D01*
X018356Y019099D01*
X018356Y019264D01*
X018301Y019264D02*
X018246Y019209D01*
X018246Y019099D01*
X018246Y018909D02*
X018246Y018799D01*
X018191Y018854D02*
X018411Y018854D01*
X018466Y018909D01*
X018466Y018663D02*
X018466Y018553D01*
X018466Y018608D02*
X018246Y018608D01*
X018246Y018553D01*
X018136Y018608D02*
X018081Y018608D01*
X017866Y018504D02*
X017811Y018560D01*
X017591Y018560D01*
X017536Y018504D01*
X017536Y018339D01*
X017866Y018339D01*
X017866Y018504D01*
X017811Y018708D02*
X017866Y018763D01*
X017866Y018873D01*
X017811Y018928D01*
X017591Y018928D01*
X017536Y018873D01*
X017536Y018763D01*
X017591Y018708D01*
X017811Y018708D01*
X017866Y019076D02*
X017536Y019076D01*
X017536Y019296D01*
X017701Y019186D02*
X017701Y019076D01*
X018246Y018405D02*
X018246Y018240D01*
X018301Y018185D01*
X018411Y018185D01*
X018466Y018240D01*
X018466Y018405D01*
X018521Y018405D02*
X018246Y018405D01*
X018521Y018405D02*
X018576Y018350D01*
X018576Y018295D01*
X018466Y018049D02*
X018466Y017939D01*
X018466Y017994D02*
X018246Y017994D01*
X018246Y017939D01*
X018136Y017994D02*
X018081Y017994D01*
X017866Y018026D02*
X017866Y018136D01*
X017811Y018191D01*
X017756Y018191D01*
X017701Y018136D01*
X017701Y017971D01*
X017811Y017971D01*
X017866Y018026D01*
X017701Y017971D02*
X017591Y018081D01*
X017536Y018191D01*
X018136Y017736D02*
X018136Y017571D01*
X018466Y017571D01*
X018466Y017736D01*
X018411Y017791D01*
X018191Y017791D01*
X018136Y017736D01*
X011876Y018295D02*
X011876Y018350D01*
X011821Y018405D01*
X011546Y018405D01*
X011546Y018240D01*
X011601Y018185D01*
X011711Y018185D01*
X011766Y018240D01*
X011766Y018405D01*
X011766Y018553D02*
X011766Y018663D01*
X011766Y018608D02*
X011546Y018608D01*
X011546Y018553D01*
X011436Y018608D02*
X011381Y018608D01*
X011166Y018504D02*
X011111Y018560D01*
X010891Y018560D01*
X010836Y018504D01*
X010836Y018339D01*
X011166Y018339D01*
X011166Y018504D01*
X011111Y018708D02*
X011166Y018763D01*
X011166Y018873D01*
X011111Y018928D01*
X010891Y018928D01*
X010836Y018873D01*
X010836Y018763D01*
X010891Y018708D01*
X011111Y018708D01*
X011166Y019076D02*
X010836Y019076D01*
X010836Y019296D01*
X011001Y019186D02*
X011001Y019076D01*
X011491Y018854D02*
X011711Y018854D01*
X011766Y018909D01*
X011711Y019044D02*
X011656Y019099D01*
X011656Y019264D01*
X011601Y019264D02*
X011766Y019264D01*
X011766Y019099D01*
X011711Y019044D01*
X011546Y019099D02*
X011546Y019209D01*
X011601Y019264D01*
X011436Y019413D02*
X011436Y019468D01*
X011766Y019468D01*
X011766Y019413D02*
X011766Y019523D01*
X011546Y018909D02*
X011546Y018799D01*
X011111Y018191D02*
X011056Y018191D01*
X011001Y018136D01*
X011001Y017971D01*
X011111Y017971D01*
X011166Y018026D01*
X011166Y018136D01*
X011111Y018191D01*
X010891Y018081D02*
X011001Y017971D01*
X010891Y018081D02*
X010836Y018191D01*
X011381Y017994D02*
X011436Y017994D01*
X011546Y017994D02*
X011766Y017994D01*
X011766Y017939D02*
X011766Y018049D01*
X011546Y017994D02*
X011546Y017939D01*
X011491Y017791D02*
X011436Y017736D01*
X011436Y017571D01*
X011766Y017571D01*
X011766Y017736D01*
X011711Y017791D01*
X011491Y017791D01*
D11*
X009401Y013636D02*
X008901Y013636D01*
X008901Y013036D02*
X009401Y013036D01*
X051151Y014836D02*
X051151Y008836D01*
X057643Y008836D01*
X057651Y014836D01*
X051151Y014836D01*
X051151Y015036D02*
X051151Y021036D01*
X057651Y021036D01*
X057643Y015036D01*
X051151Y015036D01*
X053706Y012730D02*
X053706Y011942D01*
X054257Y011942D01*
X054533Y012100D02*
X054769Y012336D01*
X054533Y012572D01*
X054533Y012100D01*
X054769Y012060D02*
X054769Y012336D01*
X054769Y012612D01*
X055045Y012730D02*
X055596Y012730D01*
X055596Y011942D01*
X055045Y011942D01*
X054257Y012730D02*
X053706Y012730D01*
X057851Y014836D02*
X057851Y008836D01*
X064343Y008836D01*
X064351Y014836D01*
X057851Y014836D01*
X057851Y015036D02*
X057851Y021036D01*
X064351Y021036D01*
X064343Y015036D01*
X057851Y015036D01*
X060206Y012730D02*
X060206Y011942D01*
X060757Y011942D01*
X061033Y012100D02*
X061269Y012336D01*
X061033Y012572D01*
X061033Y012100D01*
X061269Y012060D02*
X061269Y012336D01*
X061269Y012612D01*
X061545Y012730D02*
X062096Y012730D01*
X062096Y011942D01*
X061545Y011942D01*
X060757Y012730D02*
X060206Y012730D01*
X064551Y014836D02*
X064551Y008836D01*
X071043Y008836D01*
X071051Y014836D01*
X064551Y014836D01*
X064551Y015036D02*
X064551Y021036D01*
X071051Y021036D01*
X071043Y015036D01*
X064551Y015036D01*
X066706Y012730D02*
X066706Y011942D01*
X067257Y011942D01*
X067533Y012100D02*
X067533Y012572D01*
X067769Y012336D01*
X067533Y012100D01*
X067769Y012060D02*
X067769Y012336D01*
X067769Y012612D01*
X068045Y012730D02*
X068596Y012730D01*
X068596Y011942D01*
X068045Y011942D01*
X067257Y012730D02*
X066706Y012730D01*
X071251Y014836D02*
X071251Y008836D01*
X077743Y008836D01*
X077751Y014836D01*
X071251Y014836D01*
X071251Y015036D02*
X071251Y021036D01*
X077751Y021036D01*
X077743Y015036D01*
X071251Y015036D01*
X073706Y012730D02*
X073706Y011942D01*
X074257Y011942D01*
X074533Y012100D02*
X074769Y012336D01*
X074533Y012572D01*
X074533Y012100D01*
X074769Y012060D02*
X074769Y012336D01*
X074769Y012612D01*
X075045Y012730D02*
X075596Y012730D01*
X075596Y011942D01*
X075045Y011942D01*
X074257Y012730D02*
X073706Y012730D01*
X077951Y014836D02*
X077951Y008836D01*
X084443Y008836D01*
X084451Y014836D01*
X077951Y014836D01*
X077951Y015036D02*
X077951Y021036D01*
X084451Y021036D01*
X084443Y015036D01*
X077951Y015036D01*
X080206Y012730D02*
X080206Y011942D01*
X080757Y011942D01*
X081033Y012100D02*
X081033Y012572D01*
X081269Y012336D01*
X081033Y012100D01*
X081269Y012060D02*
X081269Y012336D01*
X081269Y012612D01*
X081545Y012730D02*
X082096Y012730D01*
X082096Y011942D01*
X081545Y011942D01*
X080757Y012730D02*
X080206Y012730D01*
X080206Y017942D02*
X080757Y017942D01*
X081033Y018100D02*
X081269Y018336D01*
X081033Y018572D01*
X081033Y018100D01*
X081269Y018060D02*
X081269Y018336D01*
X081269Y018612D01*
X081545Y018730D02*
X082096Y018730D01*
X082096Y017942D01*
X081545Y017942D01*
X080757Y018730D02*
X080206Y018730D01*
X080206Y017942D01*
X075596Y017942D02*
X075045Y017942D01*
X074769Y018060D02*
X074769Y018336D01*
X074533Y018100D01*
X074533Y018572D01*
X074769Y018336D01*
X074769Y018612D01*
X075045Y018730D02*
X075596Y018730D01*
X075596Y017942D01*
X074257Y017942D02*
X073706Y017942D01*
X073706Y018730D01*
X074257Y018730D01*
X071251Y021236D02*
X071251Y027236D01*
X077751Y027236D01*
X077743Y021236D01*
X071251Y021236D01*
X071043Y021236D02*
X071051Y027236D01*
X064551Y027236D01*
X064551Y021236D01*
X071043Y021236D01*
X068596Y018730D02*
X068045Y018730D01*
X067769Y018612D02*
X067769Y018336D01*
X067533Y018100D01*
X067533Y018572D01*
X067769Y018336D01*
X067769Y018060D01*
X068045Y017942D02*
X068596Y017942D01*
X068596Y018730D01*
X067257Y018730D02*
X066706Y018730D01*
X066706Y017942D01*
X067257Y017942D01*
X062096Y017942D02*
X061545Y017942D01*
X061269Y018060D02*
X061269Y018336D01*
X061033Y018100D01*
X061033Y018572D01*
X061269Y018336D01*
X061269Y018612D01*
X061545Y018730D02*
X062096Y018730D01*
X062096Y017942D01*
X060757Y017942D02*
X060206Y017942D01*
X060206Y018730D01*
X060757Y018730D01*
X057851Y021236D02*
X057851Y027236D01*
X064351Y027236D01*
X064343Y021236D01*
X057851Y021236D01*
X057643Y021236D02*
X057651Y027236D01*
X051151Y027236D01*
X051151Y021236D01*
X057643Y021236D01*
X055596Y018730D02*
X055596Y017942D01*
X055045Y017942D01*
X054769Y018060D02*
X054769Y018336D01*
X054533Y018100D01*
X054533Y018572D01*
X054769Y018336D01*
X054769Y018612D01*
X055045Y018730D02*
X055596Y018730D01*
X054257Y018730D02*
X053706Y018730D01*
X053706Y017942D01*
X054257Y017942D01*
X054257Y023942D02*
X053706Y023942D01*
X053706Y024730D01*
X054257Y024730D01*
X054533Y024572D02*
X054533Y024100D01*
X054769Y024336D01*
X054533Y024572D01*
X054769Y024612D02*
X054769Y024336D01*
X054769Y024060D01*
X055045Y023942D02*
X055596Y023942D01*
X055596Y024730D01*
X055045Y024730D01*
X057643Y027436D02*
X051151Y027436D01*
X051151Y033436D01*
X057651Y033436D01*
X057643Y027436D01*
X057851Y027436D02*
X057851Y033436D01*
X064351Y033436D01*
X064343Y027436D01*
X057851Y027436D01*
X055596Y029942D02*
X055045Y029942D01*
X054769Y030060D02*
X054769Y030336D01*
X054533Y030100D01*
X054533Y030572D01*
X054769Y030336D01*
X054769Y030612D01*
X055045Y030730D02*
X055596Y030730D01*
X055596Y029942D01*
X054257Y029942D02*
X053706Y029942D01*
X053706Y030730D01*
X054257Y030730D01*
X051151Y033636D02*
X051151Y039636D01*
X057651Y039636D01*
X057643Y033636D01*
X051151Y033636D01*
X053706Y036442D02*
X054257Y036442D01*
X054533Y036600D02*
X054769Y036836D01*
X054533Y037072D01*
X054533Y036600D01*
X054769Y036560D02*
X054769Y036836D01*
X054769Y037112D01*
X055045Y037230D02*
X055596Y037230D01*
X055596Y036442D01*
X055045Y036442D01*
X054257Y037230D02*
X053706Y037230D01*
X053706Y036442D01*
X057851Y033636D02*
X057851Y039636D01*
X064351Y039636D01*
X064343Y033636D01*
X057851Y033636D01*
X060206Y036442D02*
X060757Y036442D01*
X061033Y036600D02*
X061269Y036836D01*
X061033Y037072D01*
X061033Y036600D01*
X061269Y036560D02*
X061269Y036836D01*
X061269Y037112D01*
X061545Y037230D02*
X062096Y037230D01*
X062096Y036442D01*
X061545Y036442D01*
X060206Y036442D02*
X060206Y037230D01*
X060757Y037230D01*
X057851Y039836D02*
X057851Y045836D01*
X064351Y045836D01*
X064343Y039836D01*
X057851Y039836D01*
X057643Y039836D02*
X057651Y045836D01*
X051151Y045836D01*
X051151Y039836D01*
X057643Y039836D01*
X055596Y042942D02*
X055045Y042942D01*
X054769Y043060D02*
X054769Y043336D01*
X054533Y043100D01*
X054533Y043572D01*
X054769Y043336D01*
X054769Y043612D01*
X055045Y043730D02*
X055596Y043730D01*
X055596Y042942D01*
X054257Y042942D02*
X053706Y042942D01*
X053706Y043730D01*
X054257Y043730D01*
X060206Y043730D02*
X060206Y042942D01*
X060757Y042942D01*
X061033Y043100D02*
X061269Y043336D01*
X061033Y043572D01*
X061033Y043100D01*
X061269Y043060D02*
X061269Y043336D01*
X061269Y043612D01*
X061545Y043730D02*
X062096Y043730D01*
X062096Y042942D01*
X061545Y042942D01*
X060757Y043730D02*
X060206Y043730D01*
X064551Y045836D02*
X064551Y039836D01*
X071043Y039836D01*
X071051Y045836D01*
X064551Y045836D01*
X066706Y043730D02*
X066706Y042942D01*
X067257Y042942D01*
X067533Y043100D02*
X067769Y043336D01*
X067533Y043572D01*
X067533Y043100D01*
X067769Y043060D02*
X067769Y043336D01*
X067769Y043612D01*
X068045Y043730D02*
X068596Y043730D01*
X068596Y042942D01*
X068045Y042942D01*
X067257Y043730D02*
X066706Y043730D01*
X071251Y045836D02*
X071251Y039836D01*
X077743Y039836D01*
X077751Y045836D01*
X071251Y045836D01*
X073706Y043730D02*
X073706Y042942D01*
X074257Y042942D01*
X074533Y043100D02*
X074769Y043336D01*
X074533Y043572D01*
X074533Y043100D01*
X074769Y043060D02*
X074769Y043336D01*
X074769Y043612D01*
X075045Y043730D02*
X075596Y043730D01*
X075596Y042942D01*
X075045Y042942D01*
X074257Y043730D02*
X073706Y043730D01*
X077951Y045836D02*
X077951Y039836D01*
X084443Y039836D01*
X084451Y045836D01*
X077951Y045836D01*
X080206Y043730D02*
X080206Y042942D01*
X080757Y042942D01*
X081033Y043100D02*
X081269Y043336D01*
X081033Y043572D01*
X081033Y043100D01*
X081269Y043060D02*
X081269Y043336D01*
X081269Y043612D01*
X081545Y043730D02*
X082096Y043730D01*
X082096Y042942D01*
X081545Y042942D01*
X080757Y043730D02*
X080206Y043730D01*
X077951Y039636D02*
X077951Y033636D01*
X084443Y033636D01*
X084451Y039636D01*
X077951Y039636D01*
X077751Y039636D02*
X071251Y039636D01*
X071251Y033636D01*
X077743Y033636D01*
X077751Y039636D01*
X075596Y037230D02*
X075045Y037230D01*
X074769Y037112D02*
X074769Y036836D01*
X074533Y036600D01*
X074533Y037072D01*
X074769Y036836D01*
X074769Y036560D01*
X075045Y036442D02*
X075596Y036442D01*
X075596Y037230D01*
X074257Y037230D02*
X073706Y037230D01*
X073706Y036442D01*
X074257Y036442D01*
X071251Y033436D02*
X071251Y027436D01*
X077743Y027436D01*
X077751Y033436D01*
X071251Y033436D01*
X071051Y033436D02*
X064551Y033436D01*
X064551Y027436D01*
X071043Y027436D01*
X071051Y033436D01*
X071043Y033636D02*
X071051Y039636D01*
X064551Y039636D01*
X064551Y033636D01*
X071043Y033636D01*
X068596Y036442D02*
X068045Y036442D01*
X067769Y036560D02*
X067769Y036836D01*
X067533Y036600D01*
X067533Y037072D01*
X067769Y036836D01*
X067769Y037112D01*
X068045Y037230D02*
X068596Y037230D01*
X068596Y036442D01*
X067257Y036442D02*
X066706Y036442D01*
X066706Y037230D01*
X067257Y037230D01*
X067257Y030730D02*
X066706Y030730D01*
X066706Y029942D01*
X067257Y029942D01*
X067533Y030100D02*
X067769Y030336D01*
X067533Y030572D01*
X067533Y030100D01*
X067769Y030060D02*
X067769Y030336D01*
X067769Y030612D01*
X068045Y030730D02*
X068596Y030730D01*
X068596Y029942D01*
X068045Y029942D01*
X062096Y029942D02*
X061545Y029942D01*
X061269Y030060D02*
X061269Y030336D01*
X061033Y030100D01*
X061033Y030572D01*
X061269Y030336D01*
X061269Y030612D01*
X061545Y030730D02*
X062096Y030730D01*
X062096Y029942D01*
X060757Y029942D02*
X060206Y029942D01*
X060206Y030730D01*
X060757Y030730D01*
X060757Y024730D02*
X060206Y024730D01*
X060206Y023942D01*
X060757Y023942D01*
X061033Y024100D02*
X061269Y024336D01*
X061033Y024572D01*
X061033Y024100D01*
X061269Y024060D02*
X061269Y024336D01*
X061269Y024612D01*
X061545Y024730D02*
X062096Y024730D01*
X062096Y023942D01*
X061545Y023942D01*
X066706Y023942D02*
X067257Y023942D01*
X067533Y024100D02*
X067769Y024336D01*
X067533Y024572D01*
X067533Y024100D01*
X067769Y024060D02*
X067769Y024336D01*
X067769Y024612D01*
X068045Y024730D02*
X068596Y024730D01*
X068596Y023942D01*
X068045Y023942D01*
X067257Y024730D02*
X066706Y024730D01*
X066706Y023942D01*
X073706Y023942D02*
X074257Y023942D01*
X074533Y024100D02*
X074769Y024336D01*
X074533Y024572D01*
X074533Y024100D01*
X074769Y024060D02*
X074769Y024336D01*
X074769Y024612D01*
X075045Y024730D02*
X075596Y024730D01*
X075596Y023942D01*
X075045Y023942D01*
X074257Y024730D02*
X073706Y024730D01*
X073706Y023942D01*
X077951Y021236D02*
X077951Y027236D01*
X084451Y027236D01*
X084443Y021236D01*
X077951Y021236D01*
X080206Y023942D02*
X080757Y023942D01*
X081033Y024100D02*
X081269Y024336D01*
X081033Y024572D01*
X081033Y024100D01*
X081269Y024060D02*
X081269Y024336D01*
X081269Y024612D01*
X081545Y024730D02*
X082096Y024730D01*
X082096Y023942D01*
X081545Y023942D01*
X080757Y024730D02*
X080206Y024730D01*
X080206Y023942D01*
X077951Y027436D02*
X077951Y033436D01*
X084451Y033436D01*
X084443Y027436D01*
X077951Y027436D01*
X080206Y029942D02*
X080757Y029942D01*
X081033Y030100D02*
X081269Y030336D01*
X081033Y030572D01*
X081033Y030100D01*
X081269Y030060D02*
X081269Y030336D01*
X081269Y030612D01*
X081545Y030730D02*
X082096Y030730D01*
X082096Y029942D01*
X081545Y029942D01*
X080206Y029942D02*
X080206Y030730D01*
X080757Y030730D01*
X075596Y030730D02*
X075596Y029942D01*
X075045Y029942D01*
X074769Y030060D02*
X074769Y030336D01*
X074533Y030100D01*
X074533Y030572D01*
X074769Y030336D01*
X074769Y030612D01*
X075045Y030730D02*
X075596Y030730D01*
X074257Y030730D02*
X073706Y030730D01*
X073706Y029942D01*
X074257Y029942D01*
X080206Y036442D02*
X080757Y036442D01*
X081033Y036600D02*
X081269Y036836D01*
X081033Y037072D01*
X081033Y036600D01*
X081269Y036560D02*
X081269Y036836D01*
X081269Y037112D01*
X081545Y037230D02*
X082096Y037230D01*
X082096Y036442D01*
X081545Y036442D01*
X080206Y036442D02*
X080206Y037230D01*
X080757Y037230D01*
X041401Y047536D02*
X040901Y047536D01*
X040901Y048136D02*
X041401Y048136D01*
X014923Y047942D02*
X014096Y047942D01*
X014923Y047942D02*
X014923Y052155D01*
X011380Y052155D01*
X011380Y050068D01*
X011380Y048218D02*
X011380Y047942D01*
X012206Y047942D01*
X008451Y043586D02*
X008451Y043086D01*
X007851Y043086D02*
X007851Y043586D01*
X067301Y007536D02*
X069001Y007536D01*
X069351Y006736D02*
X069351Y005931D01*
X069001Y005136D02*
X067301Y005136D01*
X066951Y005943D02*
X066951Y006736D01*
X067451Y006336D02*
X067453Y006388D01*
X067459Y006440D01*
X067469Y006492D01*
X067482Y006542D01*
X067499Y006592D01*
X067520Y006640D01*
X067545Y006686D01*
X067573Y006730D01*
X067604Y006772D01*
X067638Y006812D01*
X067675Y006849D01*
X067715Y006883D01*
X067757Y006914D01*
X067801Y006942D01*
X067847Y006967D01*
X067895Y006988D01*
X067945Y007005D01*
X067995Y007018D01*
X068047Y007028D01*
X068099Y007034D01*
X068151Y007036D01*
X068203Y007034D01*
X068255Y007028D01*
X068307Y007018D01*
X068357Y007005D01*
X068407Y006988D01*
X068455Y006967D01*
X068501Y006942D01*
X068545Y006914D01*
X068587Y006883D01*
X068627Y006849D01*
X068664Y006812D01*
X068698Y006772D01*
X068729Y006730D01*
X068757Y006686D01*
X068782Y006640D01*
X068803Y006592D01*
X068820Y006542D01*
X068833Y006492D01*
X068843Y006440D01*
X068849Y006388D01*
X068851Y006336D01*
X068849Y006284D01*
X068843Y006232D01*
X068833Y006180D01*
X068820Y006130D01*
X068803Y006080D01*
X068782Y006032D01*
X068757Y005986D01*
X068729Y005942D01*
X068698Y005900D01*
X068664Y005860D01*
X068627Y005823D01*
X068587Y005789D01*
X068545Y005758D01*
X068501Y005730D01*
X068455Y005705D01*
X068407Y005684D01*
X068357Y005667D01*
X068307Y005654D01*
X068255Y005644D01*
X068203Y005638D01*
X068151Y005636D01*
X068099Y005638D01*
X068047Y005644D01*
X067995Y005654D01*
X067945Y005667D01*
X067895Y005684D01*
X067847Y005705D01*
X067801Y005730D01*
X067757Y005758D01*
X067715Y005789D01*
X067675Y005823D01*
X067638Y005860D01*
X067604Y005900D01*
X067573Y005942D01*
X067545Y005986D01*
X067520Y006032D01*
X067499Y006080D01*
X067482Y006130D01*
X067469Y006180D01*
X067459Y006232D01*
X067453Y006284D01*
X067451Y006336D01*
D12*
X067614Y004662D02*
X067047Y004662D01*
X067047Y003811D01*
X067614Y003811D01*
X067968Y003953D02*
X068109Y003811D01*
X068393Y003811D01*
X068535Y003953D01*
X068535Y004095D01*
X068393Y004236D01*
X068109Y004236D01*
X067968Y004378D01*
X067968Y004520D01*
X068109Y004662D01*
X068393Y004662D01*
X068535Y004520D01*
X068888Y004662D02*
X068888Y003811D01*
X069456Y003811D01*
X069172Y004236D02*
X068888Y004236D01*
X068888Y004662D02*
X069456Y004662D01*
X069809Y004662D02*
X070376Y004662D01*
X070093Y004662D02*
X070093Y003811D01*
X067330Y004236D02*
X067047Y004236D01*
X066693Y004236D02*
X066552Y004095D01*
X066126Y004095D01*
X066410Y004095D02*
X066693Y003811D01*
X066693Y004236D02*
X066693Y004520D01*
X066552Y004662D01*
X066126Y004662D01*
X066126Y003811D01*
D13*
X010596Y051191D02*
X010203Y051191D01*
X010203Y051289D01*
X010596Y051683D01*
X010596Y051781D01*
X009952Y051584D02*
X009755Y051781D01*
X009558Y051584D01*
X009558Y051191D01*
X009952Y051191D02*
X009952Y051584D01*
D14*
X054651Y041836D03*
X061151Y041836D03*
X067651Y041836D03*
X074651Y041836D03*
X081151Y041836D03*
X081151Y035336D03*
X074651Y035336D03*
X067651Y035336D03*
X061151Y035336D03*
X054651Y035336D03*
X054651Y028836D03*
X061151Y028836D03*
X067651Y028836D03*
X074651Y028836D03*
X081151Y028836D03*
X081151Y022836D03*
X074651Y022836D03*
X067651Y022836D03*
X061151Y022836D03*
X054651Y022836D03*
X054651Y016836D03*
X061151Y016836D03*
X067651Y016836D03*
X074651Y016836D03*
X081151Y016836D03*
X081151Y010836D03*
X074651Y010836D03*
X068151Y008336D03*
X067651Y010836D03*
X061151Y010836D03*
X054651Y010836D03*
D15*
X010201Y015836D02*
X010201Y020736D01*
X009851Y020736D01*
X009851Y021336D01*
X010201Y021336D01*
X010201Y022086D01*
X006101Y022086D01*
X006101Y021336D01*
X006451Y021336D01*
X006451Y020736D01*
X006101Y020736D01*
X006101Y015836D01*
X010201Y015836D01*
X007441Y020736D02*
X007443Y020789D01*
X007449Y020842D01*
X007459Y020894D01*
X007473Y020945D01*
X007490Y020995D01*
X007511Y021044D01*
X007536Y021091D01*
X007564Y021136D01*
X007596Y021179D01*
X007631Y021219D01*
X007668Y021256D01*
X007708Y021291D01*
X007751Y021323D01*
X007796Y021351D01*
X007843Y021376D01*
X007892Y021397D01*
X007942Y021414D01*
X007993Y021428D01*
X008045Y021438D01*
X008098Y021444D01*
X008151Y021446D01*
X008204Y021444D01*
X008257Y021438D01*
X008309Y021428D01*
X008360Y021414D01*
X008410Y021397D01*
X008459Y021376D01*
X008506Y021351D01*
X008551Y021323D01*
X008594Y021291D01*
X008634Y021256D01*
X008671Y021219D01*
X008706Y021179D01*
X008738Y021136D01*
X008766Y021091D01*
X008791Y021044D01*
X008812Y020995D01*
X008829Y020945D01*
X008843Y020894D01*
X008853Y020842D01*
X008859Y020789D01*
X008861Y020736D01*
X008859Y020683D01*
X008853Y020630D01*
X008843Y020578D01*
X008829Y020527D01*
X008812Y020477D01*
X008791Y020428D01*
X008766Y020381D01*
X008738Y020336D01*
X008706Y020293D01*
X008671Y020253D01*
X008634Y020216D01*
X008594Y020181D01*
X008551Y020149D01*
X008506Y020121D01*
X008459Y020096D01*
X008410Y020075D01*
X008360Y020058D01*
X008309Y020044D01*
X008257Y020034D01*
X008204Y020028D01*
X008151Y020026D01*
X008098Y020028D01*
X008045Y020034D01*
X007993Y020044D01*
X007942Y020058D01*
X007892Y020075D01*
X007843Y020096D01*
X007796Y020121D01*
X007751Y020149D01*
X007708Y020181D01*
X007668Y020216D01*
X007631Y020253D01*
X007596Y020293D01*
X007564Y020336D01*
X007536Y020381D01*
X007511Y020428D01*
X007490Y020477D01*
X007473Y020527D01*
X007459Y020578D01*
X007449Y020630D01*
X007443Y020683D01*
X007441Y020736D01*
X006101Y033586D02*
X006101Y034336D01*
X006451Y034336D01*
X006451Y034936D01*
X006101Y034936D01*
X006101Y039836D01*
X010201Y039836D01*
X010201Y034936D01*
X009851Y034936D01*
X009851Y034336D01*
X010201Y034336D01*
X010201Y033586D01*
X006101Y033586D01*
X007441Y034936D02*
X007443Y034989D01*
X007449Y035042D01*
X007459Y035094D01*
X007473Y035145D01*
X007490Y035195D01*
X007511Y035244D01*
X007536Y035291D01*
X007564Y035336D01*
X007596Y035379D01*
X007631Y035419D01*
X007668Y035456D01*
X007708Y035491D01*
X007751Y035523D01*
X007796Y035551D01*
X007843Y035576D01*
X007892Y035597D01*
X007942Y035614D01*
X007993Y035628D01*
X008045Y035638D01*
X008098Y035644D01*
X008151Y035646D01*
X008204Y035644D01*
X008257Y035638D01*
X008309Y035628D01*
X008360Y035614D01*
X008410Y035597D01*
X008459Y035576D01*
X008506Y035551D01*
X008551Y035523D01*
X008594Y035491D01*
X008634Y035456D01*
X008671Y035419D01*
X008706Y035379D01*
X008738Y035336D01*
X008766Y035291D01*
X008791Y035244D01*
X008812Y035195D01*
X008829Y035145D01*
X008843Y035094D01*
X008853Y035042D01*
X008859Y034989D01*
X008861Y034936D01*
X008859Y034883D01*
X008853Y034830D01*
X008843Y034778D01*
X008829Y034727D01*
X008812Y034677D01*
X008791Y034628D01*
X008766Y034581D01*
X008738Y034536D01*
X008706Y034493D01*
X008671Y034453D01*
X008634Y034416D01*
X008594Y034381D01*
X008551Y034349D01*
X008506Y034321D01*
X008459Y034296D01*
X008410Y034275D01*
X008360Y034258D01*
X008309Y034244D01*
X008257Y034234D01*
X008204Y034228D01*
X008151Y034226D01*
X008098Y034228D01*
X008045Y034234D01*
X007993Y034244D01*
X007942Y034258D01*
X007892Y034275D01*
X007843Y034296D01*
X007796Y034321D01*
X007751Y034349D01*
X007708Y034381D01*
X007668Y034416D01*
X007631Y034453D01*
X007596Y034493D01*
X007564Y034536D01*
X007536Y034581D01*
X007511Y034628D01*
X007490Y034677D01*
X007473Y034727D01*
X007459Y034778D01*
X007449Y034830D01*
X007443Y034883D01*
X007441Y034936D01*
X033151Y047786D02*
X038051Y047786D01*
X038051Y048136D01*
X038651Y048136D01*
X038651Y047786D01*
X039401Y047786D01*
X039401Y051886D01*
X038651Y051886D01*
X038651Y051536D01*
X038051Y051536D01*
X038051Y051886D01*
X033151Y051886D01*
X033151Y047786D01*
X037341Y049836D02*
X037343Y049889D01*
X037349Y049942D01*
X037359Y049994D01*
X037373Y050045D01*
X037390Y050095D01*
X037411Y050144D01*
X037436Y050191D01*
X037464Y050236D01*
X037496Y050279D01*
X037531Y050319D01*
X037568Y050356D01*
X037608Y050391D01*
X037651Y050423D01*
X037696Y050451D01*
X037743Y050476D01*
X037792Y050497D01*
X037842Y050514D01*
X037893Y050528D01*
X037945Y050538D01*
X037998Y050544D01*
X038051Y050546D01*
X038104Y050544D01*
X038157Y050538D01*
X038209Y050528D01*
X038260Y050514D01*
X038310Y050497D01*
X038359Y050476D01*
X038406Y050451D01*
X038451Y050423D01*
X038494Y050391D01*
X038534Y050356D01*
X038571Y050319D01*
X038606Y050279D01*
X038638Y050236D01*
X038666Y050191D01*
X038691Y050144D01*
X038712Y050095D01*
X038729Y050045D01*
X038743Y049994D01*
X038753Y049942D01*
X038759Y049889D01*
X038761Y049836D01*
X038759Y049783D01*
X038753Y049730D01*
X038743Y049678D01*
X038729Y049627D01*
X038712Y049577D01*
X038691Y049528D01*
X038666Y049481D01*
X038638Y049436D01*
X038606Y049393D01*
X038571Y049353D01*
X038534Y049316D01*
X038494Y049281D01*
X038451Y049249D01*
X038406Y049221D01*
X038359Y049196D01*
X038310Y049175D01*
X038260Y049158D01*
X038209Y049144D01*
X038157Y049134D01*
X038104Y049128D01*
X038051Y049126D01*
X037998Y049128D01*
X037945Y049134D01*
X037893Y049144D01*
X037842Y049158D01*
X037792Y049175D01*
X037743Y049196D01*
X037696Y049221D01*
X037651Y049249D01*
X037608Y049281D01*
X037568Y049316D01*
X037531Y049353D01*
X037496Y049393D01*
X037464Y049436D01*
X037436Y049481D01*
X037411Y049528D01*
X037390Y049577D01*
X037373Y049627D01*
X037359Y049678D01*
X037349Y049730D01*
X037343Y049783D01*
X037341Y049836D01*
D16*
X036651Y048036D02*
X036651Y051636D01*
X033401Y051636D01*
X033401Y048036D01*
X036651Y048036D01*
X009951Y039586D02*
X009951Y036336D01*
X006351Y036336D01*
X006351Y039586D01*
X009951Y039586D01*
X009951Y019336D02*
X006351Y019336D01*
X006351Y016086D01*
X009951Y016086D01*
X009951Y019336D01*
D17*
X008690Y019456D02*
X008690Y019631D01*
X008631Y019690D01*
X008573Y019631D01*
X008573Y019456D01*
X008456Y019456D02*
X008456Y019690D01*
X008514Y019690D01*
X008573Y019631D01*
X008330Y019631D02*
X008330Y019456D01*
X008214Y019456D02*
X008214Y019631D01*
X008272Y019690D01*
X008330Y019631D01*
X008214Y019631D02*
X008155Y019690D01*
X008097Y019690D01*
X008097Y019456D01*
X007971Y019456D02*
X007738Y019456D01*
X007971Y019690D01*
X007971Y019748D01*
X007913Y019806D01*
X007796Y019806D01*
X007738Y019748D01*
X007615Y019514D02*
X007557Y019514D01*
X007557Y019456D01*
X007615Y019456D01*
X007615Y019514D01*
X007615Y019456D02*
X007498Y019339D01*
X007373Y019514D02*
X007314Y019456D01*
X007198Y019456D01*
X007139Y019514D01*
X007139Y019631D02*
X007256Y019690D01*
X007314Y019690D01*
X007373Y019631D01*
X007373Y019514D01*
X007139Y019631D02*
X007139Y019806D01*
X007373Y019806D01*
X006897Y019806D02*
X006897Y019456D01*
X006780Y019456D02*
X007014Y019456D01*
X006780Y019690D02*
X006897Y019806D01*
X006655Y019690D02*
X006655Y019456D01*
X006655Y019631D02*
X006421Y019631D01*
X006421Y019690D02*
X006538Y019806D01*
X006655Y019690D01*
X006421Y019690D02*
X006421Y019456D01*
X008604Y035749D02*
X008721Y035866D01*
X008663Y035866D01*
X008663Y035924D01*
X008721Y035924D01*
X008721Y035866D01*
X008844Y035866D02*
X009077Y036100D01*
X009077Y036158D01*
X009019Y036216D01*
X008902Y036216D01*
X008844Y036158D01*
X008844Y035866D02*
X009077Y035866D01*
X009203Y035866D02*
X009203Y036100D01*
X009261Y036100D01*
X009320Y036041D01*
X009378Y036100D01*
X009436Y036041D01*
X009436Y035866D01*
X009320Y035866D02*
X009320Y036041D01*
X009562Y036100D02*
X009562Y035866D01*
X009679Y035866D02*
X009679Y036041D01*
X009737Y036100D01*
X009796Y036041D01*
X009796Y035866D01*
X009679Y036041D02*
X009620Y036100D01*
X009562Y036100D01*
X008479Y036041D02*
X008479Y035924D01*
X008420Y035866D01*
X008304Y035866D01*
X008245Y035924D01*
X008245Y036041D02*
X008362Y036100D01*
X008420Y036100D01*
X008479Y036041D01*
X008479Y036216D02*
X008245Y036216D01*
X008245Y036041D01*
X008120Y035866D02*
X007886Y035866D01*
X008003Y035866D02*
X008003Y036216D01*
X007886Y036100D01*
X007761Y036100D02*
X007761Y035866D01*
X007761Y036041D02*
X007527Y036041D01*
X007527Y036100D02*
X007527Y035866D01*
X007527Y036100D02*
X007644Y036216D01*
X007761Y036100D01*
X036771Y049329D02*
X036888Y049446D01*
X037121Y049446D01*
X037121Y049571D02*
X037121Y049805D01*
X037121Y049688D02*
X036771Y049688D01*
X036888Y049571D01*
X036946Y049446D02*
X036946Y049212D01*
X036888Y049212D02*
X036771Y049329D01*
X036888Y049212D02*
X037121Y049212D01*
X037063Y049930D02*
X037121Y049989D01*
X037121Y050105D01*
X037063Y050164D01*
X036946Y050164D01*
X036888Y050105D01*
X036888Y050047D01*
X036946Y049930D01*
X036771Y049930D01*
X036771Y050164D01*
X037063Y050348D02*
X037121Y050348D01*
X037121Y050406D01*
X037063Y050406D01*
X037063Y050348D01*
X037121Y050406D02*
X037238Y050289D01*
X037121Y050529D02*
X036888Y050762D01*
X036829Y050762D01*
X036771Y050704D01*
X036771Y050587D01*
X036829Y050529D01*
X037121Y050529D02*
X037121Y050762D01*
X037121Y050888D02*
X036888Y050888D01*
X036888Y050946D01*
X036946Y051005D01*
X036888Y051063D01*
X036946Y051121D01*
X037121Y051121D01*
X037121Y051005D02*
X036946Y051005D01*
X036888Y051247D02*
X036888Y051305D01*
X036946Y051364D01*
X036888Y051422D01*
X036946Y051480D01*
X037121Y051480D01*
X037121Y051364D02*
X036946Y051364D01*
X036888Y051247D02*
X037121Y051247D01*
D18*
X009151Y040011D03*
X008151Y040011D03*
X007151Y040011D03*
X007151Y015661D03*
X008151Y015661D03*
X009151Y015661D03*
D19*
X032976Y048836D03*
X032976Y049836D03*
X032976Y050836D03*
M02*
