G75*
G70*
%OFA0B0*%
%FSLAX24Y24*%
%IPPOS*%
%LPD*%
%AMOC8*
5,1,8,0,0,1.08239X$1,22.5*
%
%ADD10R,0.0630X0.0551*%
%ADD11R,0.0433X0.0394*%
%ADD12R,0.0472X0.0551*%
%ADD13R,0.0394X0.0709*%
%ADD14R,0.0709X0.0394*%
D10*
X015651Y009785D03*
X015651Y010887D03*
X022351Y010887D03*
X022351Y009785D03*
X029051Y009785D03*
X029051Y010887D03*
X035751Y010887D03*
X035751Y009785D03*
X042451Y009785D03*
X042451Y010887D03*
X042451Y015985D03*
X042451Y017087D03*
X035751Y017087D03*
X035751Y015985D03*
X029051Y015985D03*
X029051Y017087D03*
X022351Y017087D03*
X022351Y015985D03*
X015651Y015985D03*
X015651Y017087D03*
X015651Y022185D03*
X015651Y023287D03*
X022351Y023287D03*
X022351Y022185D03*
X029051Y022185D03*
X029051Y023287D03*
X035751Y023287D03*
X035751Y022185D03*
X042451Y022185D03*
X042451Y023287D03*
X042451Y028385D03*
X042451Y029487D03*
X035751Y029487D03*
X035751Y028385D03*
X029051Y028385D03*
X029051Y029487D03*
X022351Y029487D03*
X022351Y028385D03*
X015651Y028385D03*
X015651Y029487D03*
X015651Y034585D03*
X015651Y035687D03*
X022351Y035687D03*
X022351Y034585D03*
X029051Y034585D03*
X029051Y035687D03*
X035751Y035687D03*
X035751Y034585D03*
X042451Y034585D03*
X042451Y035687D03*
X042451Y040785D03*
X042451Y041887D03*
X035751Y041887D03*
X035751Y040785D03*
X029051Y040785D03*
X029051Y041887D03*
X022351Y041887D03*
X022351Y040785D03*
X015651Y040785D03*
X015651Y041887D03*
D11*
X054317Y041836D03*
X054986Y041836D03*
X060817Y041836D03*
X061486Y041836D03*
X067317Y041836D03*
X067986Y041836D03*
X074317Y041836D03*
X074986Y041836D03*
X080817Y041836D03*
X081486Y041836D03*
X081486Y035336D03*
X080817Y035336D03*
X074986Y035336D03*
X074317Y035336D03*
X067986Y035336D03*
X067317Y035336D03*
X061486Y035336D03*
X060817Y035336D03*
X054986Y035336D03*
X054317Y035336D03*
X054317Y028836D03*
X054986Y028836D03*
X060817Y028836D03*
X061486Y028836D03*
X067317Y028836D03*
X067986Y028836D03*
X074317Y028836D03*
X074986Y028836D03*
X080817Y028836D03*
X081486Y028836D03*
X081486Y022836D03*
X080817Y022836D03*
X074986Y022836D03*
X074317Y022836D03*
X067986Y022836D03*
X067317Y022836D03*
X061486Y022836D03*
X060817Y022836D03*
X054986Y022836D03*
X054317Y022836D03*
X054317Y016836D03*
X054986Y016836D03*
X060817Y016836D03*
X061486Y016836D03*
X067317Y016836D03*
X067986Y016836D03*
X074317Y016836D03*
X074986Y016836D03*
X080817Y016836D03*
X081486Y016836D03*
X081486Y010836D03*
X080817Y010836D03*
X074986Y010836D03*
X074317Y010836D03*
X068486Y008336D03*
X067817Y008336D03*
X067986Y010836D03*
X067317Y010836D03*
X061486Y010836D03*
X060817Y010836D03*
X054986Y010836D03*
X054317Y010836D03*
D12*
X054061Y012336D03*
X055242Y012336D03*
X060561Y012336D03*
X061742Y012336D03*
X067061Y012336D03*
X068242Y012336D03*
X074061Y012336D03*
X075242Y012336D03*
X080561Y012336D03*
X081742Y012336D03*
X081742Y018336D03*
X080561Y018336D03*
X075242Y018336D03*
X074061Y018336D03*
X068242Y018336D03*
X067061Y018336D03*
X061742Y018336D03*
X060561Y018336D03*
X055242Y018336D03*
X054061Y018336D03*
X054061Y024336D03*
X055242Y024336D03*
X060561Y024336D03*
X061742Y024336D03*
X067061Y024336D03*
X068242Y024336D03*
X074061Y024336D03*
X075242Y024336D03*
X080561Y024336D03*
X081742Y024336D03*
X081742Y030336D03*
X080561Y030336D03*
X075242Y030336D03*
X074061Y030336D03*
X068242Y030336D03*
X067061Y030336D03*
X061742Y030336D03*
X060561Y030336D03*
X055242Y030336D03*
X054061Y030336D03*
X054061Y036836D03*
X055242Y036836D03*
X060561Y036836D03*
X061742Y036836D03*
X067061Y036836D03*
X068242Y036836D03*
X074061Y036836D03*
X075242Y036836D03*
X080561Y036836D03*
X081742Y036836D03*
X081742Y043336D03*
X080561Y043336D03*
X075242Y043336D03*
X074061Y043336D03*
X068242Y043336D03*
X067061Y043336D03*
X061742Y043336D03*
X060561Y043336D03*
X055242Y043336D03*
X054061Y043336D03*
D13*
X041702Y047836D03*
X040600Y047836D03*
X009702Y013336D03*
X008600Y013336D03*
D14*
X008151Y042785D03*
X008151Y043887D03*
M02*
