%
M48
M72
T01C0.0200
T02C0.0400
T03C0.0440
T04C0.1180
T05C0.1200
T06C0.1300
%
T01
X21601Y10136
X24601Y13836
X12601Y20536
X18151Y21686
X18151Y26736
X18051Y27436
X14201Y31936
X14151Y35136
X11351Y35136
X11351Y39036
X11351Y40236
X13951Y40236
X21751Y43686
X25051Y45336
X22551Y46836
X31551Y45286
X34601Y41686
X35951Y39736
X45651Y41886
X53401Y44586
X55601Y41886
X62101Y41336
X68851Y37486
X66801Y35336
X60301Y35336
X68751Y29786
X66801Y28836
X62351Y24086
X60301Y22836
X68751Y17786
X66801Y16836
X62351Y12686
X64801Y12336
X66801Y10836
X68001Y9886
X80301Y10836
X80301Y16836
X80301Y22836
X73801Y22836
X80301Y28836
X80301Y35336
X74251Y41336
X80301Y41836
X55601Y28686
X45251Y27086
X42801Y27686
X38251Y28736
X34251Y31286
X35351Y33286
X38251Y32736
X45301Y33286
X38251Y25486
X38051Y24736
X38251Y22536
X35951Y21086
X34451Y23086
X38051Y19536
X45351Y22386
X53451Y14336
X44501Y8686
X41501Y13336
T02
X39951Y12836
X38951Y12836
X38951Y11836
X39951Y11836
X39881Y10836
X38881Y10836
X38951Y9836
X39951Y9836
X39881Y13836
X38881Y13836
X38951Y14836
X39951Y14836
X39951Y16036
X38951Y16036
X38881Y17036
X39881Y17036
X39951Y18036
X38951Y18036
X38951Y19036
X39951Y19036
X39881Y20036
X38881Y20036
X38951Y21036
X39951Y21036
X39951Y22236
X38951Y22236
X38881Y23236
X39881Y23236
X39951Y24236
X38951Y24236
X38951Y25236
X39951Y25236
X39881Y26236
X38881Y26236
X38951Y27236
X39951Y27236
X39951Y28436
X38951Y28436
X38881Y29436
X39881Y29436
X39951Y30436
X38951Y30436
X38951Y31436
X39951Y31436
X39881Y32436
X38881Y32436
X38951Y33436
X39951Y33436
X39951Y34636
X38951Y34636
X38881Y35636
X39881Y35636
X39951Y36636
X38951Y36636
X38951Y37636
X39951Y37636
X39881Y38636
X38881Y38636
X38951Y39636
X39951Y39636
X39951Y40836
X38951Y40836
X38881Y41836
X39881Y41836
X39951Y42836
X38951Y42836
X38951Y43836
X39951Y43836
X39881Y44836
X38881Y44836
X38951Y45836
X39951Y45836
X33251Y45836
X32251Y45836
X32181Y44836
X33181Y44836
X33251Y43836
X32251Y43836
X32251Y42836
X33251Y42836
X33181Y41836
X32181Y41836
X32251Y40836
X33251Y40836
X33251Y39636
X32251Y39636
X32181Y38636
X33181Y38636
X33251Y37636
X33251Y36636
X32251Y36636
X32251Y37636
X32181Y35636
X33181Y35636
X33251Y34636
X32251Y34636
X32251Y33436
X33251Y33436
X33181Y32436
X32181Y32436
X32251Y31436
X32251Y30436
X33251Y30436
X33251Y31436
X33181Y29436
X32181Y29436
X32251Y28436
X33251Y28436
X33251Y27236
X32251Y27236
X32181Y26236
X33181Y26236
X33251Y25236
X33251Y24236
X32251Y24236
X32251Y25236
X32181Y23236
X33181Y23236
X33251Y22236
X32251Y22236
X32251Y21036
X33251Y21036
X33181Y20036
X32181Y20036
X32251Y19036
X32251Y18036
X33251Y18036
X33251Y19036
X33181Y17036
X32181Y17036
X32251Y16036
X33251Y16036
X33251Y14836
X32251Y14836
X32181Y13836
X33181Y13836
X33251Y12836
X32251Y12836
X32251Y11836
X32181Y10836
X33181Y10836
X33251Y11836
X33251Y9836
X32251Y9836
X26551Y9836
X25551Y9836
X25481Y10836
X26481Y10836
X26551Y11836
X25551Y11836
X25551Y12836
X26551Y12836
X26481Y13836
X25481Y13836
X25551Y14836
X26551Y14836
X26551Y16036
X25551Y16036
X25481Y17036
X26481Y17036
X26551Y18036
X25551Y18036
X25551Y19036
X26551Y19036
X26481Y20036
X25481Y20036
X25551Y21036
X26551Y21036
X26551Y22236
X25551Y22236
X25481Y23236
X26481Y23236
X26551Y24236
X25551Y24236
X25551Y25236
X26551Y25236
X26481Y26236
X25481Y26236
X25551Y27236
X26551Y27236
X26551Y28436
X25551Y28436
X25481Y29436
X26481Y29436
X26551Y30436
X25551Y30436
X25551Y31436
X26551Y31436
X26481Y32436
X25481Y32436
X25551Y33436
X26551Y33436
X26551Y34636
X25551Y34636
X25481Y35636
X26481Y35636
X26551Y36636
X25551Y36636
X25551Y37636
X26551Y37636
X26481Y38636
X25481Y38636
X25551Y39636
X26551Y39636
X26551Y40836
X25551Y40836
X25481Y41836
X26481Y41836
X26551Y42836
X25551Y42836
X25551Y43836
X26551Y43836
X26481Y44836
X25481Y44836
X25551Y45836
X26551Y45836
X32151Y48836
X32151Y49836
X32151Y50836
X19851Y45836
X18851Y45836
X18781Y44836
X19781Y44836
X19851Y43836
X18851Y43836
X18851Y42836
X19851Y42836
X19781Y41836
X18781Y41836
X18851Y40836
X19851Y40836
X19851Y39636
X18851Y39636
X18781Y38636
X19781Y38636
X19851Y37636
X19851Y36636
X18851Y36636
X18851Y37636
X18781Y35636
X19781Y35636
X19851Y34636
X18851Y34636
X18851Y33436
X19851Y33436
X19781Y32436
X18781Y32436
X18851Y31436
X18851Y30436
X19851Y30436
X19851Y31436
X19781Y29436
X18781Y29436
X18851Y28436
X19851Y28436
X19851Y27236
X18851Y27236
X18781Y26236
X19781Y26236
X19851Y25236
X19851Y24236
X18851Y24236
X18851Y25236
X18781Y23236
X19781Y23236
X19851Y22236
X18851Y22236
X18851Y21036
X19851Y21036
X19781Y20036
X18781Y20036
X18851Y19036
X18851Y18036
X19851Y18036
X19851Y19036
X19781Y17036
X18781Y17036
X18851Y16036
X19851Y16036
X19851Y14836
X18851Y14836
X18781Y13836
X19781Y13836
X19851Y12836
X18851Y12836
X18851Y11836
X18781Y10836
X19781Y10836
X19851Y11836
X19851Y9836
X18851Y9836
X13151Y9836
X12151Y9836
X12081Y10836
X13081Y10836
X13151Y11836
X12151Y11836
X12151Y12836
X13151Y12836
X13081Y13836
X12081Y13836
X12151Y14836
X13151Y14836
X13151Y16036
X12151Y16036
X12081Y17036
X13081Y17036
X13151Y18036
X12151Y18036
X12151Y19036
X13151Y19036
X13081Y20036
X12081Y20036
X12151Y21036
X13151Y21036
X13151Y22236
X12151Y22236
X12081Y23236
X13081Y23236
X13151Y24236
X12151Y24236
X12151Y25236
X13151Y25236
X13081Y26236
X12081Y26236
X12151Y27236
X13151Y27236
X13151Y28436
X12151Y28436
X12081Y29436
X13081Y29436
X13151Y30436
X12151Y30436
X12151Y31436
X13151Y31436
X13081Y32436
X12081Y32436
X12151Y33436
X13151Y33436
X13151Y34636
X12151Y34636
X12081Y35636
X13081Y35636
X13151Y36636
X12151Y36636
X12151Y37636
X13151Y37636
X13081Y38636
X12081Y38636
X12151Y39636
X13151Y39636
X13151Y40836
X12151Y40836
X12081Y41836
X13081Y41836
X13151Y42836
X12151Y42836
X12151Y43836
X13151Y43836
X13081Y44836
X12081Y44836
X12151Y45836
X13151Y45836
X9151Y40836
X8151Y40836
X7151Y40836
X7151Y14836
X8151Y14836
X9151Y14836
X66871Y7226
X66871Y5446
X69431Y5446
X69431Y7226
T03
X43451Y9836
X43451Y10836
X43451Y11836
X43451Y12836
X43451Y13836
X43451Y14836
X43451Y16036
X43451Y17036
X43451Y18036
X43451Y19036
X43451Y20036
X43451Y21036
X43451Y22236
X43451Y23236
X43451Y24236
X43451Y25236
X43451Y26236
X43451Y27236
X43451Y28436
X43451Y29436
X43451Y30436
X43451Y31436
X43451Y32436
X43451Y33436
X43451Y34636
X43451Y35636
X43451Y36636
X43451Y37636
X43451Y38636
X43451Y39636
X43451Y40836
X43451Y41836
X43451Y42836
X43451Y43836
X43451Y44836
X43451Y45836
X36751Y45836
X36751Y44836
X36751Y43836
X36751Y42836
X36751Y41836
X36751Y40836
X36751Y39636
X36751Y38636
X36751Y37636
X36751Y36636
X36751Y35636
X36751Y34636
X36751Y33436
X36751Y32436
X36751Y31436
X36751Y30436
X36751Y29436
X36751Y28436
X36751Y27236
X36751Y26236
X36751Y25236
X36751Y24236
X36751Y23236
X36751Y22236
X36751Y21036
X36751Y20036
X36751Y19036
X36751Y18036
X36751Y17036
X36751Y16036
X36751Y14836
X36751Y13836
X36751Y12836
X36751Y11836
X36751Y10836
X36751Y9836
X30051Y9836
X30051Y10836
X30051Y11836
X30051Y12836
X30051Y13836
X30051Y14836
X30051Y16036
X30051Y17036
X30051Y18036
X30051Y19036
X30051Y20036
X30051Y21036
X30051Y22236
X30051Y23236
X30051Y24236
X30051Y25236
X30051Y26236
X30051Y27236
X30051Y28436
X30051Y29436
X30051Y30436
X30051Y31436
X30051Y32436
X30051Y33436
X30051Y34636
X30051Y35636
X30051Y36636
X30051Y37636
X30051Y38636
X30051Y39636
X30051Y40836
X30051Y41836
X30051Y42836
X30051Y43836
X30051Y44836
X30051Y45836
X23351Y45836
X23351Y44836
X23351Y43836
X23351Y42836
X23351Y41836
X23351Y40836
X23351Y39636
X23351Y38636
X23351Y37636
X23351Y36636
X23351Y35636
X23351Y34636
X23351Y33436
X23351Y32436
X23351Y31436
X23351Y30436
X23351Y29436
X23351Y28436
X23351Y27236
X23351Y26236
X23351Y25236
X23351Y24236
X23351Y23236
X23351Y22236
X23351Y21036
X23351Y20036
X23351Y19036
X23351Y18036
X23351Y17036
X23351Y16036
X23351Y14836
X23351Y13836
X23351Y12836
X23351Y11836
X23351Y10836
X23351Y9836
X16651Y9836
X16651Y10836
X16651Y11836
X16651Y12836
X16651Y13836
X16651Y14836
X16651Y16036
X16651Y17036
X16651Y18036
X16651Y19036
X16651Y20036
X16651Y21036
X16651Y22236
X16651Y23236
X16651Y24236
X16651Y25236
X16651Y26236
X16651Y27236
X16651Y28436
X16651Y29436
X16651Y30436
X16651Y31436
X16651Y32436
X16651Y33436
X16651Y34636
X16651Y35636
X16651Y36636
X16651Y37636
X16651Y38636
X16651Y39636
X16651Y40836
X16651Y41836
X16651Y42836
X16651Y43836
X16651Y44836
X16651Y45836
T04
X13151Y47942
X11301Y49123
X13151Y50305
T05
X7151Y5336
X3651Y10736
X3651Y15474
X3651Y20236
X3651Y24974
X3651Y30736
X3651Y35474
X3651Y40236
X3651Y44974
X7151Y50336
X21701Y38786
X35151Y38886
X27151Y50336
X46151Y50336
X46151Y27836
X34851Y20486
X21501Y20436
X27151Y5336
X46151Y5336
X87151Y5336
X87151Y50336
T06
X38051Y49836
X8151Y34936
X8151Y20736
M30
