G75*
G70*
%OFA0B0*%
%FSLAX24Y24*%
%IPPOS*%
%LPD*%
%AMOC8*
5,1,8,0,0,1.08239X$1,22.5*
%
%ADD10C,0.0070*%
%ADD11C,0.0080*%
%ADD12C,0.0050*%
D10*
X014825Y009781D02*
X014935Y009671D01*
X015045Y009781D01*
X015045Y010001D01*
X015045Y009781D01*
X014935Y009671D01*
X014825Y009781D01*
X014825Y010001D01*
X014825Y009781D01*
X015194Y009781D02*
X015194Y009726D01*
X015249Y009671D01*
X015359Y009671D01*
X015414Y009726D01*
X015359Y009671D01*
X015249Y009671D01*
X015194Y009726D01*
X015194Y009781D01*
X015249Y009836D01*
X015304Y009836D01*
X015249Y009836D01*
X015194Y009891D01*
X015194Y009946D01*
X015249Y010001D01*
X015359Y010001D01*
X015414Y009946D01*
X015359Y010001D01*
X015249Y010001D01*
X015194Y009946D01*
X015194Y009891D01*
X015249Y009836D01*
X015194Y009781D01*
X015543Y009726D02*
X015543Y009671D01*
X015598Y009671D01*
X015598Y009726D01*
X015543Y009726D01*
X015543Y009671D01*
X015598Y009671D01*
X015598Y009726D01*
X015543Y009726D01*
X015746Y009726D02*
X015801Y009671D01*
X015911Y009671D01*
X015966Y009726D01*
X015911Y009671D01*
X015801Y009671D01*
X015746Y009726D01*
X015746Y009781D01*
X015801Y009836D01*
X015856Y009836D01*
X015801Y009836D01*
X015746Y009891D01*
X015746Y009946D01*
X015801Y010001D01*
X015911Y010001D01*
X015966Y009946D01*
X015911Y010001D01*
X015801Y010001D01*
X015746Y009946D01*
X015746Y009891D01*
X015801Y009836D01*
X015746Y009781D01*
X015746Y009726D01*
X015801Y010671D02*
X015746Y010726D01*
X015746Y010836D01*
X015856Y010836D01*
X015746Y010836D01*
X015746Y010726D01*
X015801Y010671D01*
X015911Y010671D01*
X015966Y010726D01*
X015966Y010946D01*
X015911Y011001D01*
X015801Y011001D01*
X015746Y010946D01*
X015801Y011001D01*
X015911Y011001D01*
X015966Y010946D01*
X015966Y010726D01*
X015911Y010671D01*
X015801Y010671D01*
X015598Y010671D02*
X015598Y011001D01*
X015378Y010671D01*
X015378Y011001D01*
X015378Y010671D01*
X015598Y011001D01*
X015598Y010671D01*
X015230Y010671D02*
X015230Y011001D01*
X015064Y011001D01*
X015009Y010946D01*
X015009Y010726D01*
X015064Y010671D01*
X015230Y010671D01*
X015064Y010671D01*
X015009Y010726D01*
X015009Y010946D01*
X015064Y011001D01*
X015230Y011001D01*
X015230Y010671D01*
X015230Y011671D02*
X015230Y011891D01*
X015119Y012001D01*
X015009Y011891D01*
X015009Y011671D01*
X015009Y011891D01*
X015119Y012001D01*
X015230Y011891D01*
X015230Y011671D01*
X015378Y011726D02*
X015378Y011946D01*
X015433Y012001D01*
X015598Y012001D01*
X015598Y011671D01*
X015433Y011671D01*
X015378Y011726D01*
X015378Y011946D01*
X015433Y012001D01*
X015598Y012001D01*
X015598Y011671D01*
X015433Y011671D01*
X015378Y011726D01*
X015230Y011836D02*
X015009Y011836D01*
X015230Y011836D01*
X015746Y011781D02*
X015746Y011726D01*
X015801Y011671D01*
X015911Y011671D01*
X015966Y011726D01*
X015911Y011671D01*
X015801Y011671D01*
X015746Y011726D01*
X015746Y011781D01*
X015801Y011836D01*
X015911Y011836D01*
X015966Y011891D01*
X015966Y011946D01*
X015911Y012001D01*
X015801Y012001D01*
X015746Y011946D01*
X015801Y012001D01*
X015911Y012001D01*
X015966Y011946D01*
X015966Y011891D01*
X015911Y011836D01*
X015801Y011836D01*
X015746Y011781D01*
X015801Y012671D02*
X015911Y012671D01*
X015966Y012726D01*
X015911Y012671D01*
X015801Y012671D01*
X015746Y012726D01*
X015746Y012781D01*
X015801Y012836D01*
X015911Y012836D01*
X015966Y012891D01*
X015966Y012946D01*
X015911Y013001D01*
X015801Y013001D01*
X015746Y012946D01*
X015801Y013001D01*
X015911Y013001D01*
X015966Y012946D01*
X015966Y012891D01*
X015911Y012836D01*
X015801Y012836D01*
X015746Y012781D01*
X015746Y012726D01*
X015801Y012671D01*
X015598Y012726D02*
X015543Y012671D01*
X015433Y012671D01*
X015378Y012726D01*
X015433Y012671D01*
X015543Y012671D01*
X015598Y012726D01*
X015598Y012946D01*
X015543Y013001D01*
X015433Y013001D01*
X015378Y012946D01*
X015433Y013001D01*
X015543Y013001D01*
X015598Y012946D01*
X015598Y012726D01*
X015230Y012671D02*
X015230Y013001D01*
X015230Y012671D01*
X015009Y012671D01*
X015230Y012671D01*
X015242Y013671D02*
X015242Y014001D01*
X015242Y013671D01*
X014984Y013671D02*
X014764Y013671D01*
X014984Y013671D01*
X014874Y013671D02*
X014874Y014001D01*
X014984Y013891D01*
X014874Y014001D01*
X014874Y013671D01*
X015132Y014001D02*
X015352Y014001D01*
X015132Y014001D01*
X015501Y014001D02*
X015501Y013671D01*
X015721Y014001D01*
X015721Y013671D01*
X015721Y014001D01*
X015501Y013671D01*
X015501Y014001D01*
X015856Y014001D02*
X015966Y014001D01*
X015856Y014001D01*
X015911Y014001D02*
X015911Y013671D01*
X015911Y014001D01*
X015966Y013671D02*
X015856Y013671D01*
X015966Y013671D01*
X015966Y014671D02*
X015856Y014671D01*
X015966Y014671D01*
X015911Y014671D02*
X015911Y015001D01*
X015911Y014671D01*
X015721Y014671D02*
X015721Y015001D01*
X015501Y014671D01*
X015501Y015001D01*
X015501Y014671D01*
X015721Y015001D01*
X015721Y014671D01*
X015856Y015001D02*
X015966Y015001D01*
X015856Y015001D01*
X015352Y015001D02*
X015132Y015001D01*
X015352Y015001D01*
X015242Y015001D02*
X015242Y014671D01*
X015242Y015001D01*
X014984Y014946D02*
X014929Y015001D01*
X014819Y015001D01*
X014764Y014946D01*
X014984Y014726D01*
X014929Y014671D01*
X014819Y014671D01*
X014764Y014726D01*
X014764Y014946D01*
X014984Y014726D01*
X014984Y014946D01*
X014929Y015001D01*
X014819Y015001D01*
X014764Y014946D01*
X014764Y014726D01*
X014819Y014671D01*
X014929Y014671D01*
X014984Y014726D01*
X014984Y014946D01*
X014935Y015871D02*
X014825Y015981D01*
X014825Y016201D01*
X015045Y016201D02*
X015045Y015981D01*
X014935Y015871D01*
X015194Y015926D02*
X015249Y015871D01*
X015359Y015871D01*
X015414Y015926D01*
X015543Y015926D02*
X015543Y015871D01*
X015598Y015871D01*
X015598Y015926D01*
X015543Y015926D01*
X015746Y015926D02*
X015801Y015871D01*
X015911Y015871D01*
X015966Y015926D01*
X015856Y016036D02*
X015801Y016036D01*
X015746Y015981D01*
X015746Y015926D01*
X015801Y016036D02*
X015746Y016091D01*
X015746Y016146D01*
X015801Y016201D01*
X015911Y016201D01*
X015966Y016146D01*
X015414Y016146D02*
X015359Y016201D01*
X015249Y016201D01*
X015194Y016146D01*
X015194Y016091D01*
X015249Y016036D01*
X015194Y015981D01*
X015194Y015926D01*
X015249Y016036D02*
X015304Y016036D01*
X015378Y016871D02*
X015378Y017201D01*
X015230Y017201D02*
X015064Y017201D01*
X015009Y017146D01*
X015009Y016926D01*
X015064Y016871D01*
X015230Y016871D01*
X015230Y017201D01*
X015378Y016871D02*
X015598Y017201D01*
X015598Y016871D01*
X015746Y016926D02*
X015746Y017036D01*
X015856Y017036D01*
X015746Y016926D02*
X015801Y016871D01*
X015911Y016871D01*
X015966Y016926D01*
X015966Y017146D01*
X015911Y017201D01*
X015801Y017201D01*
X015746Y017146D01*
X015801Y017871D02*
X015911Y017871D01*
X015966Y017926D01*
X015911Y018036D02*
X015801Y018036D01*
X015746Y017981D01*
X015746Y017926D01*
X015801Y017871D01*
X015911Y018036D02*
X015966Y018091D01*
X015966Y018146D01*
X015911Y018201D01*
X015801Y018201D01*
X015746Y018146D01*
X015598Y018201D02*
X015433Y018201D01*
X015378Y018146D01*
X015378Y017926D01*
X015433Y017871D01*
X015598Y017871D01*
X015598Y018201D01*
X015230Y018091D02*
X015119Y018201D01*
X015009Y018091D01*
X015009Y017871D01*
X015009Y018036D02*
X015230Y018036D01*
X015230Y018091D02*
X015230Y017871D01*
X015230Y018871D02*
X015009Y018871D01*
X015230Y018871D02*
X015230Y019201D01*
X015378Y019146D02*
X015433Y019201D01*
X015543Y019201D01*
X015598Y019146D01*
X015598Y018926D01*
X015543Y018871D01*
X015433Y018871D01*
X015378Y018926D01*
X015746Y018926D02*
X015801Y018871D01*
X015911Y018871D01*
X015966Y018926D01*
X015911Y019036D02*
X015801Y019036D01*
X015746Y018981D01*
X015746Y018926D01*
X015911Y019036D02*
X015966Y019091D01*
X015966Y019146D01*
X015911Y019201D01*
X015801Y019201D01*
X015746Y019146D01*
X015721Y019871D02*
X015721Y020201D01*
X015501Y019871D01*
X015501Y020201D01*
X015352Y020201D02*
X015132Y020201D01*
X015242Y020201D02*
X015242Y019871D01*
X014984Y019871D02*
X014764Y019871D01*
X014874Y019871D02*
X014874Y020201D01*
X014984Y020091D01*
X014929Y020871D02*
X014984Y020926D01*
X014764Y021146D01*
X014764Y020926D01*
X014819Y020871D01*
X014929Y020871D01*
X014984Y020926D02*
X014984Y021146D01*
X014929Y021201D01*
X014819Y021201D01*
X014764Y021146D01*
X015132Y021201D02*
X015352Y021201D01*
X015242Y021201D02*
X015242Y020871D01*
X015501Y020871D02*
X015501Y021201D01*
X015721Y021201D02*
X015501Y020871D01*
X015721Y020871D02*
X015721Y021201D01*
X015856Y021201D02*
X015966Y021201D01*
X015911Y021201D02*
X015911Y020871D01*
X015966Y020871D02*
X015856Y020871D01*
X015856Y020201D02*
X015966Y020201D01*
X015911Y020201D02*
X015911Y019871D01*
X015966Y019871D02*
X015856Y019871D01*
X015911Y022071D02*
X015966Y022126D01*
X015911Y022071D02*
X015801Y022071D01*
X015746Y022126D01*
X015746Y022181D01*
X015801Y022236D01*
X015856Y022236D01*
X015801Y022236D02*
X015746Y022291D01*
X015746Y022346D01*
X015801Y022401D01*
X015911Y022401D01*
X015966Y022346D01*
X015598Y022126D02*
X015543Y022126D01*
X015543Y022071D01*
X015598Y022071D01*
X015598Y022126D01*
X015414Y022126D02*
X015359Y022071D01*
X015249Y022071D01*
X015194Y022126D01*
X015194Y022181D01*
X015249Y022236D01*
X015304Y022236D01*
X015249Y022236D02*
X015194Y022291D01*
X015194Y022346D01*
X015249Y022401D01*
X015359Y022401D01*
X015414Y022346D01*
X015045Y022401D02*
X015045Y022181D01*
X014935Y022071D01*
X014825Y022181D01*
X014825Y022401D01*
X015064Y023071D02*
X015009Y023126D01*
X015009Y023346D01*
X015064Y023401D01*
X015230Y023401D01*
X015230Y023071D01*
X015064Y023071D01*
X015378Y023071D02*
X015378Y023401D01*
X015598Y023401D02*
X015378Y023071D01*
X015598Y023071D02*
X015598Y023401D01*
X015746Y023346D02*
X015801Y023401D01*
X015911Y023401D01*
X015966Y023346D01*
X015966Y023126D01*
X015911Y023071D01*
X015801Y023071D01*
X015746Y023126D01*
X015746Y023236D01*
X015856Y023236D01*
X015801Y024071D02*
X015911Y024071D01*
X015966Y024126D01*
X015911Y024236D02*
X015801Y024236D01*
X015746Y024181D01*
X015746Y024126D01*
X015801Y024071D01*
X015911Y024236D02*
X015966Y024291D01*
X015966Y024346D01*
X015911Y024401D01*
X015801Y024401D01*
X015746Y024346D01*
X015598Y024401D02*
X015433Y024401D01*
X015378Y024346D01*
X015378Y024126D01*
X015433Y024071D01*
X015598Y024071D01*
X015598Y024401D01*
X015230Y024291D02*
X015230Y024071D01*
X015230Y024236D02*
X015009Y024236D01*
X015009Y024291D02*
X015009Y024071D01*
X015009Y024291D02*
X015119Y024401D01*
X015230Y024291D01*
X015230Y025071D02*
X015009Y025071D01*
X015230Y025071D02*
X015230Y025401D01*
X015378Y025346D02*
X015433Y025401D01*
X015543Y025401D01*
X015598Y025346D01*
X015598Y025126D01*
X015543Y025071D01*
X015433Y025071D01*
X015378Y025126D01*
X015746Y025126D02*
X015801Y025071D01*
X015911Y025071D01*
X015966Y025126D01*
X015911Y025236D02*
X015801Y025236D01*
X015746Y025181D01*
X015746Y025126D01*
X015911Y025236D02*
X015966Y025291D01*
X015966Y025346D01*
X015911Y025401D01*
X015801Y025401D01*
X015746Y025346D01*
X015721Y026071D02*
X015721Y026401D01*
X015501Y026071D01*
X015501Y026401D01*
X015352Y026401D02*
X015132Y026401D01*
X015242Y026401D02*
X015242Y026071D01*
X014984Y026071D02*
X014764Y026071D01*
X014874Y026071D02*
X014874Y026401D01*
X014984Y026291D01*
X015856Y026401D02*
X015966Y026401D01*
X015911Y026401D02*
X015911Y026071D01*
X015966Y026071D02*
X015856Y026071D01*
X015856Y027071D02*
X015966Y027071D01*
X015911Y027071D02*
X015911Y027401D01*
X015966Y027401D02*
X015856Y027401D01*
X015721Y027401D02*
X015501Y027071D01*
X015501Y027401D01*
X015352Y027401D02*
X015132Y027401D01*
X015242Y027401D02*
X015242Y027071D01*
X014984Y027126D02*
X014764Y027346D01*
X014764Y027126D01*
X014819Y027071D01*
X014929Y027071D01*
X014984Y027126D01*
X014984Y027346D01*
X014929Y027401D01*
X014819Y027401D01*
X014764Y027346D01*
X015721Y027401D02*
X015721Y027071D01*
X015801Y028271D02*
X015911Y028271D01*
X015966Y028326D01*
X015856Y028436D02*
X015801Y028436D01*
X015746Y028381D01*
X015746Y028326D01*
X015801Y028271D01*
X015801Y028436D02*
X015746Y028491D01*
X015746Y028546D01*
X015801Y028601D01*
X015911Y028601D01*
X015966Y028546D01*
X015598Y028326D02*
X015543Y028326D01*
X015543Y028271D01*
X015598Y028271D01*
X015598Y028326D01*
X015414Y028326D02*
X015359Y028271D01*
X015249Y028271D01*
X015194Y028326D01*
X015194Y028381D01*
X015249Y028436D01*
X015304Y028436D01*
X015249Y028436D02*
X015194Y028491D01*
X015194Y028546D01*
X015249Y028601D01*
X015359Y028601D01*
X015414Y028546D01*
X015045Y028601D02*
X015045Y028381D01*
X014935Y028271D01*
X014825Y028381D01*
X014825Y028601D01*
X015064Y029271D02*
X015009Y029326D01*
X015009Y029546D01*
X015064Y029601D01*
X015230Y029601D01*
X015230Y029271D01*
X015064Y029271D01*
X015378Y029271D02*
X015378Y029601D01*
X015598Y029601D02*
X015378Y029271D01*
X015598Y029271D02*
X015598Y029601D01*
X015746Y029546D02*
X015801Y029601D01*
X015911Y029601D01*
X015966Y029546D01*
X015966Y029326D01*
X015911Y029271D01*
X015801Y029271D01*
X015746Y029326D01*
X015746Y029436D01*
X015856Y029436D01*
X015801Y030271D02*
X015911Y030271D01*
X015966Y030326D01*
X015911Y030436D02*
X015801Y030436D01*
X015746Y030381D01*
X015746Y030326D01*
X015801Y030271D01*
X015911Y030436D02*
X015966Y030491D01*
X015966Y030546D01*
X015911Y030601D01*
X015801Y030601D01*
X015746Y030546D01*
X015598Y030601D02*
X015433Y030601D01*
X015378Y030546D01*
X015378Y030326D01*
X015433Y030271D01*
X015598Y030271D01*
X015598Y030601D01*
X015230Y030491D02*
X015119Y030601D01*
X015009Y030491D01*
X015009Y030271D01*
X015009Y030436D02*
X015230Y030436D01*
X015230Y030491D02*
X015230Y030271D01*
X015230Y031271D02*
X015009Y031271D01*
X015230Y031271D02*
X015230Y031601D01*
X015378Y031546D02*
X015433Y031601D01*
X015543Y031601D01*
X015598Y031546D01*
X015598Y031326D01*
X015543Y031271D01*
X015433Y031271D01*
X015378Y031326D01*
X015746Y031326D02*
X015801Y031271D01*
X015911Y031271D01*
X015966Y031326D01*
X015911Y031436D02*
X015801Y031436D01*
X015746Y031381D01*
X015746Y031326D01*
X015911Y031436D02*
X015966Y031491D01*
X015966Y031546D01*
X015911Y031601D01*
X015801Y031601D01*
X015746Y031546D01*
X015721Y032271D02*
X015721Y032601D01*
X015501Y032271D01*
X015501Y032601D01*
X015352Y032601D02*
X015132Y032601D01*
X015242Y032601D02*
X015242Y032271D01*
X014984Y032271D02*
X014764Y032271D01*
X014874Y032271D02*
X014874Y032601D01*
X014984Y032491D01*
X014929Y033271D02*
X014984Y033326D01*
X014764Y033546D01*
X014764Y033326D01*
X014819Y033271D01*
X014929Y033271D01*
X014984Y033326D02*
X014984Y033546D01*
X014929Y033601D01*
X014819Y033601D01*
X014764Y033546D01*
X015132Y033601D02*
X015352Y033601D01*
X015242Y033601D02*
X015242Y033271D01*
X015501Y033271D02*
X015501Y033601D01*
X015721Y033601D02*
X015501Y033271D01*
X015721Y033271D02*
X015721Y033601D01*
X015856Y033601D02*
X015966Y033601D01*
X015911Y033601D02*
X015911Y033271D01*
X015966Y033271D02*
X015856Y033271D01*
X015856Y032601D02*
X015966Y032601D01*
X015911Y032601D02*
X015911Y032271D01*
X015966Y032271D02*
X015856Y032271D01*
X015911Y034471D02*
X015966Y034526D01*
X015911Y034471D02*
X015801Y034471D01*
X015746Y034526D01*
X015746Y034581D01*
X015801Y034636D01*
X015856Y034636D01*
X015801Y034636D02*
X015746Y034691D01*
X015746Y034746D01*
X015801Y034801D01*
X015911Y034801D01*
X015966Y034746D01*
X015598Y034526D02*
X015543Y034526D01*
X015543Y034471D01*
X015598Y034471D01*
X015598Y034526D01*
X015414Y034526D02*
X015359Y034471D01*
X015249Y034471D01*
X015194Y034526D01*
X015194Y034581D01*
X015249Y034636D01*
X015304Y034636D01*
X015249Y034636D02*
X015194Y034691D01*
X015194Y034746D01*
X015249Y034801D01*
X015359Y034801D01*
X015414Y034746D01*
X015045Y034801D02*
X015045Y034581D01*
X014935Y034471D01*
X014825Y034581D01*
X014825Y034801D01*
X015064Y035471D02*
X015009Y035526D01*
X015009Y035746D01*
X015064Y035801D01*
X015230Y035801D01*
X015230Y035471D01*
X015064Y035471D01*
X015378Y035471D02*
X015378Y035801D01*
X015598Y035801D02*
X015378Y035471D01*
X015598Y035471D02*
X015598Y035801D01*
X015746Y035746D02*
X015801Y035801D01*
X015911Y035801D01*
X015966Y035746D01*
X015966Y035526D01*
X015911Y035471D01*
X015801Y035471D01*
X015746Y035526D01*
X015746Y035636D01*
X015856Y035636D01*
X015801Y036471D02*
X015911Y036471D01*
X015966Y036526D01*
X015911Y036636D02*
X015801Y036636D01*
X015746Y036581D01*
X015746Y036526D01*
X015801Y036471D01*
X015911Y036636D02*
X015966Y036691D01*
X015966Y036746D01*
X015911Y036801D01*
X015801Y036801D01*
X015746Y036746D01*
X015598Y036801D02*
X015433Y036801D01*
X015378Y036746D01*
X015378Y036526D01*
X015433Y036471D01*
X015598Y036471D01*
X015598Y036801D01*
X015230Y036691D02*
X015230Y036471D01*
X015230Y036636D02*
X015009Y036636D01*
X015009Y036691D02*
X015009Y036471D01*
X015009Y036691D02*
X015119Y036801D01*
X015230Y036691D01*
X015230Y037471D02*
X015009Y037471D01*
X015230Y037471D02*
X015230Y037801D01*
X015378Y037746D02*
X015433Y037801D01*
X015543Y037801D01*
X015598Y037746D01*
X015598Y037526D01*
X015543Y037471D01*
X015433Y037471D01*
X015378Y037526D01*
X015746Y037526D02*
X015801Y037471D01*
X015911Y037471D01*
X015966Y037526D01*
X015911Y037636D02*
X015801Y037636D01*
X015746Y037581D01*
X015746Y037526D01*
X015911Y037636D02*
X015966Y037691D01*
X015966Y037746D01*
X015911Y037801D01*
X015801Y037801D01*
X015746Y037746D01*
X015721Y038471D02*
X015721Y038801D01*
X015501Y038471D01*
X015501Y038801D01*
X015352Y038801D02*
X015132Y038801D01*
X015242Y038801D02*
X015242Y038471D01*
X014984Y038471D02*
X014764Y038471D01*
X014874Y038471D02*
X014874Y038801D01*
X014984Y038691D01*
X015856Y038801D02*
X015966Y038801D01*
X015911Y038801D02*
X015911Y038471D01*
X015966Y038471D02*
X015856Y038471D01*
X015856Y039471D02*
X015966Y039471D01*
X015911Y039471D02*
X015911Y039801D01*
X015966Y039801D02*
X015856Y039801D01*
X015721Y039801D02*
X015501Y039471D01*
X015501Y039801D01*
X015352Y039801D02*
X015132Y039801D01*
X015242Y039801D02*
X015242Y039471D01*
X014984Y039526D02*
X014764Y039746D01*
X014764Y039526D01*
X014819Y039471D01*
X014929Y039471D01*
X014984Y039526D01*
X014984Y039746D01*
X014929Y039801D01*
X014819Y039801D01*
X014764Y039746D01*
X015721Y039801D02*
X015721Y039471D01*
X015801Y040671D02*
X015911Y040671D01*
X015966Y040726D01*
X015911Y040671D01*
X015801Y040671D01*
X015746Y040726D01*
X015746Y040781D01*
X015801Y040836D01*
X015856Y040836D01*
X015801Y040836D01*
X015746Y040891D01*
X015746Y040946D01*
X015801Y041001D01*
X015911Y041001D01*
X015966Y040946D01*
X015911Y041001D01*
X015801Y041001D01*
X015746Y040946D01*
X015746Y040891D01*
X015801Y040836D01*
X015746Y040781D01*
X015746Y040726D01*
X015801Y040671D01*
X015598Y040671D02*
X015543Y040671D01*
X015543Y040726D01*
X015598Y040726D01*
X015598Y040671D01*
X015543Y040671D01*
X015543Y040726D01*
X015598Y040726D01*
X015598Y040671D01*
X015414Y040726D02*
X015359Y040671D01*
X015249Y040671D01*
X015194Y040726D01*
X015194Y040781D01*
X015249Y040836D01*
X015304Y040836D01*
X015249Y040836D01*
X015194Y040891D01*
X015194Y040946D01*
X015249Y041001D01*
X015359Y041001D01*
X015414Y040946D01*
X015359Y041001D01*
X015249Y041001D01*
X015194Y040946D01*
X015194Y040891D01*
X015249Y040836D01*
X015194Y040781D01*
X015194Y040726D01*
X015249Y040671D01*
X015359Y040671D01*
X015414Y040726D01*
X015045Y040781D02*
X015045Y041001D01*
X015045Y040781D01*
X014935Y040671D01*
X014825Y040781D01*
X014825Y041001D01*
X014825Y040781D01*
X014935Y040671D01*
X015045Y040781D01*
X015064Y041671D02*
X015009Y041726D01*
X015009Y041946D01*
X015064Y042001D01*
X015230Y042001D01*
X015230Y041671D01*
X015064Y041671D01*
X015009Y041726D01*
X015009Y041946D01*
X015064Y042001D01*
X015230Y042001D01*
X015230Y041671D01*
X015064Y041671D01*
X015378Y041671D02*
X015378Y042001D01*
X015378Y041671D01*
X015598Y042001D01*
X015598Y041671D01*
X015598Y042001D01*
X015378Y041671D01*
X015746Y041726D02*
X015746Y041836D01*
X015856Y041836D01*
X015746Y041836D01*
X015746Y041726D01*
X015801Y041671D01*
X015911Y041671D01*
X015966Y041726D01*
X015966Y041946D01*
X015911Y042001D01*
X015801Y042001D01*
X015746Y041946D01*
X015801Y042001D01*
X015911Y042001D01*
X015966Y041946D01*
X015966Y041726D01*
X015911Y041671D01*
X015801Y041671D01*
X015746Y041726D01*
X015801Y042671D02*
X015911Y042671D01*
X015966Y042726D01*
X015911Y042671D01*
X015801Y042671D01*
X015746Y042726D01*
X015746Y042781D01*
X015801Y042836D01*
X015911Y042836D01*
X015966Y042891D01*
X015966Y042946D01*
X015911Y043001D01*
X015801Y043001D01*
X015746Y042946D01*
X015801Y043001D01*
X015911Y043001D01*
X015966Y042946D01*
X015966Y042891D01*
X015911Y042836D01*
X015801Y042836D01*
X015746Y042781D01*
X015746Y042726D01*
X015801Y042671D01*
X015598Y042671D02*
X015433Y042671D01*
X015378Y042726D01*
X015378Y042946D01*
X015433Y043001D01*
X015598Y043001D01*
X015598Y042671D01*
X015433Y042671D01*
X015378Y042726D01*
X015378Y042946D01*
X015433Y043001D01*
X015598Y043001D01*
X015598Y042671D01*
X015230Y042671D02*
X015230Y042891D01*
X015119Y043001D01*
X015009Y042891D01*
X015009Y042671D01*
X015009Y042891D01*
X015119Y043001D01*
X015230Y042891D01*
X015230Y042671D01*
X015230Y042836D02*
X015009Y042836D01*
X015230Y042836D01*
X015230Y043671D02*
X015009Y043671D01*
X015230Y043671D01*
X015230Y044001D01*
X015230Y043671D01*
X015378Y043726D02*
X015433Y043671D01*
X015543Y043671D01*
X015598Y043726D01*
X015598Y043946D01*
X015543Y044001D01*
X015433Y044001D01*
X015378Y043946D01*
X015433Y044001D01*
X015543Y044001D01*
X015598Y043946D01*
X015598Y043726D01*
X015543Y043671D01*
X015433Y043671D01*
X015378Y043726D01*
X015746Y043726D02*
X015801Y043671D01*
X015911Y043671D01*
X015966Y043726D01*
X015911Y043671D01*
X015801Y043671D01*
X015746Y043726D01*
X015746Y043781D01*
X015801Y043836D01*
X015911Y043836D01*
X015966Y043891D01*
X015966Y043946D01*
X015911Y044001D01*
X015801Y044001D01*
X015746Y043946D01*
X015801Y044001D01*
X015911Y044001D01*
X015966Y043946D01*
X015966Y043891D01*
X015911Y043836D01*
X015801Y043836D01*
X015746Y043781D01*
X015746Y043726D01*
X015721Y044671D02*
X015721Y045001D01*
X015501Y044671D01*
X015501Y045001D01*
X015501Y044671D01*
X015721Y045001D01*
X015721Y044671D01*
X015856Y044671D02*
X015966Y044671D01*
X015856Y044671D01*
X015911Y044671D02*
X015911Y045001D01*
X015911Y044671D01*
X015966Y045001D02*
X015856Y045001D01*
X015966Y045001D01*
X015352Y045001D02*
X015132Y045001D01*
X015352Y045001D01*
X015242Y045001D02*
X015242Y044671D01*
X015242Y045001D01*
X014984Y044891D02*
X014874Y045001D01*
X014874Y044671D01*
X014874Y045001D01*
X014984Y044891D01*
X014984Y044671D02*
X014764Y044671D01*
X014984Y044671D01*
X014929Y045671D02*
X014984Y045726D01*
X014764Y045946D01*
X014764Y045726D01*
X014819Y045671D01*
X014929Y045671D01*
X014984Y045726D01*
X014984Y045946D01*
X014929Y046001D01*
X014819Y046001D01*
X014764Y045946D01*
X014984Y045726D01*
X014984Y045946D01*
X014929Y046001D01*
X014819Y046001D01*
X014764Y045946D01*
X014764Y045726D01*
X014819Y045671D01*
X014929Y045671D01*
X015242Y045671D02*
X015242Y046001D01*
X015242Y045671D01*
X015501Y045671D02*
X015501Y046001D01*
X015501Y045671D01*
X015721Y046001D01*
X015721Y045671D01*
X015721Y046001D01*
X015501Y045671D01*
X015856Y045671D02*
X015966Y045671D01*
X015856Y045671D01*
X015911Y045671D02*
X015911Y046001D01*
X015911Y045671D01*
X015966Y046001D02*
X015856Y046001D01*
X015966Y046001D01*
X015352Y046001D02*
X015132Y046001D01*
X015352Y046001D01*
X021464Y045946D02*
X021464Y045726D01*
X021519Y045671D01*
X021629Y045671D01*
X021684Y045726D01*
X021464Y045946D01*
X021519Y046001D01*
X021629Y046001D01*
X021684Y045946D01*
X021684Y045726D01*
X021464Y045946D01*
X021464Y045726D01*
X021519Y045671D01*
X021629Y045671D01*
X021684Y045726D01*
X021684Y045946D01*
X021629Y046001D01*
X021519Y046001D01*
X021464Y045946D01*
X021832Y046001D02*
X022052Y046001D01*
X021832Y046001D01*
X021942Y046001D02*
X021942Y045671D01*
X021942Y046001D01*
X022201Y046001D02*
X022201Y045671D01*
X022421Y046001D01*
X022421Y045671D01*
X022421Y046001D01*
X022201Y045671D01*
X022201Y046001D01*
X022556Y046001D02*
X022666Y046001D01*
X022556Y046001D01*
X022611Y046001D02*
X022611Y045671D01*
X022611Y046001D01*
X022666Y045671D02*
X022556Y045671D01*
X022666Y045671D01*
X022666Y045001D02*
X022556Y045001D01*
X022666Y045001D01*
X022611Y045001D02*
X022611Y044671D01*
X022611Y045001D01*
X022421Y045001D02*
X022201Y044671D01*
X022201Y045001D01*
X022201Y044671D01*
X022421Y045001D01*
X022421Y044671D01*
X022421Y045001D01*
X022556Y044671D02*
X022666Y044671D01*
X022556Y044671D01*
X022052Y045001D02*
X021832Y045001D01*
X022052Y045001D01*
X021942Y045001D02*
X021942Y044671D01*
X021942Y045001D01*
X021684Y044891D02*
X021574Y045001D01*
X021574Y044671D01*
X021574Y045001D01*
X021684Y044891D01*
X021684Y044671D02*
X021464Y044671D01*
X021684Y044671D01*
X021930Y044001D02*
X021930Y043671D01*
X021709Y043671D01*
X021930Y043671D01*
X021930Y044001D01*
X022078Y043946D02*
X022133Y044001D01*
X022243Y044001D01*
X022298Y043946D01*
X022298Y043726D01*
X022243Y043671D01*
X022133Y043671D01*
X022078Y043726D01*
X022133Y043671D01*
X022243Y043671D01*
X022298Y043726D01*
X022298Y043946D01*
X022243Y044001D01*
X022133Y044001D01*
X022078Y043946D01*
X022446Y043946D02*
X022501Y044001D01*
X022611Y044001D01*
X022666Y043946D01*
X022666Y043891D01*
X022611Y043836D01*
X022501Y043836D01*
X022446Y043781D01*
X022446Y043726D01*
X022501Y043671D01*
X022611Y043671D01*
X022666Y043726D01*
X022611Y043671D01*
X022501Y043671D01*
X022446Y043726D01*
X022446Y043781D01*
X022501Y043836D01*
X022611Y043836D01*
X022666Y043891D01*
X022666Y043946D01*
X022611Y044001D01*
X022501Y044001D01*
X022446Y043946D01*
X022501Y043001D02*
X022446Y042946D01*
X022501Y043001D01*
X022611Y043001D01*
X022666Y042946D01*
X022666Y042891D01*
X022611Y042836D01*
X022501Y042836D01*
X022446Y042781D01*
X022446Y042726D01*
X022501Y042671D01*
X022611Y042671D01*
X022666Y042726D01*
X022611Y042671D01*
X022501Y042671D01*
X022446Y042726D01*
X022446Y042781D01*
X022501Y042836D01*
X022611Y042836D01*
X022666Y042891D01*
X022666Y042946D01*
X022611Y043001D01*
X022501Y043001D01*
X022298Y043001D02*
X022133Y043001D01*
X022078Y042946D01*
X022078Y042726D01*
X022133Y042671D01*
X022298Y042671D01*
X022298Y043001D01*
X022133Y043001D01*
X022078Y042946D01*
X022078Y042726D01*
X022133Y042671D01*
X022298Y042671D01*
X022298Y043001D01*
X021930Y042891D02*
X021819Y043001D01*
X021709Y042891D01*
X021709Y042671D01*
X021709Y042891D01*
X021819Y043001D01*
X021930Y042891D01*
X021930Y042671D01*
X021930Y042891D01*
X021930Y042836D02*
X021709Y042836D01*
X021930Y042836D01*
X021930Y042001D02*
X021764Y042001D01*
X021709Y041946D01*
X021709Y041726D01*
X021764Y041671D01*
X021930Y041671D01*
X021930Y042001D01*
X021764Y042001D01*
X021709Y041946D01*
X021709Y041726D01*
X021764Y041671D01*
X021930Y041671D01*
X021930Y042001D01*
X022078Y042001D02*
X022078Y041671D01*
X022298Y042001D01*
X022298Y041671D01*
X022298Y042001D01*
X022078Y041671D01*
X022078Y042001D01*
X022446Y041946D02*
X022501Y042001D01*
X022611Y042001D01*
X022666Y041946D01*
X022666Y041726D01*
X022611Y041671D01*
X022501Y041671D01*
X022446Y041726D01*
X022446Y041836D01*
X022556Y041836D01*
X022446Y041836D01*
X022446Y041726D01*
X022501Y041671D01*
X022611Y041671D01*
X022666Y041726D01*
X022666Y041946D01*
X022611Y042001D01*
X022501Y042001D01*
X022446Y041946D01*
X022501Y041001D02*
X022446Y040946D01*
X022446Y040891D01*
X022501Y040836D01*
X022446Y040781D01*
X022446Y040726D01*
X022501Y040671D01*
X022611Y040671D01*
X022666Y040726D01*
X022611Y040671D01*
X022501Y040671D01*
X022446Y040726D01*
X022446Y040781D01*
X022501Y040836D01*
X022556Y040836D01*
X022501Y040836D01*
X022446Y040891D01*
X022446Y040946D01*
X022501Y041001D01*
X022611Y041001D01*
X022666Y040946D01*
X022611Y041001D01*
X022501Y041001D01*
X022298Y040726D02*
X022243Y040726D01*
X022243Y040671D01*
X022298Y040671D01*
X022298Y040726D01*
X022243Y040726D01*
X022243Y040671D01*
X022298Y040671D01*
X022298Y040726D01*
X022114Y040726D02*
X022059Y040671D01*
X021949Y040671D01*
X021894Y040726D01*
X021894Y040781D01*
X021949Y040836D01*
X022004Y040836D01*
X021949Y040836D01*
X021894Y040891D01*
X021894Y040946D01*
X021949Y041001D01*
X022059Y041001D01*
X022114Y040946D01*
X022059Y041001D01*
X021949Y041001D01*
X021894Y040946D01*
X021894Y040891D01*
X021949Y040836D01*
X021894Y040781D01*
X021894Y040726D01*
X021949Y040671D01*
X022059Y040671D01*
X022114Y040726D01*
X021745Y040781D02*
X021635Y040671D01*
X021525Y040781D01*
X021525Y041001D01*
X021525Y040781D01*
X021635Y040671D01*
X021745Y040781D01*
X021745Y041001D01*
X021745Y040781D01*
X021832Y039801D02*
X022052Y039801D01*
X021942Y039801D02*
X021942Y039471D01*
X022201Y039471D02*
X022201Y039801D01*
X022421Y039801D02*
X022201Y039471D01*
X022421Y039471D02*
X022421Y039801D01*
X022556Y039801D02*
X022666Y039801D01*
X022611Y039801D02*
X022611Y039471D01*
X022666Y039471D02*
X022556Y039471D01*
X022556Y038801D02*
X022666Y038801D01*
X022611Y038801D02*
X022611Y038471D01*
X022666Y038471D02*
X022556Y038471D01*
X022421Y038471D02*
X022421Y038801D01*
X022201Y038471D01*
X022201Y038801D01*
X022052Y038801D02*
X021832Y038801D01*
X021942Y038801D02*
X021942Y038471D01*
X021684Y038471D02*
X021464Y038471D01*
X021574Y038471D02*
X021574Y038801D01*
X021684Y038691D01*
X021930Y037801D02*
X021930Y037471D01*
X021709Y037471D01*
X022078Y037526D02*
X022133Y037471D01*
X022243Y037471D01*
X022298Y037526D01*
X022298Y037746D01*
X022243Y037801D01*
X022133Y037801D01*
X022078Y037746D01*
X022446Y037746D02*
X022501Y037801D01*
X022611Y037801D01*
X022666Y037746D01*
X022666Y037691D01*
X022611Y037636D01*
X022501Y037636D01*
X022446Y037581D01*
X022446Y037526D01*
X022501Y037471D01*
X022611Y037471D01*
X022666Y037526D01*
X022611Y036801D02*
X022666Y036746D01*
X022666Y036691D01*
X022611Y036636D01*
X022501Y036636D01*
X022446Y036581D01*
X022446Y036526D01*
X022501Y036471D01*
X022611Y036471D01*
X022666Y036526D01*
X022611Y036801D02*
X022501Y036801D01*
X022446Y036746D01*
X022298Y036801D02*
X022133Y036801D01*
X022078Y036746D01*
X022078Y036526D01*
X022133Y036471D01*
X022298Y036471D01*
X022298Y036801D01*
X021930Y036691D02*
X021819Y036801D01*
X021709Y036691D01*
X021709Y036471D01*
X021709Y036636D02*
X021930Y036636D01*
X021930Y036691D02*
X021930Y036471D01*
X021930Y035801D02*
X021764Y035801D01*
X021709Y035746D01*
X021709Y035526D01*
X021764Y035471D01*
X021930Y035471D01*
X021930Y035801D01*
X022078Y035801D02*
X022078Y035471D01*
X022298Y035801D01*
X022298Y035471D01*
X022446Y035526D02*
X022446Y035636D01*
X022556Y035636D01*
X022446Y035526D02*
X022501Y035471D01*
X022611Y035471D01*
X022666Y035526D01*
X022666Y035746D01*
X022611Y035801D01*
X022501Y035801D01*
X022446Y035746D01*
X022501Y034801D02*
X022446Y034746D01*
X022446Y034691D01*
X022501Y034636D01*
X022446Y034581D01*
X022446Y034526D01*
X022501Y034471D01*
X022611Y034471D01*
X022666Y034526D01*
X022556Y034636D02*
X022501Y034636D01*
X022501Y034801D02*
X022611Y034801D01*
X022666Y034746D01*
X022298Y034526D02*
X022243Y034526D01*
X022243Y034471D01*
X022298Y034471D01*
X022298Y034526D01*
X022114Y034526D02*
X022059Y034471D01*
X021949Y034471D01*
X021894Y034526D01*
X021894Y034581D01*
X021949Y034636D01*
X022004Y034636D01*
X021949Y034636D02*
X021894Y034691D01*
X021894Y034746D01*
X021949Y034801D01*
X022059Y034801D01*
X022114Y034746D01*
X021745Y034801D02*
X021745Y034581D01*
X021635Y034471D01*
X021525Y034581D01*
X021525Y034801D01*
X021519Y033601D02*
X021464Y033546D01*
X021684Y033326D01*
X021629Y033271D01*
X021519Y033271D01*
X021464Y033326D01*
X021464Y033546D01*
X021519Y033601D02*
X021629Y033601D01*
X021684Y033546D01*
X021684Y033326D01*
X021942Y033271D02*
X021942Y033601D01*
X022052Y033601D02*
X021832Y033601D01*
X022201Y033601D02*
X022201Y033271D01*
X022421Y033601D01*
X022421Y033271D01*
X022556Y033271D02*
X022666Y033271D01*
X022611Y033271D02*
X022611Y033601D01*
X022666Y033601D02*
X022556Y033601D01*
X022556Y032601D02*
X022666Y032601D01*
X022611Y032601D02*
X022611Y032271D01*
X022666Y032271D02*
X022556Y032271D01*
X022421Y032271D02*
X022421Y032601D01*
X022201Y032271D01*
X022201Y032601D01*
X022052Y032601D02*
X021832Y032601D01*
X021942Y032601D02*
X021942Y032271D01*
X021684Y032271D02*
X021464Y032271D01*
X021574Y032271D02*
X021574Y032601D01*
X021684Y032491D01*
X021930Y031601D02*
X021930Y031271D01*
X021709Y031271D01*
X022078Y031326D02*
X022133Y031271D01*
X022243Y031271D01*
X022298Y031326D01*
X022298Y031546D01*
X022243Y031601D01*
X022133Y031601D01*
X022078Y031546D01*
X022446Y031546D02*
X022501Y031601D01*
X022611Y031601D01*
X022666Y031546D01*
X022666Y031491D01*
X022611Y031436D01*
X022501Y031436D01*
X022446Y031381D01*
X022446Y031326D01*
X022501Y031271D01*
X022611Y031271D01*
X022666Y031326D01*
X022611Y030601D02*
X022666Y030546D01*
X022666Y030491D01*
X022611Y030436D01*
X022501Y030436D01*
X022446Y030381D01*
X022446Y030326D01*
X022501Y030271D01*
X022611Y030271D01*
X022666Y030326D01*
X022611Y030601D02*
X022501Y030601D01*
X022446Y030546D01*
X022298Y030601D02*
X022133Y030601D01*
X022078Y030546D01*
X022078Y030326D01*
X022133Y030271D01*
X022298Y030271D01*
X022298Y030601D01*
X021930Y030491D02*
X021819Y030601D01*
X021709Y030491D01*
X021709Y030271D01*
X021709Y030436D02*
X021930Y030436D01*
X021930Y030491D02*
X021930Y030271D01*
X021930Y029601D02*
X021764Y029601D01*
X021709Y029546D01*
X021709Y029326D01*
X021764Y029271D01*
X021930Y029271D01*
X021930Y029601D01*
X022078Y029601D02*
X022078Y029271D01*
X022298Y029601D01*
X022298Y029271D01*
X022446Y029326D02*
X022446Y029436D01*
X022556Y029436D01*
X022446Y029326D02*
X022501Y029271D01*
X022611Y029271D01*
X022666Y029326D01*
X022666Y029546D01*
X022611Y029601D01*
X022501Y029601D01*
X022446Y029546D01*
X022501Y028601D02*
X022446Y028546D01*
X022446Y028491D01*
X022501Y028436D01*
X022446Y028381D01*
X022446Y028326D01*
X022501Y028271D01*
X022611Y028271D01*
X022666Y028326D01*
X022556Y028436D02*
X022501Y028436D01*
X022501Y028601D02*
X022611Y028601D01*
X022666Y028546D01*
X022298Y028326D02*
X022243Y028326D01*
X022243Y028271D01*
X022298Y028271D01*
X022298Y028326D01*
X022114Y028326D02*
X022059Y028271D01*
X021949Y028271D01*
X021894Y028326D01*
X021894Y028381D01*
X021949Y028436D01*
X022004Y028436D01*
X021949Y028436D02*
X021894Y028491D01*
X021894Y028546D01*
X021949Y028601D01*
X022059Y028601D01*
X022114Y028546D01*
X021745Y028601D02*
X021745Y028381D01*
X021635Y028271D01*
X021525Y028381D01*
X021525Y028601D01*
X021519Y027401D02*
X021464Y027346D01*
X021684Y027126D01*
X021629Y027071D01*
X021519Y027071D01*
X021464Y027126D01*
X021464Y027346D01*
X021519Y027401D02*
X021629Y027401D01*
X021684Y027346D01*
X021684Y027126D01*
X021942Y027071D02*
X021942Y027401D01*
X022052Y027401D02*
X021832Y027401D01*
X022201Y027401D02*
X022201Y027071D01*
X022421Y027401D01*
X022421Y027071D01*
X022556Y027071D02*
X022666Y027071D01*
X022611Y027071D02*
X022611Y027401D01*
X022666Y027401D02*
X022556Y027401D01*
X022556Y026401D02*
X022666Y026401D01*
X022611Y026401D02*
X022611Y026071D01*
X022666Y026071D02*
X022556Y026071D01*
X022421Y026071D02*
X022421Y026401D01*
X022201Y026071D01*
X022201Y026401D01*
X022052Y026401D02*
X021832Y026401D01*
X021942Y026401D02*
X021942Y026071D01*
X021684Y026071D02*
X021464Y026071D01*
X021574Y026071D02*
X021574Y026401D01*
X021684Y026291D01*
X021930Y025401D02*
X021930Y025071D01*
X021709Y025071D01*
X022078Y025126D02*
X022133Y025071D01*
X022243Y025071D01*
X022298Y025126D01*
X022298Y025346D01*
X022243Y025401D01*
X022133Y025401D01*
X022078Y025346D01*
X022446Y025346D02*
X022501Y025401D01*
X022611Y025401D01*
X022666Y025346D01*
X022666Y025291D01*
X022611Y025236D01*
X022501Y025236D01*
X022446Y025181D01*
X022446Y025126D01*
X022501Y025071D01*
X022611Y025071D01*
X022666Y025126D01*
X022611Y024401D02*
X022666Y024346D01*
X022666Y024291D01*
X022611Y024236D01*
X022501Y024236D01*
X022446Y024181D01*
X022446Y024126D01*
X022501Y024071D01*
X022611Y024071D01*
X022666Y024126D01*
X022611Y024401D02*
X022501Y024401D01*
X022446Y024346D01*
X022298Y024401D02*
X022133Y024401D01*
X022078Y024346D01*
X022078Y024126D01*
X022133Y024071D01*
X022298Y024071D01*
X022298Y024401D01*
X021930Y024291D02*
X021819Y024401D01*
X021709Y024291D01*
X021709Y024071D01*
X021709Y024236D02*
X021930Y024236D01*
X021930Y024291D02*
X021930Y024071D01*
X021930Y023401D02*
X021764Y023401D01*
X021709Y023346D01*
X021709Y023126D01*
X021764Y023071D01*
X021930Y023071D01*
X021930Y023401D01*
X022078Y023401D02*
X022078Y023071D01*
X022298Y023401D01*
X022298Y023071D01*
X022446Y023126D02*
X022446Y023236D01*
X022556Y023236D01*
X022446Y023126D02*
X022501Y023071D01*
X022611Y023071D01*
X022666Y023126D01*
X022666Y023346D01*
X022611Y023401D01*
X022501Y023401D01*
X022446Y023346D01*
X022501Y022401D02*
X022446Y022346D01*
X022446Y022291D01*
X022501Y022236D01*
X022446Y022181D01*
X022446Y022126D01*
X022501Y022071D01*
X022611Y022071D01*
X022666Y022126D01*
X022556Y022236D02*
X022501Y022236D01*
X022501Y022401D02*
X022611Y022401D01*
X022666Y022346D01*
X022298Y022126D02*
X022298Y022071D01*
X022243Y022071D01*
X022243Y022126D01*
X022298Y022126D01*
X022114Y022126D02*
X022059Y022071D01*
X021949Y022071D01*
X021894Y022126D01*
X021894Y022181D01*
X021949Y022236D01*
X022004Y022236D01*
X021949Y022236D02*
X021894Y022291D01*
X021894Y022346D01*
X021949Y022401D01*
X022059Y022401D01*
X022114Y022346D01*
X021745Y022401D02*
X021745Y022181D01*
X021635Y022071D01*
X021525Y022181D01*
X021525Y022401D01*
X021519Y021201D02*
X021464Y021146D01*
X021684Y020926D01*
X021629Y020871D01*
X021519Y020871D01*
X021464Y020926D01*
X021464Y021146D01*
X021519Y021201D02*
X021629Y021201D01*
X021684Y021146D01*
X021684Y020926D01*
X021942Y020871D02*
X021942Y021201D01*
X022052Y021201D02*
X021832Y021201D01*
X022201Y021201D02*
X022201Y020871D01*
X022421Y021201D01*
X022421Y020871D01*
X022556Y020871D02*
X022666Y020871D01*
X022611Y020871D02*
X022611Y021201D01*
X022666Y021201D02*
X022556Y021201D01*
X022556Y020201D02*
X022666Y020201D01*
X022611Y020201D02*
X022611Y019871D01*
X022666Y019871D02*
X022556Y019871D01*
X022421Y019871D02*
X022421Y020201D01*
X022201Y019871D01*
X022201Y020201D01*
X022052Y020201D02*
X021832Y020201D01*
X021942Y020201D02*
X021942Y019871D01*
X021684Y019871D02*
X021464Y019871D01*
X021574Y019871D02*
X021574Y020201D01*
X021684Y020091D01*
X021930Y019201D02*
X021930Y018871D01*
X021709Y018871D01*
X022078Y018926D02*
X022133Y018871D01*
X022243Y018871D01*
X022298Y018926D01*
X022298Y019146D01*
X022243Y019201D01*
X022133Y019201D01*
X022078Y019146D01*
X022446Y019146D02*
X022501Y019201D01*
X022611Y019201D01*
X022666Y019146D01*
X022666Y019091D01*
X022611Y019036D01*
X022501Y019036D01*
X022446Y018981D01*
X022446Y018926D01*
X022501Y018871D01*
X022611Y018871D01*
X022666Y018926D01*
X022611Y018201D02*
X022666Y018146D01*
X022666Y018091D01*
X022611Y018036D01*
X022501Y018036D01*
X022446Y017981D01*
X022446Y017926D01*
X022501Y017871D01*
X022611Y017871D01*
X022666Y017926D01*
X022611Y018201D02*
X022501Y018201D01*
X022446Y018146D01*
X022298Y018201D02*
X022133Y018201D01*
X022078Y018146D01*
X022078Y017926D01*
X022133Y017871D01*
X022298Y017871D01*
X022298Y018201D01*
X021930Y018091D02*
X021819Y018201D01*
X021709Y018091D01*
X021709Y017871D01*
X021709Y018036D02*
X021930Y018036D01*
X021930Y018091D02*
X021930Y017871D01*
X021930Y017201D02*
X021764Y017201D01*
X021709Y017146D01*
X021709Y016926D01*
X021764Y016871D01*
X021930Y016871D01*
X021930Y017201D01*
X022078Y017201D02*
X022078Y016871D01*
X022298Y017201D01*
X022298Y016871D01*
X022446Y016926D02*
X022446Y017036D01*
X022556Y017036D01*
X022446Y016926D02*
X022501Y016871D01*
X022611Y016871D01*
X022666Y016926D01*
X022666Y017146D01*
X022611Y017201D01*
X022501Y017201D01*
X022446Y017146D01*
X022501Y016201D02*
X022446Y016146D01*
X022446Y016091D01*
X022501Y016036D01*
X022446Y015981D01*
X022446Y015926D01*
X022501Y015871D01*
X022611Y015871D01*
X022666Y015926D01*
X022556Y016036D02*
X022501Y016036D01*
X022501Y016201D02*
X022611Y016201D01*
X022666Y016146D01*
X022298Y015926D02*
X022243Y015926D01*
X022243Y015871D01*
X022298Y015871D01*
X022298Y015926D01*
X022114Y015926D02*
X022059Y015871D01*
X021949Y015871D01*
X021894Y015926D01*
X021894Y015981D01*
X021949Y016036D01*
X022004Y016036D01*
X021949Y016036D02*
X021894Y016091D01*
X021894Y016146D01*
X021949Y016201D01*
X022059Y016201D01*
X022114Y016146D01*
X021745Y016201D02*
X021745Y015981D01*
X021635Y015871D01*
X021525Y015981D01*
X021525Y016201D01*
X021519Y015001D02*
X021464Y014946D01*
X021684Y014726D01*
X021629Y014671D01*
X021519Y014671D01*
X021464Y014726D01*
X021464Y014946D01*
X021684Y014726D01*
X021684Y014946D01*
X021629Y015001D01*
X021519Y015001D01*
X021464Y014946D01*
X021464Y014726D01*
X021519Y014671D01*
X021629Y014671D01*
X021684Y014726D01*
X021684Y014946D01*
X021629Y015001D01*
X021519Y015001D01*
X021832Y015001D02*
X022052Y015001D01*
X021832Y015001D01*
X021942Y015001D02*
X021942Y014671D01*
X021942Y015001D01*
X022201Y015001D02*
X022201Y014671D01*
X022421Y015001D01*
X022421Y014671D01*
X022421Y015001D01*
X022201Y014671D01*
X022201Y015001D01*
X022556Y015001D02*
X022666Y015001D01*
X022556Y015001D01*
X022611Y015001D02*
X022611Y014671D01*
X022611Y015001D01*
X022666Y014671D02*
X022556Y014671D01*
X022666Y014671D01*
X022666Y014001D02*
X022556Y014001D01*
X022666Y014001D01*
X022611Y014001D02*
X022611Y013671D01*
X022611Y014001D01*
X022421Y014001D02*
X022201Y013671D01*
X022201Y014001D01*
X022201Y013671D01*
X022421Y014001D01*
X022421Y013671D01*
X022421Y014001D01*
X022556Y013671D02*
X022666Y013671D01*
X022556Y013671D01*
X022052Y014001D02*
X021832Y014001D01*
X022052Y014001D01*
X021942Y014001D02*
X021942Y013671D01*
X021942Y014001D01*
X021684Y013891D02*
X021574Y014001D01*
X021574Y013671D01*
X021574Y014001D01*
X021684Y013891D01*
X021684Y013671D02*
X021464Y013671D01*
X021684Y013671D01*
X021930Y013001D02*
X021930Y012671D01*
X021709Y012671D01*
X021930Y012671D01*
X021930Y013001D01*
X022078Y012946D02*
X022133Y013001D01*
X022243Y013001D01*
X022298Y012946D01*
X022298Y012726D01*
X022243Y012671D01*
X022133Y012671D01*
X022078Y012726D01*
X022133Y012671D01*
X022243Y012671D01*
X022298Y012726D01*
X022298Y012946D01*
X022243Y013001D01*
X022133Y013001D01*
X022078Y012946D01*
X022446Y012946D02*
X022501Y013001D01*
X022611Y013001D01*
X022666Y012946D01*
X022666Y012891D01*
X022611Y012836D01*
X022501Y012836D01*
X022446Y012781D01*
X022446Y012726D01*
X022501Y012671D01*
X022611Y012671D01*
X022666Y012726D01*
X022611Y012671D01*
X022501Y012671D01*
X022446Y012726D01*
X022446Y012781D01*
X022501Y012836D01*
X022611Y012836D01*
X022666Y012891D01*
X022666Y012946D01*
X022611Y013001D01*
X022501Y013001D01*
X022446Y012946D01*
X022501Y012001D02*
X022446Y011946D01*
X022501Y012001D01*
X022611Y012001D01*
X022666Y011946D01*
X022666Y011891D01*
X022611Y011836D01*
X022501Y011836D01*
X022446Y011781D01*
X022446Y011726D01*
X022501Y011671D01*
X022611Y011671D01*
X022666Y011726D01*
X022611Y011671D01*
X022501Y011671D01*
X022446Y011726D01*
X022446Y011781D01*
X022501Y011836D01*
X022611Y011836D01*
X022666Y011891D01*
X022666Y011946D01*
X022611Y012001D01*
X022501Y012001D01*
X022298Y012001D02*
X022298Y011671D01*
X022133Y011671D01*
X022078Y011726D01*
X022078Y011946D01*
X022133Y012001D01*
X022298Y012001D01*
X022133Y012001D01*
X022078Y011946D01*
X022078Y011726D01*
X022133Y011671D01*
X022298Y011671D01*
X022298Y012001D01*
X021930Y011891D02*
X021819Y012001D01*
X021709Y011891D01*
X021709Y011671D01*
X021709Y011891D01*
X021819Y012001D01*
X021930Y011891D01*
X021930Y011671D01*
X021930Y011891D01*
X021930Y011836D02*
X021709Y011836D01*
X021930Y011836D01*
X021930Y011001D02*
X021764Y011001D01*
X021709Y010946D01*
X021709Y010726D01*
X021764Y010671D01*
X021930Y010671D01*
X021930Y011001D01*
X021764Y011001D01*
X021709Y010946D01*
X021709Y010726D01*
X021764Y010671D01*
X021930Y010671D01*
X021930Y011001D01*
X022078Y011001D02*
X022078Y010671D01*
X022298Y011001D01*
X022298Y010671D01*
X022298Y011001D01*
X022078Y010671D01*
X022078Y011001D01*
X022446Y010946D02*
X022501Y011001D01*
X022611Y011001D01*
X022666Y010946D01*
X022666Y010726D01*
X022611Y010671D01*
X022501Y010671D01*
X022446Y010726D01*
X022446Y010836D01*
X022556Y010836D01*
X022446Y010836D01*
X022446Y010726D01*
X022501Y010671D01*
X022611Y010671D01*
X022666Y010726D01*
X022666Y010946D01*
X022611Y011001D01*
X022501Y011001D01*
X022446Y010946D01*
X022501Y010001D02*
X022446Y009946D01*
X022446Y009891D01*
X022501Y009836D01*
X022446Y009781D01*
X022446Y009726D01*
X022501Y009671D01*
X022611Y009671D01*
X022666Y009726D01*
X022611Y009671D01*
X022501Y009671D01*
X022446Y009726D01*
X022446Y009781D01*
X022501Y009836D01*
X022556Y009836D01*
X022501Y009836D01*
X022446Y009891D01*
X022446Y009946D01*
X022501Y010001D01*
X022611Y010001D01*
X022666Y009946D01*
X022611Y010001D01*
X022501Y010001D01*
X022298Y009726D02*
X022298Y009671D01*
X022243Y009671D01*
X022243Y009726D01*
X022298Y009726D01*
X022243Y009726D01*
X022243Y009671D01*
X022298Y009671D01*
X022298Y009726D01*
X022114Y009726D02*
X022059Y009671D01*
X021949Y009671D01*
X021894Y009726D01*
X021894Y009781D01*
X021949Y009836D01*
X022004Y009836D01*
X021949Y009836D01*
X021894Y009891D01*
X021894Y009946D01*
X021949Y010001D01*
X022059Y010001D01*
X022114Y009946D01*
X022059Y010001D01*
X021949Y010001D01*
X021894Y009946D01*
X021894Y009891D01*
X021949Y009836D01*
X021894Y009781D01*
X021894Y009726D01*
X021949Y009671D01*
X022059Y009671D01*
X022114Y009726D01*
X021745Y009781D02*
X021635Y009671D01*
X021525Y009781D01*
X021525Y010001D01*
X021525Y009781D01*
X021635Y009671D01*
X021745Y009781D01*
X021745Y010001D01*
X021745Y009781D01*
X028225Y009781D02*
X028335Y009671D01*
X028445Y009781D01*
X028445Y010001D01*
X028445Y009781D01*
X028335Y009671D01*
X028225Y009781D01*
X028225Y010001D01*
X028225Y009781D01*
X028594Y009781D02*
X028594Y009726D01*
X028649Y009671D01*
X028759Y009671D01*
X028814Y009726D01*
X028759Y009671D01*
X028649Y009671D01*
X028594Y009726D01*
X028594Y009781D01*
X028649Y009836D01*
X028704Y009836D01*
X028649Y009836D01*
X028594Y009891D01*
X028594Y009946D01*
X028649Y010001D01*
X028759Y010001D01*
X028814Y009946D01*
X028759Y010001D01*
X028649Y010001D01*
X028594Y009946D01*
X028594Y009891D01*
X028649Y009836D01*
X028594Y009781D01*
X028943Y009726D02*
X028943Y009671D01*
X028998Y009671D01*
X028998Y009726D01*
X028943Y009726D01*
X028943Y009671D01*
X028998Y009671D01*
X028998Y009726D01*
X028943Y009726D01*
X029146Y009726D02*
X029201Y009671D01*
X029311Y009671D01*
X029366Y009726D01*
X029311Y009671D01*
X029201Y009671D01*
X029146Y009726D01*
X029146Y009781D01*
X029201Y009836D01*
X029256Y009836D01*
X029201Y009836D01*
X029146Y009891D01*
X029146Y009946D01*
X029201Y010001D01*
X029311Y010001D01*
X029366Y009946D01*
X029311Y010001D01*
X029201Y010001D01*
X029146Y009946D01*
X029146Y009891D01*
X029201Y009836D01*
X029146Y009781D01*
X029146Y009726D01*
X029201Y010671D02*
X029146Y010726D01*
X029146Y010836D01*
X029256Y010836D01*
X029146Y010836D01*
X029146Y010726D01*
X029201Y010671D01*
X029311Y010671D01*
X029366Y010726D01*
X029366Y010946D01*
X029311Y011001D01*
X029201Y011001D01*
X029146Y010946D01*
X029201Y011001D01*
X029311Y011001D01*
X029366Y010946D01*
X029366Y010726D01*
X029311Y010671D01*
X029201Y010671D01*
X028998Y010671D02*
X028998Y011001D01*
X028778Y010671D01*
X028778Y011001D01*
X028778Y010671D01*
X028998Y011001D01*
X028998Y010671D01*
X028630Y010671D02*
X028630Y011001D01*
X028464Y011001D01*
X028409Y010946D01*
X028409Y010726D01*
X028464Y010671D01*
X028630Y010671D01*
X028464Y010671D01*
X028409Y010726D01*
X028409Y010946D01*
X028464Y011001D01*
X028630Y011001D01*
X028630Y010671D01*
X028630Y011671D02*
X028630Y011891D01*
X028519Y012001D01*
X028409Y011891D01*
X028409Y011671D01*
X028409Y011891D01*
X028519Y012001D01*
X028630Y011891D01*
X028630Y011671D01*
X028778Y011726D02*
X028778Y011946D01*
X028833Y012001D01*
X028998Y012001D01*
X028998Y011671D01*
X028833Y011671D01*
X028778Y011726D01*
X028778Y011946D01*
X028833Y012001D01*
X028998Y012001D01*
X028998Y011671D01*
X028833Y011671D01*
X028778Y011726D01*
X028630Y011836D02*
X028409Y011836D01*
X028630Y011836D01*
X029146Y011781D02*
X029146Y011726D01*
X029201Y011671D01*
X029311Y011671D01*
X029366Y011726D01*
X029311Y011671D01*
X029201Y011671D01*
X029146Y011726D01*
X029146Y011781D01*
X029201Y011836D01*
X029311Y011836D01*
X029366Y011891D01*
X029366Y011946D01*
X029311Y012001D01*
X029201Y012001D01*
X029146Y011946D01*
X029201Y012001D01*
X029311Y012001D01*
X029366Y011946D01*
X029366Y011891D01*
X029311Y011836D01*
X029201Y011836D01*
X029146Y011781D01*
X029201Y012671D02*
X029311Y012671D01*
X029366Y012726D01*
X029311Y012671D01*
X029201Y012671D01*
X029146Y012726D01*
X029146Y012781D01*
X029201Y012836D01*
X029311Y012836D01*
X029366Y012891D01*
X029366Y012946D01*
X029311Y013001D01*
X029201Y013001D01*
X029146Y012946D01*
X029201Y013001D01*
X029311Y013001D01*
X029366Y012946D01*
X029366Y012891D01*
X029311Y012836D01*
X029201Y012836D01*
X029146Y012781D01*
X029146Y012726D01*
X029201Y012671D01*
X028998Y012726D02*
X028943Y012671D01*
X028833Y012671D01*
X028778Y012726D01*
X028833Y012671D01*
X028943Y012671D01*
X028998Y012726D01*
X028998Y012946D01*
X028943Y013001D01*
X028833Y013001D01*
X028778Y012946D01*
X028833Y013001D01*
X028943Y013001D01*
X028998Y012946D01*
X028998Y012726D01*
X028630Y012671D02*
X028630Y013001D01*
X028630Y012671D01*
X028409Y012671D01*
X028630Y012671D01*
X028642Y013671D02*
X028642Y014001D01*
X028752Y014001D02*
X028532Y014001D01*
X028384Y013891D02*
X028274Y014001D01*
X028274Y013671D01*
X028384Y013671D02*
X028164Y013671D01*
X028901Y013671D02*
X028901Y014001D01*
X029121Y014001D02*
X028901Y013671D01*
X029121Y013671D02*
X029121Y014001D01*
X029256Y014001D02*
X029366Y014001D01*
X029311Y014001D02*
X029311Y013671D01*
X029366Y013671D02*
X029256Y013671D01*
X029256Y014671D02*
X029366Y014671D01*
X029256Y014671D01*
X029311Y014671D02*
X029311Y015001D01*
X029311Y014671D01*
X029121Y014671D02*
X029121Y015001D01*
X028901Y014671D01*
X028901Y015001D01*
X028901Y014671D01*
X029121Y015001D01*
X029121Y014671D01*
X029256Y015001D02*
X029366Y015001D01*
X029256Y015001D01*
X028752Y015001D02*
X028532Y015001D01*
X028752Y015001D01*
X028642Y015001D02*
X028642Y014671D01*
X028642Y015001D01*
X028384Y014946D02*
X028329Y015001D01*
X028219Y015001D01*
X028164Y014946D01*
X028384Y014726D01*
X028329Y014671D01*
X028219Y014671D01*
X028164Y014726D01*
X028164Y014946D01*
X028384Y014726D01*
X028384Y014946D01*
X028329Y015001D01*
X028219Y015001D01*
X028164Y014946D01*
X028164Y014726D01*
X028219Y014671D01*
X028329Y014671D01*
X028384Y014726D01*
X028384Y014946D01*
X028335Y015871D02*
X028225Y015981D01*
X028225Y016201D01*
X028445Y016201D02*
X028445Y015981D01*
X028335Y015871D01*
X028594Y015926D02*
X028649Y015871D01*
X028759Y015871D01*
X028814Y015926D01*
X028943Y015926D02*
X028943Y015871D01*
X028998Y015871D01*
X028998Y015926D01*
X028943Y015926D01*
X029146Y015926D02*
X029201Y015871D01*
X029311Y015871D01*
X029366Y015926D01*
X029256Y016036D02*
X029201Y016036D01*
X029146Y015981D01*
X029146Y015926D01*
X029201Y016036D02*
X029146Y016091D01*
X029146Y016146D01*
X029201Y016201D01*
X029311Y016201D01*
X029366Y016146D01*
X028814Y016146D02*
X028759Y016201D01*
X028649Y016201D01*
X028594Y016146D01*
X028594Y016091D01*
X028649Y016036D01*
X028594Y015981D01*
X028594Y015926D01*
X028649Y016036D02*
X028704Y016036D01*
X028778Y016871D02*
X028778Y017201D01*
X028630Y017201D02*
X028464Y017201D01*
X028409Y017146D01*
X028409Y016926D01*
X028464Y016871D01*
X028630Y016871D01*
X028630Y017201D01*
X028778Y016871D02*
X028998Y017201D01*
X028998Y016871D01*
X029146Y016926D02*
X029146Y017036D01*
X029256Y017036D01*
X029146Y016926D02*
X029201Y016871D01*
X029311Y016871D01*
X029366Y016926D01*
X029366Y017146D01*
X029311Y017201D01*
X029201Y017201D01*
X029146Y017146D01*
X029201Y017871D02*
X029311Y017871D01*
X029366Y017926D01*
X029311Y018036D02*
X029201Y018036D01*
X029146Y017981D01*
X029146Y017926D01*
X029201Y017871D01*
X029311Y018036D02*
X029366Y018091D01*
X029366Y018146D01*
X029311Y018201D01*
X029201Y018201D01*
X029146Y018146D01*
X028998Y018201D02*
X028833Y018201D01*
X028778Y018146D01*
X028778Y017926D01*
X028833Y017871D01*
X028998Y017871D01*
X028998Y018201D01*
X028630Y018091D02*
X028519Y018201D01*
X028409Y018091D01*
X028409Y017871D01*
X028409Y018036D02*
X028630Y018036D01*
X028630Y018091D02*
X028630Y017871D01*
X028630Y018871D02*
X028409Y018871D01*
X028630Y018871D02*
X028630Y019201D01*
X028778Y019146D02*
X028833Y019201D01*
X028943Y019201D01*
X028998Y019146D01*
X028998Y018926D01*
X028943Y018871D01*
X028833Y018871D01*
X028778Y018926D01*
X029146Y018926D02*
X029201Y018871D01*
X029311Y018871D01*
X029366Y018926D01*
X029311Y019036D02*
X029201Y019036D01*
X029146Y018981D01*
X029146Y018926D01*
X029311Y019036D02*
X029366Y019091D01*
X029366Y019146D01*
X029311Y019201D01*
X029201Y019201D01*
X029146Y019146D01*
X029121Y019871D02*
X029121Y020201D01*
X028901Y019871D01*
X028901Y020201D01*
X028752Y020201D02*
X028532Y020201D01*
X028642Y020201D02*
X028642Y019871D01*
X028384Y019871D02*
X028164Y019871D01*
X028274Y019871D02*
X028274Y020201D01*
X028384Y020091D01*
X028329Y020871D02*
X028384Y020926D01*
X028164Y021146D01*
X028164Y020926D01*
X028219Y020871D01*
X028329Y020871D01*
X028384Y020926D02*
X028384Y021146D01*
X028329Y021201D01*
X028219Y021201D01*
X028164Y021146D01*
X028532Y021201D02*
X028752Y021201D01*
X028642Y021201D02*
X028642Y020871D01*
X028901Y020871D02*
X028901Y021201D01*
X029121Y021201D02*
X028901Y020871D01*
X029121Y020871D02*
X029121Y021201D01*
X029256Y021201D02*
X029366Y021201D01*
X029311Y021201D02*
X029311Y020871D01*
X029366Y020871D02*
X029256Y020871D01*
X029256Y020201D02*
X029366Y020201D01*
X029311Y020201D02*
X029311Y019871D01*
X029366Y019871D02*
X029256Y019871D01*
X029311Y022071D02*
X029366Y022126D01*
X029311Y022071D02*
X029201Y022071D01*
X029146Y022126D01*
X029146Y022181D01*
X029201Y022236D01*
X029256Y022236D01*
X029201Y022236D02*
X029146Y022291D01*
X029146Y022346D01*
X029201Y022401D01*
X029311Y022401D01*
X029366Y022346D01*
X028998Y022126D02*
X028943Y022126D01*
X028943Y022071D01*
X028998Y022071D01*
X028998Y022126D01*
X028814Y022126D02*
X028759Y022071D01*
X028649Y022071D01*
X028594Y022126D01*
X028594Y022181D01*
X028649Y022236D01*
X028704Y022236D01*
X028649Y022236D02*
X028594Y022291D01*
X028594Y022346D01*
X028649Y022401D01*
X028759Y022401D01*
X028814Y022346D01*
X028445Y022401D02*
X028445Y022181D01*
X028335Y022071D01*
X028225Y022181D01*
X028225Y022401D01*
X028464Y023071D02*
X028409Y023126D01*
X028409Y023346D01*
X028464Y023401D01*
X028630Y023401D01*
X028630Y023071D01*
X028464Y023071D01*
X028778Y023071D02*
X028778Y023401D01*
X028998Y023401D02*
X028778Y023071D01*
X028998Y023071D02*
X028998Y023401D01*
X029146Y023346D02*
X029201Y023401D01*
X029311Y023401D01*
X029366Y023346D01*
X029366Y023126D01*
X029311Y023071D01*
X029201Y023071D01*
X029146Y023126D01*
X029146Y023236D01*
X029256Y023236D01*
X029201Y024071D02*
X029311Y024071D01*
X029366Y024126D01*
X029311Y024236D02*
X029201Y024236D01*
X029146Y024181D01*
X029146Y024126D01*
X029201Y024071D01*
X029311Y024236D02*
X029366Y024291D01*
X029366Y024346D01*
X029311Y024401D01*
X029201Y024401D01*
X029146Y024346D01*
X028998Y024401D02*
X028833Y024401D01*
X028778Y024346D01*
X028778Y024126D01*
X028833Y024071D01*
X028998Y024071D01*
X028998Y024401D01*
X028630Y024291D02*
X028630Y024071D01*
X028630Y024236D02*
X028409Y024236D01*
X028409Y024291D02*
X028409Y024071D01*
X028409Y024291D02*
X028519Y024401D01*
X028630Y024291D01*
X028630Y025071D02*
X028409Y025071D01*
X028630Y025071D02*
X028630Y025401D01*
X028778Y025346D02*
X028833Y025401D01*
X028943Y025401D01*
X028998Y025346D01*
X028998Y025126D01*
X028943Y025071D01*
X028833Y025071D01*
X028778Y025126D01*
X029146Y025126D02*
X029201Y025071D01*
X029311Y025071D01*
X029366Y025126D01*
X029311Y025236D02*
X029201Y025236D01*
X029146Y025181D01*
X029146Y025126D01*
X029311Y025236D02*
X029366Y025291D01*
X029366Y025346D01*
X029311Y025401D01*
X029201Y025401D01*
X029146Y025346D01*
X029121Y026071D02*
X029121Y026401D01*
X028901Y026071D01*
X028901Y026401D01*
X028752Y026401D02*
X028532Y026401D01*
X028642Y026401D02*
X028642Y026071D01*
X028384Y026071D02*
X028164Y026071D01*
X028274Y026071D02*
X028274Y026401D01*
X028384Y026291D01*
X029256Y026401D02*
X029366Y026401D01*
X029311Y026401D02*
X029311Y026071D01*
X029366Y026071D02*
X029256Y026071D01*
X029256Y027071D02*
X029366Y027071D01*
X029311Y027071D02*
X029311Y027401D01*
X029366Y027401D02*
X029256Y027401D01*
X029121Y027401D02*
X028901Y027071D01*
X028901Y027401D01*
X028752Y027401D02*
X028532Y027401D01*
X028642Y027401D02*
X028642Y027071D01*
X028384Y027126D02*
X028164Y027346D01*
X028164Y027126D01*
X028219Y027071D01*
X028329Y027071D01*
X028384Y027126D01*
X028384Y027346D01*
X028329Y027401D01*
X028219Y027401D01*
X028164Y027346D01*
X029121Y027401D02*
X029121Y027071D01*
X029201Y028271D02*
X029311Y028271D01*
X029366Y028326D01*
X029256Y028436D02*
X029201Y028436D01*
X029146Y028381D01*
X029146Y028326D01*
X029201Y028271D01*
X029201Y028436D02*
X029146Y028491D01*
X029146Y028546D01*
X029201Y028601D01*
X029311Y028601D01*
X029366Y028546D01*
X028998Y028326D02*
X028943Y028326D01*
X028943Y028271D01*
X028998Y028271D01*
X028998Y028326D01*
X028814Y028326D02*
X028759Y028271D01*
X028649Y028271D01*
X028594Y028326D01*
X028594Y028381D01*
X028649Y028436D01*
X028704Y028436D01*
X028649Y028436D02*
X028594Y028491D01*
X028594Y028546D01*
X028649Y028601D01*
X028759Y028601D01*
X028814Y028546D01*
X028445Y028601D02*
X028445Y028381D01*
X028335Y028271D01*
X028225Y028381D01*
X028225Y028601D01*
X028464Y029271D02*
X028409Y029326D01*
X028409Y029546D01*
X028464Y029601D01*
X028630Y029601D01*
X028630Y029271D01*
X028464Y029271D01*
X028778Y029271D02*
X028778Y029601D01*
X028998Y029601D02*
X028778Y029271D01*
X028998Y029271D02*
X028998Y029601D01*
X029146Y029546D02*
X029201Y029601D01*
X029311Y029601D01*
X029366Y029546D01*
X029366Y029326D01*
X029311Y029271D01*
X029201Y029271D01*
X029146Y029326D01*
X029146Y029436D01*
X029256Y029436D01*
X029201Y030271D02*
X029311Y030271D01*
X029366Y030326D01*
X029311Y030436D02*
X029201Y030436D01*
X029146Y030381D01*
X029146Y030326D01*
X029201Y030271D01*
X029311Y030436D02*
X029366Y030491D01*
X029366Y030546D01*
X029311Y030601D01*
X029201Y030601D01*
X029146Y030546D01*
X028998Y030601D02*
X028833Y030601D01*
X028778Y030546D01*
X028778Y030326D01*
X028833Y030271D01*
X028998Y030271D01*
X028998Y030601D01*
X028630Y030491D02*
X028519Y030601D01*
X028409Y030491D01*
X028409Y030271D01*
X028409Y030436D02*
X028630Y030436D01*
X028630Y030491D02*
X028630Y030271D01*
X028630Y031271D02*
X028409Y031271D01*
X028630Y031271D02*
X028630Y031601D01*
X028778Y031546D02*
X028833Y031601D01*
X028943Y031601D01*
X028998Y031546D01*
X028998Y031326D01*
X028943Y031271D01*
X028833Y031271D01*
X028778Y031326D01*
X029146Y031326D02*
X029201Y031271D01*
X029311Y031271D01*
X029366Y031326D01*
X029311Y031436D02*
X029201Y031436D01*
X029146Y031381D01*
X029146Y031326D01*
X029311Y031436D02*
X029366Y031491D01*
X029366Y031546D01*
X029311Y031601D01*
X029201Y031601D01*
X029146Y031546D01*
X029121Y032271D02*
X029121Y032601D01*
X028901Y032271D01*
X028901Y032601D01*
X028752Y032601D02*
X028532Y032601D01*
X028642Y032601D02*
X028642Y032271D01*
X028384Y032271D02*
X028164Y032271D01*
X028274Y032271D02*
X028274Y032601D01*
X028384Y032491D01*
X028329Y033271D02*
X028384Y033326D01*
X028164Y033546D01*
X028164Y033326D01*
X028219Y033271D01*
X028329Y033271D01*
X028384Y033326D02*
X028384Y033546D01*
X028329Y033601D01*
X028219Y033601D01*
X028164Y033546D01*
X028532Y033601D02*
X028752Y033601D01*
X028642Y033601D02*
X028642Y033271D01*
X028901Y033271D02*
X028901Y033601D01*
X029121Y033601D02*
X028901Y033271D01*
X029121Y033271D02*
X029121Y033601D01*
X029256Y033601D02*
X029366Y033601D01*
X029311Y033601D02*
X029311Y033271D01*
X029366Y033271D02*
X029256Y033271D01*
X029256Y032601D02*
X029366Y032601D01*
X029311Y032601D02*
X029311Y032271D01*
X029366Y032271D02*
X029256Y032271D01*
X029311Y034471D02*
X029366Y034526D01*
X029311Y034471D02*
X029201Y034471D01*
X029146Y034526D01*
X029146Y034581D01*
X029201Y034636D01*
X029256Y034636D01*
X029201Y034636D02*
X029146Y034691D01*
X029146Y034746D01*
X029201Y034801D01*
X029311Y034801D01*
X029366Y034746D01*
X028998Y034526D02*
X028943Y034526D01*
X028943Y034471D01*
X028998Y034471D01*
X028998Y034526D01*
X028814Y034526D02*
X028759Y034471D01*
X028649Y034471D01*
X028594Y034526D01*
X028594Y034581D01*
X028649Y034636D01*
X028704Y034636D01*
X028649Y034636D02*
X028594Y034691D01*
X028594Y034746D01*
X028649Y034801D01*
X028759Y034801D01*
X028814Y034746D01*
X028445Y034801D02*
X028445Y034581D01*
X028335Y034471D01*
X028225Y034581D01*
X028225Y034801D01*
X028464Y035471D02*
X028409Y035526D01*
X028409Y035746D01*
X028464Y035801D01*
X028630Y035801D01*
X028630Y035471D01*
X028464Y035471D01*
X028778Y035471D02*
X028778Y035801D01*
X028998Y035801D02*
X028778Y035471D01*
X028998Y035471D02*
X028998Y035801D01*
X029146Y035746D02*
X029201Y035801D01*
X029311Y035801D01*
X029366Y035746D01*
X029366Y035526D01*
X029311Y035471D01*
X029201Y035471D01*
X029146Y035526D01*
X029146Y035636D01*
X029256Y035636D01*
X029201Y036471D02*
X029311Y036471D01*
X029366Y036526D01*
X029311Y036636D02*
X029201Y036636D01*
X029146Y036581D01*
X029146Y036526D01*
X029201Y036471D01*
X029311Y036636D02*
X029366Y036691D01*
X029366Y036746D01*
X029311Y036801D01*
X029201Y036801D01*
X029146Y036746D01*
X028998Y036801D02*
X028833Y036801D01*
X028778Y036746D01*
X028778Y036526D01*
X028833Y036471D01*
X028998Y036471D01*
X028998Y036801D01*
X028630Y036691D02*
X028630Y036471D01*
X028630Y036636D02*
X028409Y036636D01*
X028409Y036691D02*
X028409Y036471D01*
X028409Y036691D02*
X028519Y036801D01*
X028630Y036691D01*
X028630Y037471D02*
X028409Y037471D01*
X028630Y037471D02*
X028630Y037801D01*
X028778Y037746D02*
X028833Y037801D01*
X028943Y037801D01*
X028998Y037746D01*
X028998Y037526D01*
X028943Y037471D01*
X028833Y037471D01*
X028778Y037526D01*
X029146Y037526D02*
X029201Y037471D01*
X029311Y037471D01*
X029366Y037526D01*
X029311Y037636D02*
X029201Y037636D01*
X029146Y037581D01*
X029146Y037526D01*
X029311Y037636D02*
X029366Y037691D01*
X029366Y037746D01*
X029311Y037801D01*
X029201Y037801D01*
X029146Y037746D01*
X029121Y038471D02*
X029121Y038801D01*
X028901Y038471D01*
X028901Y038801D01*
X028752Y038801D02*
X028532Y038801D01*
X028642Y038801D02*
X028642Y038471D01*
X028384Y038471D02*
X028164Y038471D01*
X028274Y038471D02*
X028274Y038801D01*
X028384Y038691D01*
X029256Y038801D02*
X029366Y038801D01*
X029311Y038801D02*
X029311Y038471D01*
X029366Y038471D02*
X029256Y038471D01*
X029256Y039471D02*
X029366Y039471D01*
X029311Y039471D02*
X029311Y039801D01*
X029366Y039801D02*
X029256Y039801D01*
X029121Y039801D02*
X028901Y039471D01*
X028901Y039801D01*
X028752Y039801D02*
X028532Y039801D01*
X028642Y039801D02*
X028642Y039471D01*
X028384Y039526D02*
X028164Y039746D01*
X028164Y039526D01*
X028219Y039471D01*
X028329Y039471D01*
X028384Y039526D01*
X028384Y039746D01*
X028329Y039801D01*
X028219Y039801D01*
X028164Y039746D01*
X029121Y039801D02*
X029121Y039471D01*
X029201Y040671D02*
X029311Y040671D01*
X029366Y040726D01*
X029311Y040671D01*
X029201Y040671D01*
X029146Y040726D01*
X029146Y040781D01*
X029201Y040836D01*
X029256Y040836D01*
X029201Y040836D01*
X029146Y040891D01*
X029146Y040946D01*
X029201Y041001D01*
X029311Y041001D01*
X029366Y040946D01*
X029311Y041001D01*
X029201Y041001D01*
X029146Y040946D01*
X029146Y040891D01*
X029201Y040836D01*
X029146Y040781D01*
X029146Y040726D01*
X029201Y040671D01*
X028998Y040671D02*
X028943Y040671D01*
X028943Y040726D01*
X028998Y040726D01*
X028998Y040671D01*
X028943Y040671D01*
X028943Y040726D01*
X028998Y040726D01*
X028998Y040671D01*
X028814Y040726D02*
X028759Y040671D01*
X028649Y040671D01*
X028594Y040726D01*
X028594Y040781D01*
X028649Y040836D01*
X028704Y040836D01*
X028649Y040836D01*
X028594Y040891D01*
X028594Y040946D01*
X028649Y041001D01*
X028759Y041001D01*
X028814Y040946D01*
X028759Y041001D01*
X028649Y041001D01*
X028594Y040946D01*
X028594Y040891D01*
X028649Y040836D01*
X028594Y040781D01*
X028594Y040726D01*
X028649Y040671D01*
X028759Y040671D01*
X028814Y040726D01*
X028445Y040781D02*
X028445Y041001D01*
X028445Y040781D01*
X028335Y040671D01*
X028225Y040781D01*
X028225Y041001D01*
X028225Y040781D01*
X028335Y040671D01*
X028445Y040781D01*
X028464Y041671D02*
X028409Y041726D01*
X028409Y041946D01*
X028464Y042001D01*
X028630Y042001D01*
X028630Y041671D01*
X028464Y041671D01*
X028409Y041726D01*
X028409Y041946D01*
X028464Y042001D01*
X028630Y042001D01*
X028630Y041671D01*
X028464Y041671D01*
X028778Y041671D02*
X028778Y042001D01*
X028778Y041671D01*
X028998Y042001D01*
X028998Y041671D01*
X028998Y042001D01*
X028778Y041671D01*
X029146Y041726D02*
X029146Y041836D01*
X029256Y041836D01*
X029146Y041836D01*
X029146Y041726D01*
X029201Y041671D01*
X029311Y041671D01*
X029366Y041726D01*
X029366Y041946D01*
X029311Y042001D01*
X029201Y042001D01*
X029146Y041946D01*
X029201Y042001D01*
X029311Y042001D01*
X029366Y041946D01*
X029366Y041726D01*
X029311Y041671D01*
X029201Y041671D01*
X029146Y041726D01*
X029201Y042671D02*
X029311Y042671D01*
X029366Y042726D01*
X029311Y042671D01*
X029201Y042671D01*
X029146Y042726D01*
X029146Y042781D01*
X029201Y042836D01*
X029311Y042836D01*
X029366Y042891D01*
X029366Y042946D01*
X029311Y043001D01*
X029201Y043001D01*
X029146Y042946D01*
X029201Y043001D01*
X029311Y043001D01*
X029366Y042946D01*
X029366Y042891D01*
X029311Y042836D01*
X029201Y042836D01*
X029146Y042781D01*
X029146Y042726D01*
X029201Y042671D01*
X028998Y042671D02*
X028833Y042671D01*
X028778Y042726D01*
X028778Y042946D01*
X028833Y043001D01*
X028998Y043001D01*
X028998Y042671D01*
X028833Y042671D01*
X028778Y042726D01*
X028778Y042946D01*
X028833Y043001D01*
X028998Y043001D01*
X028998Y042671D01*
X028630Y042671D02*
X028630Y042891D01*
X028519Y043001D01*
X028409Y042891D01*
X028409Y042671D01*
X028409Y042891D01*
X028519Y043001D01*
X028630Y042891D01*
X028630Y042671D01*
X028630Y042836D02*
X028409Y042836D01*
X028630Y042836D01*
X028630Y043671D02*
X028409Y043671D01*
X028630Y043671D01*
X028630Y044001D01*
X028630Y043671D01*
X028778Y043726D02*
X028833Y043671D01*
X028943Y043671D01*
X028998Y043726D01*
X028998Y043946D01*
X028943Y044001D01*
X028833Y044001D01*
X028778Y043946D01*
X028833Y044001D01*
X028943Y044001D01*
X028998Y043946D01*
X028998Y043726D01*
X028943Y043671D01*
X028833Y043671D01*
X028778Y043726D01*
X029146Y043726D02*
X029201Y043671D01*
X029311Y043671D01*
X029366Y043726D01*
X029311Y043671D01*
X029201Y043671D01*
X029146Y043726D01*
X029146Y043781D01*
X029201Y043836D01*
X029311Y043836D01*
X029366Y043891D01*
X029366Y043946D01*
X029311Y044001D01*
X029201Y044001D01*
X029146Y043946D01*
X029201Y044001D01*
X029311Y044001D01*
X029366Y043946D01*
X029366Y043891D01*
X029311Y043836D01*
X029201Y043836D01*
X029146Y043781D01*
X029146Y043726D01*
X029121Y044671D02*
X029121Y045001D01*
X028901Y044671D01*
X028901Y045001D01*
X028901Y044671D01*
X029121Y045001D01*
X029121Y044671D01*
X029256Y044671D02*
X029366Y044671D01*
X029256Y044671D01*
X029311Y044671D02*
X029311Y045001D01*
X029311Y044671D01*
X029366Y045001D02*
X029256Y045001D01*
X029366Y045001D01*
X028752Y045001D02*
X028532Y045001D01*
X028752Y045001D01*
X028642Y045001D02*
X028642Y044671D01*
X028642Y045001D01*
X028384Y044891D02*
X028274Y045001D01*
X028274Y044671D01*
X028274Y045001D01*
X028384Y044891D01*
X028384Y044671D02*
X028164Y044671D01*
X028384Y044671D01*
X028329Y045671D02*
X028384Y045726D01*
X028164Y045946D01*
X028164Y045726D01*
X028219Y045671D01*
X028329Y045671D01*
X028384Y045726D01*
X028384Y045946D01*
X028329Y046001D01*
X028219Y046001D01*
X028164Y045946D01*
X028384Y045726D01*
X028384Y045946D01*
X028329Y046001D01*
X028219Y046001D01*
X028164Y045946D01*
X028164Y045726D01*
X028219Y045671D01*
X028329Y045671D01*
X028642Y045671D02*
X028642Y046001D01*
X028642Y045671D01*
X028901Y045671D02*
X028901Y046001D01*
X028901Y045671D01*
X029121Y046001D01*
X029121Y045671D01*
X029121Y046001D01*
X028901Y045671D01*
X029256Y045671D02*
X029366Y045671D01*
X029256Y045671D01*
X029311Y045671D02*
X029311Y046001D01*
X029311Y045671D01*
X029366Y046001D02*
X029256Y046001D01*
X029366Y046001D01*
X028752Y046001D02*
X028532Y046001D01*
X028752Y046001D01*
X034864Y045946D02*
X034864Y045726D01*
X034919Y045671D01*
X035029Y045671D01*
X035084Y045726D01*
X034864Y045946D01*
X034919Y046001D01*
X035029Y046001D01*
X035084Y045946D01*
X035084Y045726D01*
X034864Y045946D01*
X034864Y045726D01*
X034919Y045671D01*
X035029Y045671D01*
X035084Y045726D01*
X035084Y045946D01*
X035029Y046001D01*
X034919Y046001D01*
X034864Y045946D01*
X035232Y046001D02*
X035452Y046001D01*
X035232Y046001D01*
X035342Y046001D02*
X035342Y045671D01*
X035342Y046001D01*
X035601Y046001D02*
X035601Y045671D01*
X035821Y046001D01*
X035821Y045671D01*
X035821Y046001D01*
X035601Y045671D01*
X035601Y046001D01*
X035956Y046001D02*
X036066Y046001D01*
X035956Y046001D01*
X036011Y046001D02*
X036011Y045671D01*
X036011Y046001D01*
X036066Y045671D02*
X035956Y045671D01*
X036066Y045671D01*
X036066Y045001D02*
X035956Y045001D01*
X036066Y045001D01*
X036011Y045001D02*
X036011Y044671D01*
X036011Y045001D01*
X035821Y045001D02*
X035601Y044671D01*
X035601Y045001D01*
X035601Y044671D01*
X035821Y045001D01*
X035821Y044671D01*
X035821Y045001D01*
X035956Y044671D02*
X036066Y044671D01*
X035956Y044671D01*
X035452Y045001D02*
X035232Y045001D01*
X035452Y045001D01*
X035342Y045001D02*
X035342Y044671D01*
X035342Y045001D01*
X035084Y044891D02*
X034974Y045001D01*
X034974Y044671D01*
X034974Y045001D01*
X035084Y044891D01*
X035084Y044671D02*
X034864Y044671D01*
X035084Y044671D01*
X035330Y044001D02*
X035330Y043671D01*
X035109Y043671D01*
X035330Y043671D01*
X035330Y044001D01*
X035478Y043946D02*
X035533Y044001D01*
X035643Y044001D01*
X035698Y043946D01*
X035698Y043726D01*
X035643Y043671D01*
X035533Y043671D01*
X035478Y043726D01*
X035533Y043671D01*
X035643Y043671D01*
X035698Y043726D01*
X035698Y043946D01*
X035643Y044001D01*
X035533Y044001D01*
X035478Y043946D01*
X035846Y043946D02*
X035901Y044001D01*
X036011Y044001D01*
X036066Y043946D01*
X036066Y043891D01*
X036011Y043836D01*
X035901Y043836D01*
X035846Y043781D01*
X035846Y043726D01*
X035901Y043671D01*
X036011Y043671D01*
X036066Y043726D01*
X036011Y043671D01*
X035901Y043671D01*
X035846Y043726D01*
X035846Y043781D01*
X035901Y043836D01*
X036011Y043836D01*
X036066Y043891D01*
X036066Y043946D01*
X036011Y044001D01*
X035901Y044001D01*
X035846Y043946D01*
X035901Y043001D02*
X036011Y043001D01*
X036066Y042946D01*
X036066Y042891D01*
X036011Y042836D01*
X035901Y042836D01*
X035846Y042781D01*
X035846Y042726D01*
X035901Y042671D01*
X036011Y042671D01*
X036066Y042726D01*
X036011Y042671D01*
X035901Y042671D01*
X035846Y042726D01*
X035846Y042781D01*
X035901Y042836D01*
X036011Y042836D01*
X036066Y042891D01*
X036066Y042946D01*
X036011Y043001D01*
X035901Y043001D01*
X035846Y042946D01*
X035901Y043001D01*
X035698Y043001D02*
X035533Y043001D01*
X035478Y042946D01*
X035478Y042726D01*
X035533Y042671D01*
X035698Y042671D01*
X035698Y043001D01*
X035533Y043001D01*
X035478Y042946D01*
X035478Y042726D01*
X035533Y042671D01*
X035698Y042671D01*
X035698Y043001D01*
X035330Y042891D02*
X035219Y043001D01*
X035109Y042891D01*
X035109Y042671D01*
X035109Y042891D01*
X035219Y043001D01*
X035330Y042891D01*
X035330Y042671D01*
X035330Y042891D01*
X035330Y042836D02*
X035109Y042836D01*
X035330Y042836D01*
X035330Y042001D02*
X035164Y042001D01*
X035109Y041946D01*
X035109Y041726D01*
X035164Y041671D01*
X035330Y041671D01*
X035330Y042001D01*
X035164Y042001D01*
X035109Y041946D01*
X035109Y041726D01*
X035164Y041671D01*
X035330Y041671D01*
X035330Y042001D01*
X035478Y042001D02*
X035478Y041671D01*
X035698Y042001D01*
X035698Y041671D01*
X035698Y042001D01*
X035478Y041671D01*
X035478Y042001D01*
X035846Y041946D02*
X035901Y042001D01*
X036011Y042001D01*
X036066Y041946D01*
X036066Y041726D01*
X036011Y041671D01*
X035901Y041671D01*
X035846Y041726D01*
X035846Y041836D01*
X035956Y041836D01*
X035846Y041836D01*
X035846Y041726D01*
X035901Y041671D01*
X036011Y041671D01*
X036066Y041726D01*
X036066Y041946D01*
X036011Y042001D01*
X035901Y042001D01*
X035846Y041946D01*
X035901Y041001D02*
X035846Y040946D01*
X035846Y040891D01*
X035901Y040836D01*
X035846Y040781D01*
X035846Y040726D01*
X035901Y040671D01*
X036011Y040671D01*
X036066Y040726D01*
X036011Y040671D01*
X035901Y040671D01*
X035846Y040726D01*
X035846Y040781D01*
X035901Y040836D01*
X035956Y040836D01*
X035901Y040836D01*
X035846Y040891D01*
X035846Y040946D01*
X035901Y041001D01*
X036011Y041001D01*
X036066Y040946D01*
X036011Y041001D01*
X035901Y041001D01*
X035698Y040726D02*
X035643Y040726D01*
X035643Y040671D01*
X035698Y040671D01*
X035698Y040726D01*
X035643Y040726D01*
X035643Y040671D01*
X035698Y040671D01*
X035698Y040726D01*
X035514Y040726D02*
X035459Y040671D01*
X035349Y040671D01*
X035294Y040726D01*
X035294Y040781D01*
X035349Y040836D01*
X035404Y040836D01*
X035349Y040836D01*
X035294Y040891D01*
X035294Y040946D01*
X035349Y041001D01*
X035459Y041001D01*
X035514Y040946D01*
X035459Y041001D01*
X035349Y041001D01*
X035294Y040946D01*
X035294Y040891D01*
X035349Y040836D01*
X035294Y040781D01*
X035294Y040726D01*
X035349Y040671D01*
X035459Y040671D01*
X035514Y040726D01*
X035145Y040781D02*
X035035Y040671D01*
X034925Y040781D01*
X034925Y041001D01*
X034925Y040781D01*
X035035Y040671D01*
X035145Y040781D01*
X035145Y041001D01*
X035145Y040781D01*
X035232Y039801D02*
X035452Y039801D01*
X035342Y039801D02*
X035342Y039471D01*
X035601Y039471D02*
X035601Y039801D01*
X035821Y039801D02*
X035601Y039471D01*
X035821Y039471D02*
X035821Y039801D01*
X035956Y039801D02*
X036066Y039801D01*
X036011Y039801D02*
X036011Y039471D01*
X036066Y039471D02*
X035956Y039471D01*
X035956Y038801D02*
X036066Y038801D01*
X036011Y038801D02*
X036011Y038471D01*
X036066Y038471D02*
X035956Y038471D01*
X035821Y038471D02*
X035821Y038801D01*
X035601Y038471D01*
X035601Y038801D01*
X035452Y038801D02*
X035232Y038801D01*
X035342Y038801D02*
X035342Y038471D01*
X035084Y038471D02*
X034864Y038471D01*
X034974Y038471D02*
X034974Y038801D01*
X035084Y038691D01*
X035330Y037801D02*
X035330Y037471D01*
X035109Y037471D01*
X035478Y037526D02*
X035533Y037471D01*
X035643Y037471D01*
X035698Y037526D01*
X035698Y037746D01*
X035643Y037801D01*
X035533Y037801D01*
X035478Y037746D01*
X035846Y037746D02*
X035901Y037801D01*
X036011Y037801D01*
X036066Y037746D01*
X036066Y037691D01*
X036011Y037636D01*
X035901Y037636D01*
X035846Y037581D01*
X035846Y037526D01*
X035901Y037471D01*
X036011Y037471D01*
X036066Y037526D01*
X036011Y036801D02*
X035901Y036801D01*
X035846Y036746D01*
X035901Y036636D02*
X035846Y036581D01*
X035846Y036526D01*
X035901Y036471D01*
X036011Y036471D01*
X036066Y036526D01*
X036011Y036636D02*
X035901Y036636D01*
X036011Y036636D02*
X036066Y036691D01*
X036066Y036746D01*
X036011Y036801D01*
X035698Y036801D02*
X035698Y036471D01*
X035533Y036471D01*
X035478Y036526D01*
X035478Y036746D01*
X035533Y036801D01*
X035698Y036801D01*
X035330Y036691D02*
X035219Y036801D01*
X035109Y036691D01*
X035109Y036471D01*
X035109Y036636D02*
X035330Y036636D01*
X035330Y036691D02*
X035330Y036471D01*
X035330Y035801D02*
X035164Y035801D01*
X035109Y035746D01*
X035109Y035526D01*
X035164Y035471D01*
X035330Y035471D01*
X035330Y035801D01*
X035478Y035801D02*
X035478Y035471D01*
X035698Y035801D01*
X035698Y035471D01*
X035846Y035526D02*
X035846Y035636D01*
X035956Y035636D01*
X035846Y035526D02*
X035901Y035471D01*
X036011Y035471D01*
X036066Y035526D01*
X036066Y035746D01*
X036011Y035801D01*
X035901Y035801D01*
X035846Y035746D01*
X035901Y034801D02*
X035846Y034746D01*
X035846Y034691D01*
X035901Y034636D01*
X035846Y034581D01*
X035846Y034526D01*
X035901Y034471D01*
X036011Y034471D01*
X036066Y034526D01*
X035956Y034636D02*
X035901Y034636D01*
X035901Y034801D02*
X036011Y034801D01*
X036066Y034746D01*
X035698Y034526D02*
X035643Y034526D01*
X035643Y034471D01*
X035698Y034471D01*
X035698Y034526D01*
X035514Y034526D02*
X035459Y034471D01*
X035349Y034471D01*
X035294Y034526D01*
X035294Y034581D01*
X035349Y034636D01*
X035404Y034636D01*
X035349Y034636D02*
X035294Y034691D01*
X035294Y034746D01*
X035349Y034801D01*
X035459Y034801D01*
X035514Y034746D01*
X035145Y034801D02*
X035145Y034581D01*
X035035Y034471D01*
X034925Y034581D01*
X034925Y034801D01*
X034919Y033601D02*
X034864Y033546D01*
X035084Y033326D01*
X035029Y033271D01*
X034919Y033271D01*
X034864Y033326D01*
X034864Y033546D01*
X034919Y033601D02*
X035029Y033601D01*
X035084Y033546D01*
X035084Y033326D01*
X035342Y033271D02*
X035342Y033601D01*
X035452Y033601D02*
X035232Y033601D01*
X035601Y033601D02*
X035601Y033271D01*
X035821Y033601D01*
X035821Y033271D01*
X035956Y033271D02*
X036066Y033271D01*
X036011Y033271D02*
X036011Y033601D01*
X036066Y033601D02*
X035956Y033601D01*
X035956Y032601D02*
X036066Y032601D01*
X036011Y032601D02*
X036011Y032271D01*
X036066Y032271D02*
X035956Y032271D01*
X035821Y032271D02*
X035821Y032601D01*
X035601Y032271D01*
X035601Y032601D01*
X035452Y032601D02*
X035232Y032601D01*
X035342Y032601D02*
X035342Y032271D01*
X035084Y032271D02*
X034864Y032271D01*
X034974Y032271D02*
X034974Y032601D01*
X035084Y032491D01*
X035330Y031601D02*
X035330Y031271D01*
X035109Y031271D01*
X035478Y031326D02*
X035533Y031271D01*
X035643Y031271D01*
X035698Y031326D01*
X035698Y031546D01*
X035643Y031601D01*
X035533Y031601D01*
X035478Y031546D01*
X035846Y031546D02*
X035901Y031601D01*
X036011Y031601D01*
X036066Y031546D01*
X036066Y031491D01*
X036011Y031436D01*
X035901Y031436D01*
X035846Y031381D01*
X035846Y031326D01*
X035901Y031271D01*
X036011Y031271D01*
X036066Y031326D01*
X036011Y030601D02*
X035901Y030601D01*
X035846Y030546D01*
X035901Y030436D02*
X035846Y030381D01*
X035846Y030326D01*
X035901Y030271D01*
X036011Y030271D01*
X036066Y030326D01*
X036011Y030436D02*
X035901Y030436D01*
X036011Y030436D02*
X036066Y030491D01*
X036066Y030546D01*
X036011Y030601D01*
X035698Y030601D02*
X035533Y030601D01*
X035478Y030546D01*
X035478Y030326D01*
X035533Y030271D01*
X035698Y030271D01*
X035698Y030601D01*
X035330Y030491D02*
X035219Y030601D01*
X035109Y030491D01*
X035109Y030271D01*
X035109Y030436D02*
X035330Y030436D01*
X035330Y030491D02*
X035330Y030271D01*
X035330Y029601D02*
X035164Y029601D01*
X035109Y029546D01*
X035109Y029326D01*
X035164Y029271D01*
X035330Y029271D01*
X035330Y029601D01*
X035478Y029601D02*
X035478Y029271D01*
X035698Y029601D01*
X035698Y029271D01*
X035846Y029326D02*
X035846Y029436D01*
X035956Y029436D01*
X035846Y029326D02*
X035901Y029271D01*
X036011Y029271D01*
X036066Y029326D01*
X036066Y029546D01*
X036011Y029601D01*
X035901Y029601D01*
X035846Y029546D01*
X035901Y028601D02*
X035846Y028546D01*
X035846Y028491D01*
X035901Y028436D01*
X035846Y028381D01*
X035846Y028326D01*
X035901Y028271D01*
X036011Y028271D01*
X036066Y028326D01*
X035956Y028436D02*
X035901Y028436D01*
X035901Y028601D02*
X036011Y028601D01*
X036066Y028546D01*
X035698Y028326D02*
X035643Y028326D01*
X035643Y028271D01*
X035698Y028271D01*
X035698Y028326D01*
X035514Y028326D02*
X035459Y028271D01*
X035349Y028271D01*
X035294Y028326D01*
X035294Y028381D01*
X035349Y028436D01*
X035404Y028436D01*
X035349Y028436D02*
X035294Y028491D01*
X035294Y028546D01*
X035349Y028601D01*
X035459Y028601D01*
X035514Y028546D01*
X035145Y028601D02*
X035145Y028381D01*
X035035Y028271D01*
X034925Y028381D01*
X034925Y028601D01*
X034919Y027401D02*
X034864Y027346D01*
X035084Y027126D01*
X035029Y027071D01*
X034919Y027071D01*
X034864Y027126D01*
X034864Y027346D01*
X034919Y027401D02*
X035029Y027401D01*
X035084Y027346D01*
X035084Y027126D01*
X035342Y027071D02*
X035342Y027401D01*
X035452Y027401D02*
X035232Y027401D01*
X035601Y027401D02*
X035601Y027071D01*
X035821Y027401D01*
X035821Y027071D01*
X035956Y027071D02*
X036066Y027071D01*
X036011Y027071D02*
X036011Y027401D01*
X036066Y027401D02*
X035956Y027401D01*
X035956Y026401D02*
X036066Y026401D01*
X036011Y026401D02*
X036011Y026071D01*
X036066Y026071D02*
X035956Y026071D01*
X035821Y026071D02*
X035821Y026401D01*
X035601Y026071D01*
X035601Y026401D01*
X035452Y026401D02*
X035232Y026401D01*
X035342Y026401D02*
X035342Y026071D01*
X035084Y026071D02*
X034864Y026071D01*
X034974Y026071D02*
X034974Y026401D01*
X035084Y026291D01*
X035330Y025401D02*
X035330Y025071D01*
X035109Y025071D01*
X035478Y025126D02*
X035533Y025071D01*
X035643Y025071D01*
X035698Y025126D01*
X035698Y025346D01*
X035643Y025401D01*
X035533Y025401D01*
X035478Y025346D01*
X035846Y025346D02*
X035901Y025401D01*
X036011Y025401D01*
X036066Y025346D01*
X036066Y025291D01*
X036011Y025236D01*
X035901Y025236D01*
X035846Y025181D01*
X035846Y025126D01*
X035901Y025071D01*
X036011Y025071D01*
X036066Y025126D01*
X036011Y024401D02*
X035901Y024401D01*
X035846Y024346D01*
X035901Y024236D02*
X035846Y024181D01*
X035846Y024126D01*
X035901Y024071D01*
X036011Y024071D01*
X036066Y024126D01*
X036011Y024236D02*
X035901Y024236D01*
X036011Y024236D02*
X036066Y024291D01*
X036066Y024346D01*
X036011Y024401D01*
X035698Y024401D02*
X035698Y024071D01*
X035533Y024071D01*
X035478Y024126D01*
X035478Y024346D01*
X035533Y024401D01*
X035698Y024401D01*
X035330Y024291D02*
X035219Y024401D01*
X035109Y024291D01*
X035109Y024071D01*
X035109Y024236D02*
X035330Y024236D01*
X035330Y024291D02*
X035330Y024071D01*
X035330Y023401D02*
X035164Y023401D01*
X035109Y023346D01*
X035109Y023126D01*
X035164Y023071D01*
X035330Y023071D01*
X035330Y023401D01*
X035478Y023401D02*
X035478Y023071D01*
X035698Y023401D01*
X035698Y023071D01*
X035846Y023126D02*
X035846Y023236D01*
X035956Y023236D01*
X035846Y023126D02*
X035901Y023071D01*
X036011Y023071D01*
X036066Y023126D01*
X036066Y023346D01*
X036011Y023401D01*
X035901Y023401D01*
X035846Y023346D01*
X035901Y022401D02*
X035846Y022346D01*
X035846Y022291D01*
X035901Y022236D01*
X035846Y022181D01*
X035846Y022126D01*
X035901Y022071D01*
X036011Y022071D01*
X036066Y022126D01*
X035956Y022236D02*
X035901Y022236D01*
X035901Y022401D02*
X036011Y022401D01*
X036066Y022346D01*
X035698Y022126D02*
X035698Y022071D01*
X035643Y022071D01*
X035643Y022126D01*
X035698Y022126D01*
X035514Y022126D02*
X035459Y022071D01*
X035349Y022071D01*
X035294Y022126D01*
X035294Y022181D01*
X035349Y022236D01*
X035404Y022236D01*
X035349Y022236D02*
X035294Y022291D01*
X035294Y022346D01*
X035349Y022401D01*
X035459Y022401D01*
X035514Y022346D01*
X035145Y022401D02*
X035145Y022181D01*
X035035Y022071D01*
X034925Y022181D01*
X034925Y022401D01*
X034919Y021201D02*
X034864Y021146D01*
X035084Y020926D01*
X035029Y020871D01*
X034919Y020871D01*
X034864Y020926D01*
X034864Y021146D01*
X034919Y021201D02*
X035029Y021201D01*
X035084Y021146D01*
X035084Y020926D01*
X035342Y020871D02*
X035342Y021201D01*
X035452Y021201D02*
X035232Y021201D01*
X035601Y021201D02*
X035601Y020871D01*
X035821Y021201D01*
X035821Y020871D01*
X035956Y020871D02*
X036066Y020871D01*
X036011Y020871D02*
X036011Y021201D01*
X036066Y021201D02*
X035956Y021201D01*
X035956Y020201D02*
X036066Y020201D01*
X036011Y020201D02*
X036011Y019871D01*
X036066Y019871D02*
X035956Y019871D01*
X035821Y019871D02*
X035821Y020201D01*
X035601Y019871D01*
X035601Y020201D01*
X035452Y020201D02*
X035232Y020201D01*
X035342Y020201D02*
X035342Y019871D01*
X035084Y019871D02*
X034864Y019871D01*
X034974Y019871D02*
X034974Y020201D01*
X035084Y020091D01*
X035330Y019201D02*
X035330Y018871D01*
X035109Y018871D01*
X035478Y018926D02*
X035533Y018871D01*
X035643Y018871D01*
X035698Y018926D01*
X035698Y019146D01*
X035643Y019201D01*
X035533Y019201D01*
X035478Y019146D01*
X035846Y019146D02*
X035901Y019201D01*
X036011Y019201D01*
X036066Y019146D01*
X036066Y019091D01*
X036011Y019036D01*
X035901Y019036D01*
X035846Y018981D01*
X035846Y018926D01*
X035901Y018871D01*
X036011Y018871D01*
X036066Y018926D01*
X036011Y018201D02*
X035901Y018201D01*
X035846Y018146D01*
X035901Y018036D02*
X035846Y017981D01*
X035846Y017926D01*
X035901Y017871D01*
X036011Y017871D01*
X036066Y017926D01*
X036011Y018036D02*
X035901Y018036D01*
X036011Y018036D02*
X036066Y018091D01*
X036066Y018146D01*
X036011Y018201D01*
X035698Y018201D02*
X035533Y018201D01*
X035478Y018146D01*
X035478Y017926D01*
X035533Y017871D01*
X035698Y017871D01*
X035698Y018201D01*
X035330Y018091D02*
X035219Y018201D01*
X035109Y018091D01*
X035109Y017871D01*
X035109Y018036D02*
X035330Y018036D01*
X035330Y018091D02*
X035330Y017871D01*
X035330Y017201D02*
X035164Y017201D01*
X035109Y017146D01*
X035109Y016926D01*
X035164Y016871D01*
X035330Y016871D01*
X035330Y017201D01*
X035478Y017201D02*
X035478Y016871D01*
X035698Y017201D01*
X035698Y016871D01*
X035846Y016926D02*
X035846Y017036D01*
X035956Y017036D01*
X035846Y016926D02*
X035901Y016871D01*
X036011Y016871D01*
X036066Y016926D01*
X036066Y017146D01*
X036011Y017201D01*
X035901Y017201D01*
X035846Y017146D01*
X035901Y016201D02*
X035846Y016146D01*
X035846Y016091D01*
X035901Y016036D01*
X035846Y015981D01*
X035846Y015926D01*
X035901Y015871D01*
X036011Y015871D01*
X036066Y015926D01*
X035956Y016036D02*
X035901Y016036D01*
X035901Y016201D02*
X036011Y016201D01*
X036066Y016146D01*
X035698Y015926D02*
X035643Y015926D01*
X035643Y015871D01*
X035698Y015871D01*
X035698Y015926D01*
X035514Y015926D02*
X035459Y015871D01*
X035349Y015871D01*
X035294Y015926D01*
X035294Y015981D01*
X035349Y016036D01*
X035404Y016036D01*
X035349Y016036D02*
X035294Y016091D01*
X035294Y016146D01*
X035349Y016201D01*
X035459Y016201D01*
X035514Y016146D01*
X035145Y016201D02*
X035145Y015981D01*
X035035Y015871D01*
X034925Y015981D01*
X034925Y016201D01*
X034919Y015001D02*
X034864Y014946D01*
X035084Y014726D01*
X035029Y014671D01*
X034919Y014671D01*
X034864Y014726D01*
X034864Y014946D01*
X035084Y014726D01*
X035084Y014946D01*
X035029Y015001D01*
X034919Y015001D01*
X034864Y014946D01*
X034864Y014726D01*
X034919Y014671D01*
X035029Y014671D01*
X035084Y014726D01*
X035084Y014946D01*
X035029Y015001D01*
X034919Y015001D01*
X035232Y015001D02*
X035452Y015001D01*
X035232Y015001D01*
X035342Y015001D02*
X035342Y014671D01*
X035342Y015001D01*
X035601Y015001D02*
X035601Y014671D01*
X035821Y015001D01*
X035821Y014671D01*
X035821Y015001D01*
X035601Y014671D01*
X035601Y015001D01*
X035956Y015001D02*
X036066Y015001D01*
X035956Y015001D01*
X036011Y015001D02*
X036011Y014671D01*
X036011Y015001D01*
X036066Y014671D02*
X035956Y014671D01*
X036066Y014671D01*
X036066Y014001D02*
X035956Y014001D01*
X036066Y014001D01*
X036011Y014001D02*
X036011Y013671D01*
X036011Y014001D01*
X035821Y014001D02*
X035601Y013671D01*
X035601Y014001D01*
X035601Y013671D01*
X035821Y014001D01*
X035821Y013671D01*
X035821Y014001D01*
X035956Y013671D02*
X036066Y013671D01*
X035956Y013671D01*
X035452Y014001D02*
X035232Y014001D01*
X035452Y014001D01*
X035342Y014001D02*
X035342Y013671D01*
X035342Y014001D01*
X035084Y013891D02*
X034974Y014001D01*
X034974Y013671D01*
X034974Y014001D01*
X035084Y013891D01*
X035084Y013671D02*
X034864Y013671D01*
X035084Y013671D01*
X035330Y013001D02*
X035330Y012671D01*
X035109Y012671D01*
X035330Y012671D01*
X035330Y013001D01*
X035478Y012946D02*
X035533Y013001D01*
X035643Y013001D01*
X035698Y012946D01*
X035698Y012726D01*
X035643Y012671D01*
X035533Y012671D01*
X035478Y012726D01*
X035533Y012671D01*
X035643Y012671D01*
X035698Y012726D01*
X035698Y012946D01*
X035643Y013001D01*
X035533Y013001D01*
X035478Y012946D01*
X035846Y012946D02*
X035901Y013001D01*
X036011Y013001D01*
X036066Y012946D01*
X036066Y012891D01*
X036011Y012836D01*
X035901Y012836D01*
X035846Y012781D01*
X035846Y012726D01*
X035901Y012671D01*
X036011Y012671D01*
X036066Y012726D01*
X036011Y012671D01*
X035901Y012671D01*
X035846Y012726D01*
X035846Y012781D01*
X035901Y012836D01*
X036011Y012836D01*
X036066Y012891D01*
X036066Y012946D01*
X036011Y013001D01*
X035901Y013001D01*
X035846Y012946D01*
X035901Y012001D02*
X036011Y012001D01*
X036066Y011946D01*
X036066Y011891D01*
X036011Y011836D01*
X035901Y011836D01*
X035846Y011781D01*
X035846Y011726D01*
X035901Y011671D01*
X036011Y011671D01*
X036066Y011726D01*
X036011Y011671D01*
X035901Y011671D01*
X035846Y011726D01*
X035846Y011781D01*
X035901Y011836D01*
X036011Y011836D01*
X036066Y011891D01*
X036066Y011946D01*
X036011Y012001D01*
X035901Y012001D01*
X035846Y011946D01*
X035901Y012001D01*
X035698Y012001D02*
X035533Y012001D01*
X035478Y011946D01*
X035478Y011726D01*
X035533Y011671D01*
X035698Y011671D01*
X035698Y012001D01*
X035533Y012001D01*
X035478Y011946D01*
X035478Y011726D01*
X035533Y011671D01*
X035698Y011671D01*
X035698Y012001D01*
X035330Y011891D02*
X035219Y012001D01*
X035109Y011891D01*
X035109Y011671D01*
X035109Y011891D01*
X035219Y012001D01*
X035330Y011891D01*
X035330Y011671D01*
X035330Y011891D01*
X035330Y011836D02*
X035109Y011836D01*
X035330Y011836D01*
X035330Y011001D02*
X035164Y011001D01*
X035109Y010946D01*
X035109Y010726D01*
X035164Y010671D01*
X035330Y010671D01*
X035330Y011001D01*
X035164Y011001D01*
X035109Y010946D01*
X035109Y010726D01*
X035164Y010671D01*
X035330Y010671D01*
X035330Y011001D01*
X035478Y011001D02*
X035478Y010671D01*
X035698Y011001D01*
X035698Y010671D01*
X035698Y011001D01*
X035478Y010671D01*
X035478Y011001D01*
X035846Y010946D02*
X035901Y011001D01*
X036011Y011001D01*
X036066Y010946D01*
X036066Y010726D01*
X036011Y010671D01*
X035901Y010671D01*
X035846Y010726D01*
X035846Y010836D01*
X035956Y010836D01*
X035846Y010836D01*
X035846Y010726D01*
X035901Y010671D01*
X036011Y010671D01*
X036066Y010726D01*
X036066Y010946D01*
X036011Y011001D01*
X035901Y011001D01*
X035846Y010946D01*
X035901Y010001D02*
X035846Y009946D01*
X035846Y009891D01*
X035901Y009836D01*
X035846Y009781D01*
X035846Y009726D01*
X035901Y009671D01*
X036011Y009671D01*
X036066Y009726D01*
X036011Y009671D01*
X035901Y009671D01*
X035846Y009726D01*
X035846Y009781D01*
X035901Y009836D01*
X035956Y009836D01*
X035901Y009836D01*
X035846Y009891D01*
X035846Y009946D01*
X035901Y010001D01*
X036011Y010001D01*
X036066Y009946D01*
X036011Y010001D01*
X035901Y010001D01*
X035698Y009726D02*
X035643Y009726D01*
X035643Y009671D01*
X035698Y009671D01*
X035698Y009726D01*
X035643Y009726D01*
X035643Y009671D01*
X035698Y009671D01*
X035698Y009726D01*
X035514Y009726D02*
X035459Y009671D01*
X035349Y009671D01*
X035294Y009726D01*
X035294Y009781D01*
X035349Y009836D01*
X035404Y009836D01*
X035349Y009836D01*
X035294Y009891D01*
X035294Y009946D01*
X035349Y010001D01*
X035459Y010001D01*
X035514Y009946D01*
X035459Y010001D01*
X035349Y010001D01*
X035294Y009946D01*
X035294Y009891D01*
X035349Y009836D01*
X035294Y009781D01*
X035294Y009726D01*
X035349Y009671D01*
X035459Y009671D01*
X035514Y009726D01*
X035145Y009781D02*
X035035Y009671D01*
X034925Y009781D01*
X034925Y010001D01*
X034925Y009781D01*
X035035Y009671D01*
X035145Y009781D01*
X035145Y010001D01*
X035145Y009781D01*
X041625Y009781D02*
X041735Y009671D01*
X041845Y009781D01*
X041845Y010001D01*
X041845Y009781D01*
X041735Y009671D01*
X041625Y009781D01*
X041625Y010001D01*
X041625Y009781D01*
X041994Y009781D02*
X041994Y009726D01*
X042049Y009671D01*
X042159Y009671D01*
X042214Y009726D01*
X042159Y009671D01*
X042049Y009671D01*
X041994Y009726D01*
X041994Y009781D01*
X042049Y009836D01*
X042104Y009836D01*
X042049Y009836D01*
X041994Y009891D01*
X041994Y009946D01*
X042049Y010001D01*
X042159Y010001D01*
X042214Y009946D01*
X042159Y010001D01*
X042049Y010001D01*
X041994Y009946D01*
X041994Y009891D01*
X042049Y009836D01*
X041994Y009781D01*
X042343Y009726D02*
X042343Y009671D01*
X042398Y009671D01*
X042398Y009726D01*
X042343Y009726D01*
X042343Y009671D01*
X042398Y009671D01*
X042398Y009726D01*
X042343Y009726D01*
X042546Y009726D02*
X042601Y009671D01*
X042711Y009671D01*
X042766Y009726D01*
X042711Y009671D01*
X042601Y009671D01*
X042546Y009726D01*
X042546Y009781D01*
X042601Y009836D01*
X042656Y009836D01*
X042601Y009836D01*
X042546Y009891D01*
X042546Y009946D01*
X042601Y010001D01*
X042711Y010001D01*
X042766Y009946D01*
X042711Y010001D01*
X042601Y010001D01*
X042546Y009946D01*
X042546Y009891D01*
X042601Y009836D01*
X042546Y009781D01*
X042546Y009726D01*
X042601Y010671D02*
X042546Y010726D01*
X042546Y010836D01*
X042656Y010836D01*
X042546Y010836D01*
X042546Y010726D01*
X042601Y010671D01*
X042711Y010671D01*
X042766Y010726D01*
X042766Y010946D01*
X042711Y011001D01*
X042601Y011001D01*
X042546Y010946D01*
X042601Y011001D01*
X042711Y011001D01*
X042766Y010946D01*
X042766Y010726D01*
X042711Y010671D01*
X042601Y010671D01*
X042398Y010671D02*
X042398Y011001D01*
X042178Y010671D01*
X042178Y011001D01*
X042178Y010671D01*
X042398Y011001D01*
X042398Y010671D01*
X042030Y010671D02*
X042030Y011001D01*
X041864Y011001D01*
X041809Y010946D01*
X041809Y010726D01*
X041864Y010671D01*
X042030Y010671D01*
X041864Y010671D01*
X041809Y010726D01*
X041809Y010946D01*
X041864Y011001D01*
X042030Y011001D01*
X042030Y010671D01*
X042030Y011671D02*
X042030Y011891D01*
X041919Y012001D01*
X041809Y011891D01*
X041809Y011671D01*
X041809Y011891D01*
X041919Y012001D01*
X042030Y011891D01*
X042030Y011671D01*
X042178Y011726D02*
X042178Y011946D01*
X042233Y012001D01*
X042398Y012001D01*
X042398Y011671D01*
X042233Y011671D01*
X042178Y011726D01*
X042178Y011946D01*
X042233Y012001D01*
X042398Y012001D01*
X042398Y011671D01*
X042233Y011671D01*
X042178Y011726D01*
X042030Y011836D02*
X041809Y011836D01*
X042030Y011836D01*
X042546Y011781D02*
X042546Y011726D01*
X042601Y011671D01*
X042711Y011671D01*
X042766Y011726D01*
X042711Y011671D01*
X042601Y011671D01*
X042546Y011726D01*
X042546Y011781D01*
X042601Y011836D01*
X042711Y011836D01*
X042766Y011891D01*
X042766Y011946D01*
X042711Y012001D01*
X042601Y012001D01*
X042546Y011946D01*
X042601Y012001D01*
X042711Y012001D01*
X042766Y011946D01*
X042766Y011891D01*
X042711Y011836D01*
X042601Y011836D01*
X042546Y011781D01*
X042601Y012671D02*
X042711Y012671D01*
X042766Y012726D01*
X042711Y012671D01*
X042601Y012671D01*
X042546Y012726D01*
X042546Y012781D01*
X042601Y012836D01*
X042711Y012836D01*
X042766Y012891D01*
X042766Y012946D01*
X042711Y013001D01*
X042601Y013001D01*
X042546Y012946D01*
X042601Y013001D01*
X042711Y013001D01*
X042766Y012946D01*
X042766Y012891D01*
X042711Y012836D01*
X042601Y012836D01*
X042546Y012781D01*
X042546Y012726D01*
X042601Y012671D01*
X042398Y012726D02*
X042343Y012671D01*
X042233Y012671D01*
X042178Y012726D01*
X042233Y012671D01*
X042343Y012671D01*
X042398Y012726D01*
X042398Y012946D01*
X042343Y013001D01*
X042233Y013001D01*
X042178Y012946D01*
X042233Y013001D01*
X042343Y013001D01*
X042398Y012946D01*
X042398Y012726D01*
X042030Y012671D02*
X042030Y013001D01*
X042030Y012671D01*
X041809Y012671D01*
X042030Y012671D01*
X042042Y013671D02*
X042042Y014001D01*
X042042Y013671D01*
X041784Y013671D02*
X041564Y013671D01*
X041784Y013671D01*
X041674Y013671D02*
X041674Y014001D01*
X041784Y013891D01*
X041674Y014001D01*
X041674Y013671D01*
X041932Y014001D02*
X042152Y014001D01*
X041932Y014001D01*
X042301Y014001D02*
X042301Y013671D01*
X042521Y014001D01*
X042521Y013671D01*
X042521Y014001D01*
X042301Y013671D01*
X042301Y014001D01*
X042656Y014001D02*
X042766Y014001D01*
X042656Y014001D01*
X042711Y014001D02*
X042711Y013671D01*
X042711Y014001D01*
X042766Y013671D02*
X042656Y013671D01*
X042766Y013671D01*
X042766Y014671D02*
X042656Y014671D01*
X042766Y014671D01*
X042711Y014671D02*
X042711Y015001D01*
X042711Y014671D01*
X042521Y014671D02*
X042521Y015001D01*
X042301Y014671D01*
X042301Y015001D01*
X042301Y014671D01*
X042521Y015001D01*
X042521Y014671D01*
X042656Y015001D02*
X042766Y015001D01*
X042656Y015001D01*
X042152Y015001D02*
X041932Y015001D01*
X042152Y015001D01*
X042042Y015001D02*
X042042Y014671D01*
X042042Y015001D01*
X041784Y014946D02*
X041729Y015001D01*
X041619Y015001D01*
X041564Y014946D01*
X041784Y014726D01*
X041729Y014671D01*
X041619Y014671D01*
X041564Y014726D01*
X041564Y014946D01*
X041784Y014726D01*
X041784Y014946D01*
X041729Y015001D01*
X041619Y015001D01*
X041564Y014946D01*
X041564Y014726D01*
X041619Y014671D01*
X041729Y014671D01*
X041784Y014726D01*
X041784Y014946D01*
X041735Y015871D02*
X041625Y015981D01*
X041625Y016201D01*
X041845Y016201D02*
X041845Y015981D01*
X041735Y015871D01*
X041994Y015926D02*
X042049Y015871D01*
X042159Y015871D01*
X042214Y015926D01*
X042343Y015926D02*
X042343Y015871D01*
X042398Y015871D01*
X042398Y015926D01*
X042343Y015926D01*
X042546Y015926D02*
X042601Y015871D01*
X042711Y015871D01*
X042766Y015926D01*
X042656Y016036D02*
X042601Y016036D01*
X042546Y015981D01*
X042546Y015926D01*
X042601Y016036D02*
X042546Y016091D01*
X042546Y016146D01*
X042601Y016201D01*
X042711Y016201D01*
X042766Y016146D01*
X042214Y016146D02*
X042159Y016201D01*
X042049Y016201D01*
X041994Y016146D01*
X041994Y016091D01*
X042049Y016036D01*
X041994Y015981D01*
X041994Y015926D01*
X042049Y016036D02*
X042104Y016036D01*
X042178Y016871D02*
X042178Y017201D01*
X042030Y017201D02*
X041864Y017201D01*
X041809Y017146D01*
X041809Y016926D01*
X041864Y016871D01*
X042030Y016871D01*
X042030Y017201D01*
X042178Y016871D02*
X042398Y017201D01*
X042398Y016871D01*
X042546Y016926D02*
X042546Y017036D01*
X042656Y017036D01*
X042546Y016926D02*
X042601Y016871D01*
X042711Y016871D01*
X042766Y016926D01*
X042766Y017146D01*
X042711Y017201D01*
X042601Y017201D01*
X042546Y017146D01*
X042601Y017871D02*
X042711Y017871D01*
X042766Y017926D01*
X042711Y018036D02*
X042601Y018036D01*
X042546Y017981D01*
X042546Y017926D01*
X042601Y017871D01*
X042711Y018036D02*
X042766Y018091D01*
X042766Y018146D01*
X042711Y018201D01*
X042601Y018201D01*
X042546Y018146D01*
X042398Y018201D02*
X042233Y018201D01*
X042178Y018146D01*
X042178Y017926D01*
X042233Y017871D01*
X042398Y017871D01*
X042398Y018201D01*
X042030Y018091D02*
X041919Y018201D01*
X041809Y018091D01*
X041809Y017871D01*
X041809Y018036D02*
X042030Y018036D01*
X042030Y018091D02*
X042030Y017871D01*
X042030Y018871D02*
X041809Y018871D01*
X042030Y018871D02*
X042030Y019201D01*
X042178Y019146D02*
X042233Y019201D01*
X042343Y019201D01*
X042398Y019146D01*
X042398Y018926D01*
X042343Y018871D01*
X042233Y018871D01*
X042178Y018926D01*
X042546Y018926D02*
X042601Y018871D01*
X042711Y018871D01*
X042766Y018926D01*
X042711Y019036D02*
X042601Y019036D01*
X042546Y018981D01*
X042546Y018926D01*
X042711Y019036D02*
X042766Y019091D01*
X042766Y019146D01*
X042711Y019201D01*
X042601Y019201D01*
X042546Y019146D01*
X042521Y019871D02*
X042521Y020201D01*
X042301Y019871D01*
X042301Y020201D01*
X042152Y020201D02*
X041932Y020201D01*
X042042Y020201D02*
X042042Y019871D01*
X041784Y019871D02*
X041564Y019871D01*
X041674Y019871D02*
X041674Y020201D01*
X041784Y020091D01*
X041729Y020871D02*
X041784Y020926D01*
X041564Y021146D01*
X041564Y020926D01*
X041619Y020871D01*
X041729Y020871D01*
X041784Y020926D02*
X041784Y021146D01*
X041729Y021201D01*
X041619Y021201D01*
X041564Y021146D01*
X041932Y021201D02*
X042152Y021201D01*
X042042Y021201D02*
X042042Y020871D01*
X042301Y020871D02*
X042301Y021201D01*
X042521Y021201D02*
X042301Y020871D01*
X042521Y020871D02*
X042521Y021201D01*
X042656Y021201D02*
X042766Y021201D01*
X042711Y021201D02*
X042711Y020871D01*
X042766Y020871D02*
X042656Y020871D01*
X042656Y020201D02*
X042766Y020201D01*
X042711Y020201D02*
X042711Y019871D01*
X042766Y019871D02*
X042656Y019871D01*
X042711Y022071D02*
X042766Y022126D01*
X042711Y022071D02*
X042601Y022071D01*
X042546Y022126D01*
X042546Y022181D01*
X042601Y022236D01*
X042656Y022236D01*
X042601Y022236D02*
X042546Y022291D01*
X042546Y022346D01*
X042601Y022401D01*
X042711Y022401D01*
X042766Y022346D01*
X042398Y022126D02*
X042343Y022126D01*
X042343Y022071D01*
X042398Y022071D01*
X042398Y022126D01*
X042214Y022126D02*
X042159Y022071D01*
X042049Y022071D01*
X041994Y022126D01*
X041994Y022181D01*
X042049Y022236D01*
X042104Y022236D01*
X042049Y022236D02*
X041994Y022291D01*
X041994Y022346D01*
X042049Y022401D01*
X042159Y022401D01*
X042214Y022346D01*
X041845Y022401D02*
X041845Y022181D01*
X041735Y022071D01*
X041625Y022181D01*
X041625Y022401D01*
X041864Y023071D02*
X041809Y023126D01*
X041809Y023346D01*
X041864Y023401D01*
X042030Y023401D01*
X042030Y023071D01*
X041864Y023071D01*
X042178Y023071D02*
X042178Y023401D01*
X042398Y023401D02*
X042178Y023071D01*
X042398Y023071D02*
X042398Y023401D01*
X042546Y023346D02*
X042601Y023401D01*
X042711Y023401D01*
X042766Y023346D01*
X042766Y023126D01*
X042711Y023071D01*
X042601Y023071D01*
X042546Y023126D01*
X042546Y023236D01*
X042656Y023236D01*
X042601Y024071D02*
X042711Y024071D01*
X042766Y024126D01*
X042711Y024236D02*
X042601Y024236D01*
X042546Y024181D01*
X042546Y024126D01*
X042601Y024071D01*
X042711Y024236D02*
X042766Y024291D01*
X042766Y024346D01*
X042711Y024401D01*
X042601Y024401D01*
X042546Y024346D01*
X042398Y024401D02*
X042233Y024401D01*
X042178Y024346D01*
X042178Y024126D01*
X042233Y024071D01*
X042398Y024071D01*
X042398Y024401D01*
X042030Y024291D02*
X042030Y024071D01*
X042030Y024236D02*
X041809Y024236D01*
X041809Y024291D02*
X041809Y024071D01*
X041809Y024291D02*
X041919Y024401D01*
X042030Y024291D01*
X042030Y025071D02*
X041809Y025071D01*
X042030Y025071D02*
X042030Y025401D01*
X042178Y025346D02*
X042233Y025401D01*
X042343Y025401D01*
X042398Y025346D01*
X042398Y025126D01*
X042343Y025071D01*
X042233Y025071D01*
X042178Y025126D01*
X042546Y025126D02*
X042601Y025071D01*
X042711Y025071D01*
X042766Y025126D01*
X042711Y025236D02*
X042601Y025236D01*
X042546Y025181D01*
X042546Y025126D01*
X042711Y025236D02*
X042766Y025291D01*
X042766Y025346D01*
X042711Y025401D01*
X042601Y025401D01*
X042546Y025346D01*
X042521Y026071D02*
X042521Y026401D01*
X042301Y026071D01*
X042301Y026401D01*
X042152Y026401D02*
X041932Y026401D01*
X042042Y026401D02*
X042042Y026071D01*
X041784Y026071D02*
X041564Y026071D01*
X041674Y026071D02*
X041674Y026401D01*
X041784Y026291D01*
X042656Y026401D02*
X042766Y026401D01*
X042711Y026401D02*
X042711Y026071D01*
X042766Y026071D02*
X042656Y026071D01*
X042656Y027071D02*
X042766Y027071D01*
X042711Y027071D02*
X042711Y027401D01*
X042766Y027401D02*
X042656Y027401D01*
X042521Y027401D02*
X042301Y027071D01*
X042301Y027401D01*
X042152Y027401D02*
X041932Y027401D01*
X042042Y027401D02*
X042042Y027071D01*
X041784Y027126D02*
X041564Y027346D01*
X041564Y027126D01*
X041619Y027071D01*
X041729Y027071D01*
X041784Y027126D01*
X041784Y027346D01*
X041729Y027401D01*
X041619Y027401D01*
X041564Y027346D01*
X042521Y027401D02*
X042521Y027071D01*
X042601Y028271D02*
X042711Y028271D01*
X042766Y028326D01*
X042656Y028436D02*
X042601Y028436D01*
X042546Y028381D01*
X042546Y028326D01*
X042601Y028271D01*
X042601Y028436D02*
X042546Y028491D01*
X042546Y028546D01*
X042601Y028601D01*
X042711Y028601D01*
X042766Y028546D01*
X042398Y028326D02*
X042343Y028326D01*
X042343Y028271D01*
X042398Y028271D01*
X042398Y028326D01*
X042214Y028326D02*
X042159Y028271D01*
X042049Y028271D01*
X041994Y028326D01*
X041994Y028381D01*
X042049Y028436D01*
X042104Y028436D01*
X042049Y028436D02*
X041994Y028491D01*
X041994Y028546D01*
X042049Y028601D01*
X042159Y028601D01*
X042214Y028546D01*
X041845Y028601D02*
X041845Y028381D01*
X041735Y028271D01*
X041625Y028381D01*
X041625Y028601D01*
X041864Y029271D02*
X041809Y029326D01*
X041809Y029546D01*
X041864Y029601D01*
X042030Y029601D01*
X042030Y029271D01*
X041864Y029271D01*
X042178Y029271D02*
X042178Y029601D01*
X042398Y029601D02*
X042178Y029271D01*
X042398Y029271D02*
X042398Y029601D01*
X042546Y029546D02*
X042601Y029601D01*
X042711Y029601D01*
X042766Y029546D01*
X042766Y029326D01*
X042711Y029271D01*
X042601Y029271D01*
X042546Y029326D01*
X042546Y029436D01*
X042656Y029436D01*
X042601Y030271D02*
X042711Y030271D01*
X042766Y030326D01*
X042711Y030436D02*
X042601Y030436D01*
X042546Y030381D01*
X042546Y030326D01*
X042601Y030271D01*
X042711Y030436D02*
X042766Y030491D01*
X042766Y030546D01*
X042711Y030601D01*
X042601Y030601D01*
X042546Y030546D01*
X042398Y030601D02*
X042233Y030601D01*
X042178Y030546D01*
X042178Y030326D01*
X042233Y030271D01*
X042398Y030271D01*
X042398Y030601D01*
X042030Y030491D02*
X041919Y030601D01*
X041809Y030491D01*
X041809Y030271D01*
X041809Y030436D02*
X042030Y030436D01*
X042030Y030491D02*
X042030Y030271D01*
X042030Y031271D02*
X041809Y031271D01*
X042030Y031271D02*
X042030Y031601D01*
X042178Y031546D02*
X042233Y031601D01*
X042343Y031601D01*
X042398Y031546D01*
X042398Y031326D01*
X042343Y031271D01*
X042233Y031271D01*
X042178Y031326D01*
X042546Y031326D02*
X042601Y031271D01*
X042711Y031271D01*
X042766Y031326D01*
X042711Y031436D02*
X042601Y031436D01*
X042546Y031381D01*
X042546Y031326D01*
X042711Y031436D02*
X042766Y031491D01*
X042766Y031546D01*
X042711Y031601D01*
X042601Y031601D01*
X042546Y031546D01*
X042521Y032271D02*
X042521Y032601D01*
X042301Y032271D01*
X042301Y032601D01*
X042152Y032601D02*
X041932Y032601D01*
X042042Y032601D02*
X042042Y032271D01*
X041784Y032271D02*
X041564Y032271D01*
X041674Y032271D02*
X041674Y032601D01*
X041784Y032491D01*
X041729Y033271D02*
X041784Y033326D01*
X041564Y033546D01*
X041564Y033326D01*
X041619Y033271D01*
X041729Y033271D01*
X041784Y033326D02*
X041784Y033546D01*
X041729Y033601D01*
X041619Y033601D01*
X041564Y033546D01*
X041932Y033601D02*
X042152Y033601D01*
X042042Y033601D02*
X042042Y033271D01*
X042301Y033271D02*
X042301Y033601D01*
X042521Y033601D02*
X042301Y033271D01*
X042521Y033271D02*
X042521Y033601D01*
X042656Y033601D02*
X042766Y033601D01*
X042711Y033601D02*
X042711Y033271D01*
X042766Y033271D02*
X042656Y033271D01*
X042656Y032601D02*
X042766Y032601D01*
X042711Y032601D02*
X042711Y032271D01*
X042766Y032271D02*
X042656Y032271D01*
X042711Y034471D02*
X042766Y034526D01*
X042711Y034471D02*
X042601Y034471D01*
X042546Y034526D01*
X042546Y034581D01*
X042601Y034636D01*
X042656Y034636D01*
X042601Y034636D02*
X042546Y034691D01*
X042546Y034746D01*
X042601Y034801D01*
X042711Y034801D01*
X042766Y034746D01*
X042398Y034526D02*
X042343Y034526D01*
X042343Y034471D01*
X042398Y034471D01*
X042398Y034526D01*
X042214Y034526D02*
X042159Y034471D01*
X042049Y034471D01*
X041994Y034526D01*
X041994Y034581D01*
X042049Y034636D01*
X042104Y034636D01*
X042049Y034636D02*
X041994Y034691D01*
X041994Y034746D01*
X042049Y034801D01*
X042159Y034801D01*
X042214Y034746D01*
X041845Y034801D02*
X041845Y034581D01*
X041735Y034471D01*
X041625Y034581D01*
X041625Y034801D01*
X041864Y035471D02*
X041809Y035526D01*
X041809Y035746D01*
X041864Y035801D01*
X042030Y035801D01*
X042030Y035471D01*
X041864Y035471D01*
X042178Y035471D02*
X042178Y035801D01*
X042398Y035801D02*
X042178Y035471D01*
X042398Y035471D02*
X042398Y035801D01*
X042546Y035746D02*
X042601Y035801D01*
X042711Y035801D01*
X042766Y035746D01*
X042766Y035526D01*
X042711Y035471D01*
X042601Y035471D01*
X042546Y035526D01*
X042546Y035636D01*
X042656Y035636D01*
X042601Y036471D02*
X042711Y036471D01*
X042766Y036526D01*
X042711Y036636D02*
X042601Y036636D01*
X042546Y036581D01*
X042546Y036526D01*
X042601Y036471D01*
X042711Y036636D02*
X042766Y036691D01*
X042766Y036746D01*
X042711Y036801D01*
X042601Y036801D01*
X042546Y036746D01*
X042398Y036801D02*
X042233Y036801D01*
X042178Y036746D01*
X042178Y036526D01*
X042233Y036471D01*
X042398Y036471D01*
X042398Y036801D01*
X042030Y036691D02*
X042030Y036471D01*
X042030Y036636D02*
X041809Y036636D01*
X041809Y036691D02*
X041809Y036471D01*
X041809Y036691D02*
X041919Y036801D01*
X042030Y036691D01*
X042030Y037471D02*
X041809Y037471D01*
X042030Y037471D02*
X042030Y037801D01*
X042178Y037746D02*
X042233Y037801D01*
X042343Y037801D01*
X042398Y037746D01*
X042398Y037526D01*
X042343Y037471D01*
X042233Y037471D01*
X042178Y037526D01*
X042546Y037526D02*
X042601Y037471D01*
X042711Y037471D01*
X042766Y037526D01*
X042711Y037636D02*
X042601Y037636D01*
X042546Y037581D01*
X042546Y037526D01*
X042711Y037636D02*
X042766Y037691D01*
X042766Y037746D01*
X042711Y037801D01*
X042601Y037801D01*
X042546Y037746D01*
X042521Y038471D02*
X042521Y038801D01*
X042301Y038471D01*
X042301Y038801D01*
X042152Y038801D02*
X041932Y038801D01*
X042042Y038801D02*
X042042Y038471D01*
X041784Y038471D02*
X041564Y038471D01*
X041674Y038471D02*
X041674Y038801D01*
X041784Y038691D01*
X042656Y038801D02*
X042766Y038801D01*
X042711Y038801D02*
X042711Y038471D01*
X042766Y038471D02*
X042656Y038471D01*
X042656Y039471D02*
X042766Y039471D01*
X042711Y039471D02*
X042711Y039801D01*
X042766Y039801D02*
X042656Y039801D01*
X042521Y039801D02*
X042301Y039471D01*
X042301Y039801D01*
X042152Y039801D02*
X041932Y039801D01*
X042042Y039801D02*
X042042Y039471D01*
X041784Y039526D02*
X041564Y039746D01*
X041564Y039526D01*
X041619Y039471D01*
X041729Y039471D01*
X041784Y039526D01*
X041784Y039746D01*
X041729Y039801D01*
X041619Y039801D01*
X041564Y039746D01*
X042521Y039801D02*
X042521Y039471D01*
X042601Y040671D02*
X042711Y040671D01*
X042766Y040726D01*
X042711Y040671D01*
X042601Y040671D01*
X042546Y040726D01*
X042546Y040781D01*
X042601Y040836D01*
X042656Y040836D01*
X042601Y040836D01*
X042546Y040891D01*
X042546Y040946D01*
X042601Y041001D01*
X042711Y041001D01*
X042766Y040946D01*
X042711Y041001D01*
X042601Y041001D01*
X042546Y040946D01*
X042546Y040891D01*
X042601Y040836D01*
X042546Y040781D01*
X042546Y040726D01*
X042601Y040671D01*
X042398Y040671D02*
X042343Y040671D01*
X042343Y040726D01*
X042398Y040726D01*
X042398Y040671D01*
X042343Y040671D01*
X042343Y040726D01*
X042398Y040726D01*
X042398Y040671D01*
X042214Y040726D02*
X042159Y040671D01*
X042049Y040671D01*
X041994Y040726D01*
X041994Y040781D01*
X042049Y040836D01*
X042104Y040836D01*
X042049Y040836D01*
X041994Y040891D01*
X041994Y040946D01*
X042049Y041001D01*
X042159Y041001D01*
X042214Y040946D01*
X042159Y041001D01*
X042049Y041001D01*
X041994Y040946D01*
X041994Y040891D01*
X042049Y040836D01*
X041994Y040781D01*
X041994Y040726D01*
X042049Y040671D01*
X042159Y040671D01*
X042214Y040726D01*
X041845Y040781D02*
X041845Y041001D01*
X041845Y040781D01*
X041735Y040671D01*
X041625Y040781D01*
X041625Y041001D01*
X041625Y040781D01*
X041735Y040671D01*
X041845Y040781D01*
X041864Y041671D02*
X041809Y041726D01*
X041809Y041946D01*
X041864Y042001D01*
X042030Y042001D01*
X042030Y041671D01*
X041864Y041671D01*
X041809Y041726D01*
X041809Y041946D01*
X041864Y042001D01*
X042030Y042001D01*
X042030Y041671D01*
X041864Y041671D01*
X042178Y041671D02*
X042178Y042001D01*
X042178Y041671D01*
X042398Y042001D01*
X042398Y041671D01*
X042398Y042001D01*
X042178Y041671D01*
X042546Y041726D02*
X042546Y041836D01*
X042656Y041836D01*
X042546Y041836D01*
X042546Y041726D01*
X042601Y041671D01*
X042711Y041671D01*
X042766Y041726D01*
X042766Y041946D01*
X042711Y042001D01*
X042601Y042001D01*
X042546Y041946D01*
X042601Y042001D01*
X042711Y042001D01*
X042766Y041946D01*
X042766Y041726D01*
X042711Y041671D01*
X042601Y041671D01*
X042546Y041726D01*
X042601Y042671D02*
X042711Y042671D01*
X042766Y042726D01*
X042711Y042671D01*
X042601Y042671D01*
X042546Y042726D01*
X042546Y042781D01*
X042601Y042836D01*
X042711Y042836D01*
X042766Y042891D01*
X042766Y042946D01*
X042711Y043001D01*
X042601Y043001D01*
X042546Y042946D01*
X042601Y043001D01*
X042711Y043001D01*
X042766Y042946D01*
X042766Y042891D01*
X042711Y042836D01*
X042601Y042836D01*
X042546Y042781D01*
X042546Y042726D01*
X042601Y042671D01*
X042398Y042671D02*
X042233Y042671D01*
X042178Y042726D01*
X042178Y042946D01*
X042233Y043001D01*
X042398Y043001D01*
X042398Y042671D01*
X042233Y042671D01*
X042178Y042726D01*
X042178Y042946D01*
X042233Y043001D01*
X042398Y043001D01*
X042398Y042671D01*
X042030Y042671D02*
X042030Y042891D01*
X041919Y043001D01*
X041809Y042891D01*
X041809Y042671D01*
X041809Y042891D01*
X041919Y043001D01*
X042030Y042891D01*
X042030Y042671D01*
X042030Y042836D02*
X041809Y042836D01*
X042030Y042836D01*
X042030Y043671D02*
X041809Y043671D01*
X042030Y043671D01*
X042030Y044001D01*
X042030Y043671D01*
X042178Y043726D02*
X042233Y043671D01*
X042343Y043671D01*
X042398Y043726D01*
X042398Y043946D01*
X042343Y044001D01*
X042233Y044001D01*
X042178Y043946D01*
X042233Y044001D01*
X042343Y044001D01*
X042398Y043946D01*
X042398Y043726D01*
X042343Y043671D01*
X042233Y043671D01*
X042178Y043726D01*
X042546Y043726D02*
X042601Y043671D01*
X042711Y043671D01*
X042766Y043726D01*
X042711Y043671D01*
X042601Y043671D01*
X042546Y043726D01*
X042546Y043781D01*
X042601Y043836D01*
X042711Y043836D01*
X042766Y043891D01*
X042766Y043946D01*
X042711Y044001D01*
X042601Y044001D01*
X042546Y043946D01*
X042601Y044001D01*
X042711Y044001D01*
X042766Y043946D01*
X042766Y043891D01*
X042711Y043836D01*
X042601Y043836D01*
X042546Y043781D01*
X042546Y043726D01*
X042521Y044671D02*
X042521Y045001D01*
X042301Y044671D01*
X042301Y045001D01*
X042301Y044671D01*
X042521Y045001D01*
X042521Y044671D01*
X042656Y044671D02*
X042766Y044671D01*
X042656Y044671D01*
X042711Y044671D02*
X042711Y045001D01*
X042711Y044671D01*
X042766Y045001D02*
X042656Y045001D01*
X042766Y045001D01*
X042152Y045001D02*
X041932Y045001D01*
X042152Y045001D01*
X042042Y045001D02*
X042042Y044671D01*
X042042Y045001D01*
X041784Y044891D02*
X041674Y045001D01*
X041674Y044671D01*
X041674Y045001D01*
X041784Y044891D01*
X041784Y044671D02*
X041564Y044671D01*
X041784Y044671D01*
X041729Y045671D02*
X041784Y045726D01*
X041564Y045946D01*
X041564Y045726D01*
X041619Y045671D01*
X041729Y045671D01*
X041784Y045726D01*
X041784Y045946D01*
X041729Y046001D01*
X041619Y046001D01*
X041564Y045946D01*
X041784Y045726D01*
X041784Y045946D01*
X041729Y046001D01*
X041619Y046001D01*
X041564Y045946D01*
X041564Y045726D01*
X041619Y045671D01*
X041729Y045671D01*
X042042Y045671D02*
X042042Y046001D01*
X042042Y045671D01*
X042301Y045671D02*
X042301Y046001D01*
X042301Y045671D01*
X042521Y046001D01*
X042521Y045671D01*
X042521Y046001D01*
X042301Y045671D01*
X042656Y045671D02*
X042766Y045671D01*
X042656Y045671D01*
X042711Y045671D02*
X042711Y046001D01*
X042711Y045671D01*
X042766Y046001D02*
X042656Y046001D01*
X042766Y046001D01*
X042152Y046001D02*
X041932Y046001D01*
X042152Y046001D01*
X035084Y039746D02*
X035029Y039801D01*
X034919Y039801D01*
X034864Y039746D01*
X035084Y039526D01*
X035029Y039471D01*
X034919Y039471D01*
X034864Y039526D01*
X034864Y039746D01*
X035084Y039746D02*
X035084Y039526D01*
X021684Y039526D02*
X021464Y039746D01*
X021464Y039526D01*
X021519Y039471D01*
X021629Y039471D01*
X021684Y039526D01*
X021684Y039746D01*
X021629Y039801D01*
X021519Y039801D01*
X021464Y039746D01*
D11*
X022036Y040352D02*
X021879Y040509D01*
X021879Y040942D01*
X021879Y041730D02*
X021879Y042320D01*
X022824Y042320D01*
X022824Y041730D01*
X022824Y040942D02*
X022824Y040509D01*
X022666Y040352D01*
X022036Y040352D01*
X021879Y036120D02*
X021879Y035530D01*
X021879Y034742D02*
X021879Y034309D01*
X022036Y034152D01*
X022666Y034152D01*
X022824Y034309D01*
X022824Y034742D01*
X022824Y035530D02*
X022824Y036120D01*
X021879Y036120D01*
X016124Y036120D02*
X016124Y035530D01*
X016124Y034742D02*
X016124Y034309D01*
X015966Y034152D01*
X015336Y034152D01*
X015179Y034309D01*
X015179Y034742D01*
X015179Y035530D02*
X015179Y036120D01*
X016124Y036120D01*
X015966Y040352D02*
X015336Y040352D01*
X015179Y040509D01*
X015179Y040942D01*
X015179Y041730D02*
X015179Y042320D01*
X016124Y042320D01*
X016124Y041730D01*
X016124Y040942D02*
X016124Y040509D01*
X015966Y040352D01*
X028579Y040509D02*
X028736Y040352D01*
X029366Y040352D01*
X029524Y040509D01*
X029524Y040942D01*
X029524Y041730D02*
X029524Y042320D01*
X028579Y042320D01*
X028579Y041730D01*
X028579Y040942D02*
X028579Y040509D01*
X028579Y036120D02*
X028579Y035530D01*
X028579Y034742D02*
X028579Y034309D01*
X028736Y034152D01*
X029366Y034152D01*
X029524Y034309D01*
X029524Y034742D01*
X029524Y035530D02*
X029524Y036120D01*
X028579Y036120D01*
X035279Y036120D02*
X035279Y035530D01*
X035279Y034742D02*
X035279Y034309D01*
X035436Y034152D01*
X036066Y034152D01*
X036224Y034309D01*
X036224Y034742D01*
X036224Y035530D02*
X036224Y036120D01*
X035279Y036120D01*
X035436Y040352D02*
X035279Y040509D01*
X035279Y040942D01*
X035279Y041730D02*
X035279Y042320D01*
X036224Y042320D01*
X036224Y041730D01*
X036224Y040942D02*
X036224Y040509D01*
X036066Y040352D01*
X035436Y040352D01*
X041979Y040509D02*
X042136Y040352D01*
X042766Y040352D01*
X042924Y040509D01*
X042924Y040942D01*
X042924Y041730D02*
X042924Y042320D01*
X041979Y042320D01*
X041979Y041730D01*
X041979Y040942D02*
X041979Y040509D01*
X041979Y036120D02*
X041979Y035530D01*
X041979Y034742D02*
X041979Y034309D01*
X042136Y034152D01*
X042766Y034152D01*
X042924Y034309D01*
X042924Y034742D01*
X042924Y035530D02*
X042924Y036120D01*
X041979Y036120D01*
X041979Y029920D02*
X041979Y029330D01*
X041979Y029920D02*
X042924Y029920D01*
X042924Y029330D01*
X042924Y028542D02*
X042924Y028109D01*
X042766Y027952D01*
X042136Y027952D01*
X041979Y028109D01*
X041979Y028542D01*
X036224Y028542D02*
X036224Y028109D01*
X036066Y027952D01*
X035436Y027952D01*
X035279Y028109D01*
X035279Y028542D01*
X035279Y029330D02*
X035279Y029920D01*
X036224Y029920D01*
X036224Y029330D01*
X029524Y029330D02*
X029524Y029920D01*
X028579Y029920D01*
X028579Y029330D01*
X028579Y028542D02*
X028579Y028109D01*
X028736Y027952D01*
X029366Y027952D01*
X029524Y028109D01*
X029524Y028542D01*
X022824Y028542D02*
X022824Y028109D01*
X022666Y027952D01*
X022036Y027952D01*
X021879Y028109D01*
X021879Y028542D01*
X021879Y029330D02*
X021879Y029920D01*
X022824Y029920D01*
X022824Y029330D01*
X016124Y029330D02*
X016124Y029920D01*
X015179Y029920D01*
X015179Y029330D01*
X015179Y028542D02*
X015179Y028109D01*
X015336Y027952D01*
X015966Y027952D01*
X016124Y028109D01*
X016124Y028542D01*
X016124Y023720D02*
X015179Y023720D01*
X015179Y023130D01*
X015179Y022342D02*
X015179Y021909D01*
X015336Y021752D01*
X015966Y021752D01*
X016124Y021909D01*
X016124Y022342D01*
X016124Y023130D02*
X016124Y023720D01*
X021879Y023720D02*
X021879Y023130D01*
X021879Y022342D02*
X021879Y021909D01*
X022036Y021752D01*
X022666Y021752D01*
X022824Y021909D01*
X022824Y022342D01*
X022824Y023130D02*
X022824Y023720D01*
X021879Y023720D01*
X028579Y023720D02*
X028579Y023130D01*
X028579Y022342D02*
X028579Y021909D01*
X028736Y021752D01*
X029366Y021752D01*
X029524Y021909D01*
X029524Y022342D01*
X029524Y023130D02*
X029524Y023720D01*
X028579Y023720D01*
X035279Y023720D02*
X035279Y023130D01*
X035279Y022342D02*
X035279Y021909D01*
X035436Y021752D01*
X036066Y021752D01*
X036224Y021909D01*
X036224Y022342D01*
X036224Y023130D02*
X036224Y023720D01*
X035279Y023720D01*
X041979Y023720D02*
X041979Y023130D01*
X041979Y022342D02*
X041979Y021909D01*
X042136Y021752D01*
X042766Y021752D01*
X042924Y021909D01*
X042924Y022342D01*
X042924Y023130D02*
X042924Y023720D01*
X041979Y023720D01*
X041979Y017520D02*
X041979Y016930D01*
X041979Y017520D02*
X042924Y017520D01*
X042924Y016930D01*
X042924Y016142D02*
X042924Y015709D01*
X042766Y015552D01*
X042136Y015552D01*
X041979Y015709D01*
X041979Y016142D01*
X036224Y016142D02*
X036224Y015709D01*
X036066Y015552D01*
X035436Y015552D01*
X035279Y015709D01*
X035279Y016142D01*
X035279Y016930D02*
X035279Y017520D01*
X036224Y017520D01*
X036224Y016930D01*
X029524Y016930D02*
X029524Y017520D01*
X028579Y017520D01*
X028579Y016930D01*
X028579Y016142D02*
X028579Y015709D01*
X028736Y015552D01*
X029366Y015552D01*
X029524Y015709D01*
X029524Y016142D01*
X022824Y016142D02*
X022824Y015709D01*
X022666Y015552D01*
X022036Y015552D01*
X021879Y015709D01*
X021879Y016142D01*
X021879Y016930D02*
X021879Y017520D01*
X022824Y017520D01*
X022824Y016930D01*
X016124Y016930D02*
X016124Y017520D01*
X015179Y017520D01*
X015179Y016930D01*
X015179Y016142D02*
X015179Y015709D01*
X015336Y015552D01*
X015966Y015552D01*
X016124Y015709D01*
X016124Y016142D01*
X016124Y011320D02*
X015179Y011320D01*
X015179Y010730D01*
X015179Y009942D02*
X015179Y009509D01*
X015336Y009352D01*
X015966Y009352D01*
X016124Y009509D01*
X016124Y009942D01*
X016124Y010730D02*
X016124Y011320D01*
X021879Y011320D02*
X021879Y010730D01*
X021879Y009942D02*
X021879Y009509D01*
X022036Y009352D01*
X022666Y009352D01*
X022824Y009509D01*
X022824Y009942D01*
X022824Y010730D02*
X022824Y011320D01*
X021879Y011320D01*
X028579Y011320D02*
X028579Y010730D01*
X028579Y009942D02*
X028579Y009509D01*
X028736Y009352D01*
X029366Y009352D01*
X029524Y009509D01*
X029524Y009942D01*
X029524Y010730D02*
X029524Y011320D01*
X028579Y011320D01*
X035279Y011320D02*
X035279Y010730D01*
X035279Y009942D02*
X035279Y009509D01*
X035436Y009352D01*
X036066Y009352D01*
X036224Y009509D01*
X036224Y009942D01*
X036224Y010730D02*
X036224Y011320D01*
X035279Y011320D01*
X041979Y011320D02*
X041979Y010730D01*
X041979Y009942D02*
X041979Y009509D01*
X042136Y009352D01*
X042766Y009352D01*
X042924Y009509D01*
X042924Y009942D01*
X042924Y010730D02*
X042924Y011320D01*
X041979Y011320D01*
D12*
X042051Y010186D02*
X042851Y010186D01*
X036151Y010186D02*
X035351Y010186D01*
X029451Y010186D02*
X028651Y010186D01*
X022751Y010186D02*
X021951Y010186D01*
X016051Y010186D02*
X015251Y010186D01*
X015251Y016386D02*
X016051Y016386D01*
X021951Y016386D02*
X022751Y016386D01*
X028651Y016386D02*
X029451Y016386D01*
X035351Y016386D02*
X036151Y016386D01*
X042051Y016386D02*
X042851Y016386D01*
X042851Y022586D02*
X042051Y022586D01*
X036151Y022586D02*
X035351Y022586D01*
X029451Y022586D02*
X028651Y022586D01*
X022751Y022586D02*
X021951Y022586D01*
X016051Y022586D02*
X015251Y022586D01*
X015251Y028786D02*
X016051Y028786D01*
X021951Y028786D02*
X022751Y028786D01*
X028651Y028786D02*
X029451Y028786D01*
X035351Y028786D02*
X036151Y028786D01*
X042051Y028786D02*
X042851Y028786D01*
X042851Y034986D02*
X042051Y034986D01*
X036151Y034986D02*
X035351Y034986D01*
X029451Y034986D02*
X028651Y034986D01*
X022751Y034986D02*
X021951Y034986D01*
X016051Y034986D02*
X015251Y034986D01*
X015251Y041186D02*
X016051Y041186D01*
X021951Y041186D02*
X022751Y041186D01*
X028651Y041186D02*
X029451Y041186D01*
X035351Y041186D02*
X036151Y041186D01*
X042051Y041186D02*
X042851Y041186D01*
M02*
