G75*
G70*
%OFA0B0*%
%FSLAX24Y24*%
%IPPOS*%
%LPD*%
%AMOC8*
5,1,8,0,0,1.08239X$1,22.5*
%
%ADD10R,0.0820X0.0820*%
%ADD11C,0.0820*%
%ADD12C,0.1280*%
%ADD13C,0.1780*%
%ADD14C,0.0720*%
%ADD15C,0.1380*%
D10*
X016651Y009836D03*
X016651Y010836D03*
X016651Y011836D03*
X016651Y012836D03*
X016651Y013836D03*
X016651Y014836D03*
X016651Y016036D03*
X016651Y017036D03*
X016651Y018036D03*
X016651Y019036D03*
X016651Y020036D03*
X016651Y021036D03*
X016651Y022236D03*
X016651Y023236D03*
X016651Y024236D03*
X016651Y025236D03*
X016651Y026236D03*
X016651Y027236D03*
X016651Y028436D03*
X016651Y029436D03*
X016651Y030436D03*
X016651Y031436D03*
X016651Y032436D03*
X016651Y033436D03*
X016651Y034636D03*
X016651Y035636D03*
X016651Y036636D03*
X016651Y037636D03*
X016651Y038636D03*
X016651Y039636D03*
X016651Y040836D03*
X016651Y041836D03*
X016651Y042836D03*
X016651Y043836D03*
X016651Y044836D03*
X016651Y045836D03*
X023351Y045836D03*
X023351Y044836D03*
X023351Y043836D03*
X023351Y042836D03*
X023351Y041836D03*
X023351Y040836D03*
X023351Y039636D03*
X023351Y038636D03*
X023351Y037636D03*
X023351Y036636D03*
X023351Y035636D03*
X023351Y034636D03*
X023351Y033436D03*
X023351Y032436D03*
X023351Y031436D03*
X023351Y030436D03*
X023351Y029436D03*
X023351Y028436D03*
X023351Y027236D03*
X023351Y026236D03*
X023351Y025236D03*
X023351Y024236D03*
X023351Y023236D03*
X023351Y022236D03*
X023351Y021036D03*
X023351Y020036D03*
X023351Y019036D03*
X023351Y018036D03*
X023351Y017036D03*
X023351Y016036D03*
X023351Y014836D03*
X023351Y013836D03*
X023351Y012836D03*
X023351Y011836D03*
X023351Y010836D03*
X023351Y009836D03*
X030051Y009836D03*
X030051Y010836D03*
X030051Y011836D03*
X030051Y012836D03*
X030051Y013836D03*
X030051Y014836D03*
X030051Y016036D03*
X030051Y017036D03*
X030051Y018036D03*
X030051Y019036D03*
X030051Y020036D03*
X030051Y021036D03*
X030051Y022236D03*
X030051Y023236D03*
X030051Y024236D03*
X030051Y025236D03*
X030051Y026236D03*
X030051Y027236D03*
X030051Y028436D03*
X030051Y029436D03*
X030051Y030436D03*
X030051Y031436D03*
X030051Y032436D03*
X030051Y033436D03*
X030051Y034636D03*
X030051Y035636D03*
X030051Y036636D03*
X030051Y037636D03*
X030051Y038636D03*
X030051Y039636D03*
X030051Y040836D03*
X030051Y041836D03*
X030051Y042836D03*
X030051Y043836D03*
X030051Y044836D03*
X030051Y045836D03*
X036751Y045836D03*
X036751Y044836D03*
X036751Y043836D03*
X036751Y042836D03*
X036751Y041836D03*
X036751Y040836D03*
X036751Y039636D03*
X036751Y038636D03*
X036751Y037636D03*
X036751Y036636D03*
X036751Y035636D03*
X036751Y034636D03*
X036751Y033436D03*
X036751Y032436D03*
X036751Y031436D03*
X036751Y030436D03*
X036751Y029436D03*
X036751Y028436D03*
X036751Y027236D03*
X036751Y026236D03*
X036751Y025236D03*
X036751Y024236D03*
X036751Y023236D03*
X036751Y022236D03*
X036751Y021036D03*
X036751Y020036D03*
X036751Y019036D03*
X036751Y018036D03*
X036751Y017036D03*
X036751Y016036D03*
X036751Y014836D03*
X036751Y013836D03*
X036751Y012836D03*
X036751Y011836D03*
X036751Y010836D03*
X036751Y009836D03*
X043451Y009836D03*
X043451Y010836D03*
X043451Y011836D03*
X043451Y012836D03*
X043451Y013836D03*
X043451Y014836D03*
X043451Y016036D03*
X043451Y017036D03*
X043451Y018036D03*
X043451Y019036D03*
X043451Y020036D03*
X043451Y021036D03*
X043451Y022236D03*
X043451Y023236D03*
X043451Y024236D03*
X043451Y025236D03*
X043451Y026236D03*
X043451Y027236D03*
X043451Y028436D03*
X043451Y029436D03*
X043451Y030436D03*
X043451Y031436D03*
X043451Y032436D03*
X043451Y033436D03*
X043451Y034636D03*
X043451Y035636D03*
X043451Y036636D03*
X043451Y037636D03*
X043451Y038636D03*
X043451Y039636D03*
X043451Y040836D03*
X043451Y041836D03*
X043451Y042836D03*
X043451Y043836D03*
X043451Y044836D03*
X043451Y045836D03*
D11*
X039951Y045836D03*
X038951Y045836D03*
X038881Y044836D03*
X039881Y044836D03*
X039951Y043836D03*
X038951Y043836D03*
X038951Y042836D03*
X039951Y042836D03*
X039881Y041836D03*
X038881Y041836D03*
X038951Y040836D03*
X039951Y040836D03*
X039951Y039636D03*
X038951Y039636D03*
X038881Y038636D03*
X039881Y038636D03*
X039951Y037636D03*
X038951Y037636D03*
X038951Y036636D03*
X039951Y036636D03*
X039881Y035636D03*
X038881Y035636D03*
X038951Y034636D03*
X039951Y034636D03*
X039951Y033436D03*
X038951Y033436D03*
X038881Y032436D03*
X039881Y032436D03*
X039951Y031436D03*
X038951Y031436D03*
X038951Y030436D03*
X039951Y030436D03*
X039881Y029436D03*
X038881Y029436D03*
X038951Y028436D03*
X039951Y028436D03*
X039951Y027236D03*
X038951Y027236D03*
X038881Y026236D03*
X039881Y026236D03*
X039951Y025236D03*
X038951Y025236D03*
X038951Y024236D03*
X039951Y024236D03*
X039881Y023236D03*
X038881Y023236D03*
X038951Y022236D03*
X039951Y022236D03*
X039951Y021036D03*
X038951Y021036D03*
X038881Y020036D03*
X039881Y020036D03*
X039951Y019036D03*
X038951Y019036D03*
X038951Y018036D03*
X039951Y018036D03*
X039881Y017036D03*
X038881Y017036D03*
X038951Y016036D03*
X039951Y016036D03*
X039951Y014836D03*
X038951Y014836D03*
X038881Y013836D03*
X039881Y013836D03*
X039951Y012836D03*
X038951Y012836D03*
X038951Y011836D03*
X039951Y011836D03*
X039881Y010836D03*
X038881Y010836D03*
X038951Y009836D03*
X039951Y009836D03*
X033251Y009836D03*
X032251Y009836D03*
X032181Y010836D03*
X033181Y010836D03*
X033251Y011836D03*
X032251Y011836D03*
X032251Y012836D03*
X033251Y012836D03*
X033181Y013836D03*
X032181Y013836D03*
X032251Y014836D03*
X033251Y014836D03*
X033251Y016036D03*
X032251Y016036D03*
X032181Y017036D03*
X033181Y017036D03*
X033251Y018036D03*
X032251Y018036D03*
X032251Y019036D03*
X033251Y019036D03*
X033181Y020036D03*
X032181Y020036D03*
X032251Y021036D03*
X033251Y021036D03*
X033251Y022236D03*
X032251Y022236D03*
X032181Y023236D03*
X033181Y023236D03*
X033251Y024236D03*
X033251Y025236D03*
X032251Y025236D03*
X032251Y024236D03*
X032181Y026236D03*
X033181Y026236D03*
X033251Y027236D03*
X032251Y027236D03*
X032251Y028436D03*
X033251Y028436D03*
X033181Y029436D03*
X032181Y029436D03*
X032251Y030436D03*
X032251Y031436D03*
X033251Y031436D03*
X033251Y030436D03*
X033181Y032436D03*
X032181Y032436D03*
X032251Y033436D03*
X033251Y033436D03*
X033251Y034636D03*
X032251Y034636D03*
X032181Y035636D03*
X033181Y035636D03*
X033251Y036636D03*
X033251Y037636D03*
X032251Y037636D03*
X032251Y036636D03*
X032181Y038636D03*
X033181Y038636D03*
X033251Y039636D03*
X032251Y039636D03*
X032251Y040836D03*
X033251Y040836D03*
X033181Y041836D03*
X032181Y041836D03*
X032251Y042836D03*
X032251Y043836D03*
X033251Y043836D03*
X033251Y042836D03*
X033181Y044836D03*
X032181Y044836D03*
X032251Y045836D03*
X033251Y045836D03*
X026551Y045836D03*
X025551Y045836D03*
X025481Y044836D03*
X026481Y044836D03*
X026551Y043836D03*
X025551Y043836D03*
X025551Y042836D03*
X026551Y042836D03*
X026481Y041836D03*
X025481Y041836D03*
X025551Y040836D03*
X026551Y040836D03*
X026551Y039636D03*
X025551Y039636D03*
X025481Y038636D03*
X026481Y038636D03*
X026551Y037636D03*
X025551Y037636D03*
X025551Y036636D03*
X026551Y036636D03*
X026481Y035636D03*
X025481Y035636D03*
X025551Y034636D03*
X026551Y034636D03*
X026551Y033436D03*
X025551Y033436D03*
X025481Y032436D03*
X026481Y032436D03*
X026551Y031436D03*
X025551Y031436D03*
X025551Y030436D03*
X026551Y030436D03*
X026481Y029436D03*
X025481Y029436D03*
X025551Y028436D03*
X026551Y028436D03*
X026551Y027236D03*
X025551Y027236D03*
X025481Y026236D03*
X026481Y026236D03*
X026551Y025236D03*
X025551Y025236D03*
X025551Y024236D03*
X026551Y024236D03*
X026481Y023236D03*
X025481Y023236D03*
X025551Y022236D03*
X026551Y022236D03*
X026551Y021036D03*
X025551Y021036D03*
X025481Y020036D03*
X026481Y020036D03*
X026551Y019036D03*
X025551Y019036D03*
X025551Y018036D03*
X026551Y018036D03*
X026481Y017036D03*
X025481Y017036D03*
X025551Y016036D03*
X026551Y016036D03*
X026551Y014836D03*
X025551Y014836D03*
X025481Y013836D03*
X026481Y013836D03*
X026551Y012836D03*
X025551Y012836D03*
X025551Y011836D03*
X026551Y011836D03*
X026481Y010836D03*
X025481Y010836D03*
X025551Y009836D03*
X026551Y009836D03*
X019851Y009836D03*
X018851Y009836D03*
X018781Y010836D03*
X018851Y011836D03*
X018851Y012836D03*
X019851Y012836D03*
X019851Y011836D03*
X019781Y010836D03*
X019781Y013836D03*
X018781Y013836D03*
X018851Y014836D03*
X019851Y014836D03*
X019851Y016036D03*
X018851Y016036D03*
X018781Y017036D03*
X019781Y017036D03*
X019851Y018036D03*
X018851Y018036D03*
X018851Y019036D03*
X019851Y019036D03*
X019781Y020036D03*
X018781Y020036D03*
X018851Y021036D03*
X019851Y021036D03*
X019851Y022236D03*
X018851Y022236D03*
X018781Y023236D03*
X019781Y023236D03*
X019851Y024236D03*
X019851Y025236D03*
X018851Y025236D03*
X018851Y024236D03*
X018781Y026236D03*
X019781Y026236D03*
X019851Y027236D03*
X018851Y027236D03*
X018851Y028436D03*
X019851Y028436D03*
X019781Y029436D03*
X018781Y029436D03*
X018851Y030436D03*
X018851Y031436D03*
X019851Y031436D03*
X019851Y030436D03*
X019781Y032436D03*
X018781Y032436D03*
X018851Y033436D03*
X019851Y033436D03*
X019851Y034636D03*
X018851Y034636D03*
X018781Y035636D03*
X019781Y035636D03*
X019851Y036636D03*
X019851Y037636D03*
X018851Y037636D03*
X018851Y036636D03*
X018781Y038636D03*
X019781Y038636D03*
X019851Y039636D03*
X018851Y039636D03*
X018851Y040836D03*
X019851Y040836D03*
X019781Y041836D03*
X018781Y041836D03*
X018851Y042836D03*
X018851Y043836D03*
X019851Y043836D03*
X019851Y042836D03*
X019781Y044836D03*
X018781Y044836D03*
X018851Y045836D03*
X019851Y045836D03*
X013151Y045836D03*
X012151Y045836D03*
X012081Y044836D03*
X013081Y044836D03*
X013151Y043836D03*
X012151Y043836D03*
X012151Y042836D03*
X013151Y042836D03*
X013081Y041836D03*
X012081Y041836D03*
X012151Y040836D03*
X013151Y040836D03*
X013151Y039636D03*
X012151Y039636D03*
X012081Y038636D03*
X013081Y038636D03*
X013151Y037636D03*
X012151Y037636D03*
X012151Y036636D03*
X013151Y036636D03*
X013081Y035636D03*
X012081Y035636D03*
X012151Y034636D03*
X013151Y034636D03*
X013151Y033436D03*
X012151Y033436D03*
X012081Y032436D03*
X013081Y032436D03*
X013151Y031436D03*
X012151Y031436D03*
X012151Y030436D03*
X013151Y030436D03*
X013081Y029436D03*
X012081Y029436D03*
X012151Y028436D03*
X013151Y028436D03*
X013151Y027236D03*
X012151Y027236D03*
X012081Y026236D03*
X013081Y026236D03*
X013151Y025236D03*
X012151Y025236D03*
X012151Y024236D03*
X013151Y024236D03*
X013081Y023236D03*
X012081Y023236D03*
X012151Y022236D03*
X013151Y022236D03*
X013151Y021036D03*
X012151Y021036D03*
X012081Y020036D03*
X013081Y020036D03*
X013151Y019036D03*
X012151Y019036D03*
X012151Y018036D03*
X013151Y018036D03*
X013081Y017036D03*
X012081Y017036D03*
X012151Y016036D03*
X013151Y016036D03*
X013151Y014836D03*
X012151Y014836D03*
X012081Y013836D03*
X013081Y013836D03*
X013151Y012836D03*
X012151Y012836D03*
X012151Y011836D03*
X013151Y011836D03*
X013081Y010836D03*
X012081Y010836D03*
X012151Y009836D03*
X013151Y009836D03*
X066871Y007226D03*
X066871Y005446D03*
X069431Y005446D03*
X069431Y007226D03*
D12*
X007151Y005336D03*
X003651Y010736D03*
X003651Y015474D03*
X003651Y020236D03*
X003651Y024974D03*
X003651Y030736D03*
X003651Y035474D03*
X003651Y040236D03*
X003651Y044974D03*
X007151Y050336D03*
X021701Y038786D03*
X035151Y038886D03*
X027151Y050336D03*
X046151Y050336D03*
X046151Y027836D03*
X034851Y020486D03*
X021501Y020436D03*
X027151Y005336D03*
X046151Y005336D03*
X087151Y005336D03*
X087151Y050336D03*
D13*
X013151Y050305D03*
X011301Y049123D03*
X013151Y047942D03*
D14*
X009151Y041156D02*
X009151Y040516D01*
X008151Y040516D02*
X008151Y041156D01*
X007151Y041156D02*
X007151Y040516D01*
X031831Y048836D02*
X032471Y048836D01*
X032471Y049836D02*
X031831Y049836D01*
X031831Y050836D02*
X032471Y050836D01*
X009151Y015156D02*
X009151Y014516D01*
X008151Y014516D02*
X008151Y015156D01*
X007151Y015156D02*
X007151Y014516D01*
D15*
X008151Y020736D03*
X008151Y034936D03*
X038051Y049836D03*
M02*
