G75*
G70*
%OFA0B0*%
%FSLAX24Y24*%
%IPPOS*%
%LPD*%
%AMOC8*
5,1,8,0,0,1.08239X$1,22.5*
%
%ADD10R,0.0080X0.0080*%
D10*
X012151Y008151D03*
X012151Y008651D03*
X012151Y009151D03*
X012151Y009651D03*
X012151Y010151D03*
X012151Y010651D03*
X012651Y010651D03*
X012651Y010151D03*
X012651Y009651D03*
X012651Y009151D03*
X012651Y008651D03*
X012651Y008151D03*
X013151Y008151D03*
X013151Y008651D03*
X013151Y009151D03*
X013151Y009651D03*
X013151Y010151D03*
X013151Y010651D03*
X013151Y014351D03*
X012651Y014351D03*
X012151Y014351D03*
X012151Y014851D03*
X012151Y015351D03*
X012151Y015851D03*
X012151Y016351D03*
X012151Y016851D03*
X012651Y016851D03*
X012651Y016351D03*
X012651Y015851D03*
X012651Y015351D03*
X012651Y014851D03*
X013151Y014851D03*
X013151Y015351D03*
X013151Y015851D03*
X013151Y016351D03*
X013151Y016851D03*
X013151Y020551D03*
X012651Y020551D03*
X012151Y020551D03*
X012151Y021051D03*
X012151Y021551D03*
X012151Y022051D03*
X012151Y022551D03*
X012151Y023051D03*
X012651Y023051D03*
X012651Y022551D03*
X012651Y022051D03*
X012651Y021551D03*
X012651Y021051D03*
X013151Y021051D03*
X013151Y021551D03*
X013151Y022051D03*
X013151Y022551D03*
X013151Y023051D03*
X013151Y026751D03*
X012651Y026751D03*
X012151Y026751D03*
X012151Y027251D03*
X012151Y027751D03*
X012151Y028251D03*
X012151Y028751D03*
X012151Y029251D03*
X012651Y029251D03*
X012651Y028751D03*
X012651Y028251D03*
X012651Y027751D03*
X012651Y027251D03*
X013151Y027251D03*
X013151Y027751D03*
X013151Y028251D03*
X013151Y028751D03*
X013151Y029251D03*
X013151Y032951D03*
X012651Y032951D03*
X012151Y032951D03*
X012151Y033451D03*
X012151Y033951D03*
X012151Y034451D03*
X012151Y034951D03*
X012151Y035451D03*
X012651Y035451D03*
X012651Y034951D03*
X012651Y034451D03*
X012651Y033951D03*
X012651Y033451D03*
X013151Y033451D03*
X013151Y033951D03*
X013151Y034451D03*
X013151Y034951D03*
X013151Y035451D03*
X013151Y039151D03*
X012651Y039151D03*
X012151Y039151D03*
X012151Y039651D03*
X012151Y040151D03*
X012151Y040651D03*
X012151Y041151D03*
X012151Y041651D03*
X012651Y041651D03*
X012651Y041151D03*
X012651Y040651D03*
X012651Y040151D03*
X012651Y039651D03*
X013151Y039651D03*
X013151Y040151D03*
X013151Y040651D03*
X013151Y041151D03*
X013151Y041651D03*
X018851Y041651D03*
X018851Y041151D03*
X018851Y040651D03*
X018851Y040151D03*
X018851Y039651D03*
X018851Y039151D03*
X019351Y039151D03*
X019351Y039651D03*
X019351Y040151D03*
X019351Y040651D03*
X019351Y041151D03*
X019351Y041651D03*
X019851Y041651D03*
X019851Y041151D03*
X019851Y040651D03*
X019851Y040151D03*
X019851Y039651D03*
X019851Y039151D03*
X019851Y035451D03*
X019851Y034951D03*
X019851Y034451D03*
X019851Y033951D03*
X019851Y033451D03*
X019851Y032951D03*
X019351Y032951D03*
X018851Y032951D03*
X018851Y033451D03*
X018851Y033951D03*
X018851Y034451D03*
X018851Y034951D03*
X018851Y035451D03*
X019351Y035451D03*
X019351Y034951D03*
X019351Y034451D03*
X019351Y033951D03*
X019351Y033451D03*
X019351Y029251D03*
X019351Y028751D03*
X019351Y028251D03*
X019351Y027751D03*
X019351Y027251D03*
X019351Y026751D03*
X018851Y026751D03*
X018851Y027251D03*
X018851Y027751D03*
X018851Y028251D03*
X018851Y028751D03*
X018851Y029251D03*
X019851Y029251D03*
X019851Y028751D03*
X019851Y028251D03*
X019851Y027751D03*
X019851Y027251D03*
X019851Y026751D03*
X019851Y023051D03*
X019851Y022551D03*
X019851Y022051D03*
X019851Y021551D03*
X019851Y021051D03*
X019851Y020551D03*
X019351Y020551D03*
X018851Y020551D03*
X018851Y021051D03*
X018851Y021551D03*
X018851Y022051D03*
X018851Y022551D03*
X018851Y023051D03*
X019351Y023051D03*
X019351Y022551D03*
X019351Y022051D03*
X019351Y021551D03*
X019351Y021051D03*
X019351Y016851D03*
X019351Y016351D03*
X019351Y015851D03*
X019351Y015351D03*
X019351Y014851D03*
X019351Y014351D03*
X018851Y014351D03*
X018851Y014851D03*
X018851Y015351D03*
X018851Y015851D03*
X018851Y016351D03*
X018851Y016851D03*
X019851Y016851D03*
X019851Y016351D03*
X019851Y015851D03*
X019851Y015351D03*
X019851Y014851D03*
X019851Y014351D03*
X019851Y010651D03*
X019851Y010151D03*
X019851Y009651D03*
X019851Y009151D03*
X019851Y008651D03*
X019851Y008151D03*
X019351Y008151D03*
X018851Y008151D03*
X018851Y008651D03*
X018851Y009151D03*
X018851Y009651D03*
X018851Y010151D03*
X018851Y010651D03*
X019351Y010651D03*
X019351Y010151D03*
X019351Y009651D03*
X019351Y009151D03*
X019351Y008651D03*
X025551Y008651D03*
X025551Y008151D03*
X026051Y008151D03*
X026051Y008651D03*
X026051Y009151D03*
X025551Y009151D03*
X025551Y009651D03*
X025551Y010151D03*
X025551Y010651D03*
X026051Y010651D03*
X026051Y010151D03*
X026051Y009651D03*
X026551Y009651D03*
X026551Y009151D03*
X026551Y008651D03*
X026551Y008151D03*
X026551Y010151D03*
X026551Y010651D03*
X026551Y014351D03*
X026051Y014351D03*
X025551Y014351D03*
X025551Y014851D03*
X025551Y015351D03*
X025551Y015851D03*
X025551Y016351D03*
X025551Y016851D03*
X026051Y016851D03*
X026051Y016351D03*
X026051Y015851D03*
X026051Y015351D03*
X026051Y014851D03*
X026551Y014851D03*
X026551Y015351D03*
X026551Y015851D03*
X026551Y016351D03*
X026551Y016851D03*
X026551Y020551D03*
X026051Y020551D03*
X025551Y020551D03*
X025551Y021051D03*
X025551Y021551D03*
X025551Y022051D03*
X025551Y022551D03*
X025551Y023051D03*
X026051Y023051D03*
X026051Y022551D03*
X026051Y022051D03*
X026051Y021551D03*
X026051Y021051D03*
X026551Y021051D03*
X026551Y021551D03*
X026551Y022051D03*
X026551Y022551D03*
X026551Y023051D03*
X026551Y026751D03*
X026051Y026751D03*
X025551Y026751D03*
X025551Y027251D03*
X025551Y027751D03*
X025551Y028251D03*
X025551Y028751D03*
X025551Y029251D03*
X026051Y029251D03*
X026051Y028751D03*
X026051Y028251D03*
X026051Y027751D03*
X026051Y027251D03*
X026551Y027251D03*
X026551Y027751D03*
X026551Y028251D03*
X026551Y028751D03*
X026551Y029251D03*
X026551Y032951D03*
X026051Y032951D03*
X025551Y032951D03*
X025551Y033451D03*
X025551Y033951D03*
X025551Y034451D03*
X025551Y034951D03*
X025551Y035451D03*
X026051Y035451D03*
X026051Y034951D03*
X026051Y034451D03*
X026051Y033951D03*
X026051Y033451D03*
X026551Y033451D03*
X026551Y033951D03*
X026551Y034451D03*
X026551Y034951D03*
X026551Y035451D03*
X026551Y039151D03*
X026051Y039151D03*
X025551Y039151D03*
X025551Y039651D03*
X025551Y040151D03*
X025551Y040651D03*
X025551Y041151D03*
X025551Y041651D03*
X026051Y041651D03*
X026051Y041151D03*
X026051Y040651D03*
X026051Y040151D03*
X026051Y039651D03*
X026551Y039651D03*
X026551Y040151D03*
X026551Y040651D03*
X026551Y041151D03*
X026551Y041651D03*
X032251Y041651D03*
X032251Y041151D03*
X032251Y040651D03*
X032251Y040151D03*
X032251Y039651D03*
X032251Y039151D03*
X032751Y039151D03*
X032751Y039651D03*
X032751Y040151D03*
X032751Y040651D03*
X032751Y041151D03*
X032751Y041651D03*
X033251Y041651D03*
X033251Y041151D03*
X033251Y040651D03*
X033251Y040151D03*
X033251Y039651D03*
X033251Y039151D03*
X033251Y035451D03*
X033251Y034951D03*
X033251Y034451D03*
X033251Y033951D03*
X033251Y033451D03*
X033251Y032951D03*
X032751Y032951D03*
X032251Y032951D03*
X032251Y033451D03*
X032251Y033951D03*
X032251Y034451D03*
X032251Y034951D03*
X032251Y035451D03*
X032751Y035451D03*
X032751Y034951D03*
X032751Y034451D03*
X032751Y033951D03*
X032751Y033451D03*
X032751Y029251D03*
X032751Y028751D03*
X032751Y028251D03*
X032751Y027751D03*
X032751Y027251D03*
X032751Y026751D03*
X032251Y026751D03*
X032251Y027251D03*
X032251Y027751D03*
X032251Y028251D03*
X032251Y028751D03*
X032251Y029251D03*
X033251Y029251D03*
X033251Y028751D03*
X033251Y028251D03*
X033251Y027751D03*
X033251Y027251D03*
X033251Y026751D03*
X033251Y023051D03*
X033251Y022551D03*
X033251Y022051D03*
X033251Y021551D03*
X033251Y021051D03*
X033251Y020551D03*
X032751Y020551D03*
X032251Y020551D03*
X032251Y021051D03*
X032251Y021551D03*
X032251Y022051D03*
X032251Y022551D03*
X032251Y023051D03*
X032751Y023051D03*
X032751Y022551D03*
X032751Y022051D03*
X032751Y021551D03*
X032751Y021051D03*
X032751Y016851D03*
X032751Y016351D03*
X032751Y015851D03*
X032751Y015351D03*
X032751Y014851D03*
X032751Y014351D03*
X032251Y014351D03*
X032251Y014851D03*
X032251Y015351D03*
X032251Y015851D03*
X032251Y016351D03*
X032251Y016851D03*
X033251Y016851D03*
X033251Y016351D03*
X033251Y015851D03*
X033251Y015351D03*
X033251Y014851D03*
X033251Y014351D03*
X033251Y010651D03*
X033251Y010151D03*
X033251Y009651D03*
X033251Y009151D03*
X033251Y008651D03*
X033251Y008151D03*
X032751Y008151D03*
X032251Y008151D03*
X032251Y008651D03*
X032251Y009151D03*
X032251Y009651D03*
X032251Y010151D03*
X032251Y010651D03*
X032751Y010651D03*
X032751Y010151D03*
X032751Y009651D03*
X032751Y009151D03*
X032751Y008651D03*
X038951Y008651D03*
X038951Y008151D03*
X039451Y008151D03*
X039451Y008651D03*
X039451Y009151D03*
X038951Y009151D03*
X038951Y009651D03*
X038951Y010151D03*
X038951Y010651D03*
X039451Y010651D03*
X039451Y010151D03*
X039451Y009651D03*
X039951Y009651D03*
X039951Y009151D03*
X039951Y008651D03*
X039951Y008151D03*
X039951Y010151D03*
X039951Y010651D03*
X039951Y014351D03*
X039451Y014351D03*
X038951Y014351D03*
X038951Y014851D03*
X038951Y015351D03*
X038951Y015851D03*
X038951Y016351D03*
X038951Y016851D03*
X039451Y016851D03*
X039451Y016351D03*
X039451Y015851D03*
X039451Y015351D03*
X039451Y014851D03*
X039951Y014851D03*
X039951Y015351D03*
X039951Y015851D03*
X039951Y016351D03*
X039951Y016851D03*
X039951Y020551D03*
X039451Y020551D03*
X038951Y020551D03*
X038951Y021051D03*
X038951Y021551D03*
X038951Y022051D03*
X038951Y022551D03*
X038951Y023051D03*
X039451Y023051D03*
X039451Y022551D03*
X039451Y022051D03*
X039451Y021551D03*
X039451Y021051D03*
X039951Y021051D03*
X039951Y021551D03*
X039951Y022051D03*
X039951Y022551D03*
X039951Y023051D03*
X039951Y026751D03*
X039451Y026751D03*
X038951Y026751D03*
X038951Y027251D03*
X038951Y027751D03*
X038951Y028251D03*
X038951Y028751D03*
X038951Y029251D03*
X039451Y029251D03*
X039451Y028751D03*
X039451Y028251D03*
X039451Y027751D03*
X039451Y027251D03*
X039951Y027251D03*
X039951Y027751D03*
X039951Y028251D03*
X039951Y028751D03*
X039951Y029251D03*
X039951Y032951D03*
X039451Y032951D03*
X038951Y032951D03*
X038951Y033451D03*
X038951Y033951D03*
X038951Y034451D03*
X038951Y034951D03*
X038951Y035451D03*
X039451Y035451D03*
X039451Y034951D03*
X039451Y034451D03*
X039451Y033951D03*
X039451Y033451D03*
X039951Y033451D03*
X039951Y033951D03*
X039951Y034451D03*
X039951Y034951D03*
X039951Y035451D03*
X039951Y039151D03*
X039451Y039151D03*
X038951Y039151D03*
X038951Y039651D03*
X038951Y040151D03*
X038951Y040651D03*
X038951Y041151D03*
X038951Y041651D03*
X039451Y041651D03*
X039451Y041151D03*
X039451Y040651D03*
X039451Y040151D03*
X039451Y039651D03*
X039951Y039651D03*
X039951Y040151D03*
X039951Y040651D03*
X039951Y041151D03*
X039951Y041651D03*
M02*
