G75*
G70*
%OFA0B0*%
%FSLAX24Y24*%
%IPPOS*%
%LPD*%
%AMOC8*
5,1,8,0,0,1.08239X$1,22.5*
%
%ADD10C,0.0680*%
%ADD11C,0.1280*%
D10*
X016651Y006651D03*
X016651Y007651D03*
X016651Y008651D03*
X016651Y009651D03*
X016651Y010651D03*
X016651Y011651D03*
X016651Y012851D03*
X016651Y013851D03*
X016651Y014851D03*
X016651Y015851D03*
X016651Y016851D03*
X016651Y017851D03*
X016651Y019051D03*
X016651Y020051D03*
X016651Y021051D03*
X016651Y022051D03*
X016651Y023051D03*
X016651Y024051D03*
X016651Y025251D03*
X016651Y026251D03*
X016651Y027251D03*
X016651Y028251D03*
X016651Y029251D03*
X016651Y030251D03*
X016651Y031451D03*
X016651Y032451D03*
X016651Y033451D03*
X016651Y034451D03*
X016651Y035451D03*
X016651Y036451D03*
X016651Y037651D03*
X016651Y038651D03*
X016651Y039651D03*
X016651Y040651D03*
X016651Y041651D03*
X016651Y042651D03*
X023351Y042651D03*
X023351Y041651D03*
X023351Y040651D03*
X023351Y039651D03*
X023351Y038651D03*
X023351Y037651D03*
X023351Y036451D03*
X023351Y035451D03*
X023351Y034451D03*
X023351Y033451D03*
X023351Y032451D03*
X023351Y031451D03*
X023351Y030251D03*
X023351Y029251D03*
X023351Y028251D03*
X023351Y027251D03*
X023351Y026251D03*
X023351Y025251D03*
X023351Y024051D03*
X023351Y023051D03*
X023351Y022051D03*
X023351Y021051D03*
X023351Y020051D03*
X023351Y019051D03*
X023351Y017851D03*
X023351Y016851D03*
X023351Y015851D03*
X023351Y014851D03*
X023351Y013851D03*
X023351Y012851D03*
X023351Y011651D03*
X023351Y010651D03*
X023351Y009651D03*
X023351Y008651D03*
X023351Y007651D03*
X023351Y006651D03*
X030051Y006651D03*
X030051Y007651D03*
X030051Y008651D03*
X030051Y009651D03*
X030051Y010651D03*
X030051Y011651D03*
X030051Y012851D03*
X030051Y013851D03*
X030051Y014851D03*
X030051Y015851D03*
X030051Y016851D03*
X030051Y017851D03*
X030051Y019051D03*
X030051Y020051D03*
X030051Y021051D03*
X030051Y022051D03*
X030051Y023051D03*
X030051Y024051D03*
X030051Y025251D03*
X030051Y026251D03*
X030051Y027251D03*
X030051Y028251D03*
X030051Y029251D03*
X030051Y030251D03*
X030051Y031451D03*
X030051Y032451D03*
X030051Y033451D03*
X030051Y034451D03*
X030051Y035451D03*
X030051Y036451D03*
X030051Y037651D03*
X030051Y038651D03*
X030051Y039651D03*
X030051Y040651D03*
X030051Y041651D03*
X030051Y042651D03*
X036751Y042651D03*
X036751Y041651D03*
X036751Y040651D03*
X036751Y039651D03*
X036751Y038651D03*
X036751Y037651D03*
X036751Y036451D03*
X036751Y035451D03*
X036751Y034451D03*
X036751Y033451D03*
X036751Y032451D03*
X036751Y031451D03*
X036751Y030251D03*
X036751Y029251D03*
X036751Y028251D03*
X036751Y027251D03*
X036751Y026251D03*
X036751Y025251D03*
X036751Y024051D03*
X036751Y023051D03*
X036751Y022051D03*
X036751Y021051D03*
X036751Y020051D03*
X036751Y019051D03*
X036751Y017851D03*
X036751Y016851D03*
X036751Y015851D03*
X036751Y014851D03*
X036751Y013851D03*
X036751Y012851D03*
X036751Y011651D03*
X036751Y010651D03*
X036751Y009651D03*
X036751Y008651D03*
X036751Y007651D03*
X036751Y006651D03*
X043451Y006651D03*
X043451Y007651D03*
X043451Y008651D03*
X043451Y009651D03*
X043451Y010651D03*
X043451Y011651D03*
X043451Y012851D03*
X043451Y013851D03*
X043451Y014851D03*
X043451Y015851D03*
X043451Y016851D03*
X043451Y017851D03*
X043451Y019051D03*
X043451Y020051D03*
X043451Y021051D03*
X043451Y022051D03*
X043451Y023051D03*
X043451Y024051D03*
X043451Y025251D03*
X043451Y026251D03*
X043451Y027251D03*
X043451Y028251D03*
X043451Y029251D03*
X043451Y030251D03*
X043451Y031451D03*
X043451Y032451D03*
X043451Y033451D03*
X043451Y034451D03*
X043451Y035451D03*
X043451Y036451D03*
X043451Y037651D03*
X043451Y038651D03*
X043451Y039651D03*
X043451Y040651D03*
X043451Y041651D03*
X043451Y042651D03*
D11*
X007151Y002151D03*
X003651Y007551D03*
X003651Y012289D03*
X003651Y017051D03*
X003651Y021789D03*
X003651Y027551D03*
X003651Y032289D03*
X003651Y037051D03*
X003651Y041789D03*
X007151Y047151D03*
X027151Y047151D03*
X046151Y047151D03*
X046151Y002151D03*
X027151Y002151D03*
M02*
