%
M48
M72
T01C0.0600
T02C0.1200
%
T01
X16651Y6651
X16651Y7651
X16651Y8651
X16651Y9651
X16651Y10651
X16651Y11651
X16651Y12851
X16651Y13851
X16651Y14851
X16651Y15851
X16651Y16851
X16651Y17851
X16651Y19051
X16651Y20051
X16651Y21051
X16651Y22051
X16651Y23051
X16651Y24051
X16651Y25251
X16651Y26251
X16651Y27251
X16651Y28251
X16651Y29251
X16651Y30251
X16651Y31451
X16651Y32451
X16651Y33451
X16651Y34451
X16651Y35451
X16651Y36451
X16651Y37651
X16651Y38651
X16651Y39651
X16651Y40651
X16651Y41651
X16651Y42651
X23351Y42651
X23351Y41651
X23351Y40651
X23351Y39651
X23351Y38651
X23351Y37651
X23351Y36451
X23351Y35451
X23351Y34451
X23351Y33451
X23351Y32451
X23351Y31451
X23351Y30251
X23351Y29251
X23351Y28251
X23351Y27251
X23351Y26251
X23351Y25251
X23351Y24051
X23351Y23051
X23351Y22051
X23351Y21051
X23351Y20051
X23351Y19051
X23351Y17851
X23351Y16851
X23351Y15851
X23351Y14851
X23351Y13851
X23351Y12851
X23351Y11651
X23351Y10651
X23351Y9651
X23351Y8651
X23351Y7651
X23351Y6651
X30051Y6651
X30051Y7651
X30051Y8651
X30051Y9651
X30051Y10651
X30051Y11651
X30051Y12851
X30051Y13851
X30051Y14851
X30051Y15851
X30051Y16851
X30051Y17851
X30051Y19051
X30051Y20051
X30051Y21051
X30051Y22051
X30051Y23051
X30051Y24051
X30051Y25251
X30051Y26251
X30051Y27251
X30051Y28251
X30051Y29251
X30051Y30251
X30051Y31451
X30051Y32451
X30051Y33451
X30051Y34451
X30051Y35451
X30051Y36451
X30051Y37651
X30051Y38651
X30051Y39651
X30051Y40651
X30051Y41651
X30051Y42651
X36751Y42651
X36751Y41651
X36751Y40651
X36751Y39651
X36751Y38651
X36751Y37651
X36751Y36451
X36751Y35451
X36751Y34451
X36751Y33451
X36751Y32451
X36751Y31451
X36751Y30251
X36751Y29251
X36751Y28251
X36751Y27251
X36751Y26251
X36751Y25251
X36751Y24051
X36751Y23051
X36751Y22051
X36751Y21051
X36751Y20051
X36751Y19051
X36751Y17851
X36751Y16851
X36751Y15851
X36751Y14851
X36751Y13851
X36751Y12851
X36751Y11651
X36751Y10651
X36751Y9651
X36751Y8651
X36751Y7651
X36751Y6651
X43451Y6651
X43451Y7651
X43451Y8651
X43451Y9651
X43451Y10651
X43451Y11651
X43451Y12851
X43451Y13851
X43451Y14851
X43451Y15851
X43451Y16851
X43451Y17851
X43451Y19051
X43451Y20051
X43451Y21051
X43451Y22051
X43451Y23051
X43451Y24051
X43451Y25251
X43451Y26251
X43451Y27251
X43451Y28251
X43451Y29251
X43451Y30251
X43451Y31451
X43451Y32451
X43451Y33451
X43451Y34451
X43451Y35451
X43451Y36451
X43451Y37651
X43451Y38651
X43451Y39651
X43451Y40651
X43451Y41651
X43451Y42651
T02
X7151Y2151
X3651Y7551
X3651Y12289
X3651Y17051
X3651Y21789
X3651Y27551
X3651Y32289
X3651Y37051
X3651Y41789
X7151Y47151
X27151Y47151
X46151Y47151
X46151Y2151
X27151Y2151
M30
