G75*
G70*
%OFA0B0*%
%FSLAX24Y24*%
%IPPOS*%
%LPD*%
%AMOC8*
5,1,8,0,0,1.08239X$1,22.5*
%
%ADD10C,0.0060*%
D10*
X005305Y001622D02*
X007925Y001622D01*
X008065Y001762D01*
X008065Y004382D01*
X005305Y004382D01*
X005305Y001622D01*
X007624Y001922D02*
X007626Y001945D01*
X007632Y001968D01*
X007641Y001989D01*
X007654Y002009D01*
X007670Y002026D01*
X007688Y002040D01*
X007708Y002051D01*
X007730Y002059D01*
X007753Y002063D01*
X007777Y002063D01*
X007800Y002059D01*
X007822Y002051D01*
X007842Y002040D01*
X007860Y002026D01*
X007876Y002009D01*
X007889Y001989D01*
X007898Y001968D01*
X007904Y001945D01*
X007906Y001922D01*
X007904Y001899D01*
X007898Y001876D01*
X007889Y001855D01*
X007876Y001835D01*
X007860Y001818D01*
X007842Y001804D01*
X007822Y001793D01*
X007800Y001785D01*
X007777Y001781D01*
X007753Y001781D01*
X007730Y001785D01*
X007708Y001793D01*
X007688Y001804D01*
X007670Y001818D01*
X007654Y001835D01*
X007641Y001855D01*
X007632Y001876D01*
X007626Y001899D01*
X007624Y001922D01*
M02*
