G75*
G70*
%OFA0B0*%
%FSLAX24Y24*%
%IPPOS*%
%LPD*%
%AMOC8*
5,1,8,0,0,1.08239X$1,22.5*
%
%ADD10C,0.0080*%
%ADD11C,0.0220*%
%ADD12C,0.0050*%
%ADD13C,0.0010*%
D10*
X005095Y003398D02*
X005095Y003497D01*
X005194Y003597D01*
X005293Y003597D01*
X005392Y003497D01*
X005392Y003398D01*
X005293Y003299D01*
X005194Y003299D01*
X005095Y003398D01*
X005564Y003325D02*
X005614Y003276D01*
X005614Y003078D01*
X005515Y002979D02*
X005713Y003177D01*
X005840Y003049D02*
X005989Y002901D01*
X005989Y002802D01*
X005890Y002703D01*
X005791Y002703D01*
X005642Y002851D01*
X005958Y002535D02*
X006057Y002436D01*
X006008Y002486D02*
X006206Y002684D01*
X006256Y002634D01*
X006305Y002783D02*
X006355Y002832D01*
X006482Y002606D02*
X006185Y002309D01*
X006383Y002111D02*
X006680Y002408D01*
X006482Y002408D01*
X006482Y002606D01*
X006659Y002132D02*
X006510Y001983D01*
X006659Y001835D01*
X006758Y001835D01*
X006758Y001934D01*
X006609Y002082D01*
X006659Y002132D02*
X006758Y002132D01*
X006857Y002033D01*
X007034Y001856D02*
X007183Y001707D01*
X007182Y001608D01*
X007083Y001509D01*
X006984Y001509D01*
X006836Y001658D01*
X006786Y001608D02*
X007034Y001856D01*
X006786Y001608D02*
X006786Y001509D01*
X006836Y001460D01*
X007211Y001283D02*
X007310Y001184D01*
X007409Y001184D01*
X007508Y001283D01*
X007508Y001382D01*
X007409Y001481D01*
X007310Y001481D01*
X007260Y001431D01*
X007458Y001233D01*
X007487Y001007D02*
X007784Y001304D01*
X007784Y001106D01*
X007982Y001106D01*
X007685Y000809D01*
X007519Y004400D02*
X006929Y004400D01*
X007519Y004400D02*
X007519Y005344D01*
X006929Y005344D01*
X006141Y005344D02*
X005708Y005344D01*
X005551Y005187D01*
X005551Y004557D01*
X005708Y004400D01*
X006141Y004400D01*
D11*
X006935Y004014D02*
X006935Y003990D01*
D12*
X006385Y004472D02*
X006385Y005272D01*
D13*
X005049Y001811D02*
X005075Y001764D01*
X005110Y001723D01*
X005174Y001659D01*
X005183Y001646D01*
X005189Y001632D01*
X005201Y001587D01*
X005203Y001541D01*
X005186Y001253D01*
X005608Y001675D01*
X005629Y001700D01*
X005644Y001729D01*
X005654Y001760D01*
X005656Y001789D01*
X005652Y001817D01*
X005643Y001844D01*
X005629Y001869D01*
X005605Y001897D01*
X005577Y001921D01*
X005561Y001932D01*
X005566Y001928D01*
X005570Y001922D01*
X005572Y001915D01*
X005579Y001875D01*
X005579Y001867D01*
X005577Y001860D01*
X005567Y001845D01*
X005554Y001832D01*
X005539Y001823D01*
X005521Y001817D01*
X005502Y001816D01*
X005473Y001823D01*
X005448Y001837D01*
X005426Y001857D01*
X005411Y001877D01*
X005400Y001900D01*
X005393Y001924D01*
X005391Y001947D01*
X005395Y001970D01*
X005405Y001991D01*
X005420Y002008D01*
X005440Y002022D01*
X005461Y002029D01*
X005027Y002029D01*
X005026Y002028D02*
X005047Y002102D01*
X005080Y002170D01*
X005125Y002231D01*
X005181Y002283D01*
X005215Y002306D01*
X005253Y002324D01*
X005293Y002336D01*
X005350Y002342D01*
X005407Y002337D01*
X005382Y002312D01*
X005379Y002307D01*
X005377Y002302D01*
X005210Y002302D01*
X005197Y002294D02*
X005376Y002294D01*
X005377Y002302D02*
X005375Y002284D01*
X005378Y002265D01*
X005381Y002257D01*
X005396Y002240D01*
X005414Y002227D01*
X005436Y002220D01*
X005480Y002213D01*
X005502Y002211D01*
X005524Y002213D01*
X005545Y002218D01*
X005565Y002226D01*
X005576Y002234D01*
X005585Y002243D01*
X005596Y002263D01*
X005601Y002285D01*
X005705Y002285D01*
X005710Y002277D02*
X005599Y002277D01*
X005601Y002285D02*
X005600Y002308D01*
X005594Y002330D01*
X005583Y002348D01*
X005570Y002364D01*
X005553Y002381D01*
X005555Y002381D01*
X005576Y002379D01*
X005596Y002371D01*
X005564Y002371D01*
X005570Y002379D02*
X005555Y002379D01*
X005572Y002362D02*
X005618Y002362D01*
X005620Y002361D02*
X005650Y002343D01*
X005678Y002320D01*
X005700Y002294D01*
X005717Y002265D01*
X005728Y002232D01*
X005734Y002195D01*
X005735Y002157D01*
X005730Y002128D01*
X005718Y002102D01*
X005700Y002079D01*
X005677Y002061D01*
X005650Y002050D01*
X005568Y002034D01*
X005485Y002031D01*
X005461Y002029D01*
X005438Y002020D02*
X005026Y002020D01*
X005025Y002012D02*
X005426Y002012D01*
X005416Y002003D02*
X005024Y002003D01*
X005023Y001995D02*
X005409Y001995D01*
X005403Y001986D02*
X005022Y001986D01*
X005021Y001978D02*
X005399Y001978D01*
X005395Y001969D02*
X005020Y001969D01*
X005020Y001973D02*
X005026Y002028D01*
X005029Y002038D02*
X005588Y002038D01*
X005632Y002046D02*
X005031Y002046D01*
X005034Y002055D02*
X005662Y002055D01*
X005680Y002063D02*
X005036Y002063D01*
X005039Y002072D02*
X005691Y002072D01*
X005702Y002080D02*
X005041Y002080D01*
X005043Y002089D02*
X005708Y002089D01*
X005715Y002097D02*
X005046Y002097D01*
X005049Y002106D02*
X005720Y002106D01*
X005724Y002114D02*
X005053Y002114D01*
X005057Y002123D02*
X005728Y002123D01*
X005731Y002131D02*
X005062Y002131D01*
X005066Y002140D02*
X005732Y002140D01*
X005734Y002149D02*
X005070Y002149D01*
X005074Y002157D02*
X005735Y002157D01*
X005735Y002166D02*
X005078Y002166D01*
X005083Y002174D02*
X005735Y002174D01*
X005734Y002183D02*
X005090Y002183D01*
X005096Y002191D02*
X005734Y002191D01*
X005733Y002200D02*
X005102Y002200D01*
X005109Y002208D02*
X005732Y002208D01*
X005730Y002217D02*
X005540Y002217D01*
X005563Y002225D02*
X005729Y002225D01*
X005727Y002234D02*
X005577Y002234D01*
X005584Y002243D02*
X005724Y002243D01*
X005722Y002251D02*
X005589Y002251D01*
X005594Y002260D02*
X005719Y002260D01*
X005715Y002268D02*
X005597Y002268D01*
X005601Y002294D02*
X005700Y002294D01*
X005693Y002302D02*
X005600Y002302D01*
X005599Y002311D02*
X005686Y002311D01*
X005679Y002319D02*
X005597Y002319D01*
X005594Y002328D02*
X005669Y002328D01*
X005658Y002337D02*
X005590Y002337D01*
X005585Y002345D02*
X005647Y002345D01*
X005633Y002354D02*
X005579Y002354D01*
X005596Y002371D02*
X005611Y002365D01*
X005620Y002361D01*
X005407Y002337D02*
X005298Y002337D01*
X005267Y002328D02*
X005398Y002328D01*
X005390Y002319D02*
X005244Y002319D01*
X005226Y002311D02*
X005381Y002311D01*
X005375Y002285D02*
X005184Y002285D01*
X005174Y002277D02*
X005376Y002277D01*
X005377Y002268D02*
X005165Y002268D01*
X005156Y002260D02*
X005380Y002260D01*
X005387Y002251D02*
X005147Y002251D01*
X005138Y002243D02*
X005393Y002243D01*
X005404Y002234D02*
X005129Y002234D01*
X005121Y002225D02*
X005419Y002225D01*
X005455Y002217D02*
X005115Y002217D01*
X005020Y001973D02*
X005022Y001917D01*
X005031Y001862D01*
X005049Y001811D01*
X005048Y001815D02*
X005653Y001815D01*
X005654Y001807D02*
X005051Y001807D01*
X005056Y001798D02*
X005655Y001798D01*
X005656Y001790D02*
X005061Y001790D01*
X005066Y001781D02*
X005655Y001781D01*
X005655Y001773D02*
X005071Y001773D01*
X005076Y001764D02*
X005654Y001764D01*
X005652Y001756D02*
X005083Y001756D01*
X005090Y001747D02*
X005650Y001747D01*
X005647Y001739D02*
X005097Y001739D01*
X005104Y001730D02*
X005645Y001730D01*
X005641Y001721D02*
X005111Y001721D01*
X005120Y001713D02*
X005636Y001713D01*
X005631Y001704D02*
X005129Y001704D01*
X005137Y001696D02*
X005625Y001696D01*
X005618Y001687D02*
X005146Y001687D01*
X005154Y001679D02*
X005611Y001679D01*
X005603Y001670D02*
X005163Y001670D01*
X005171Y001662D02*
X005595Y001662D01*
X005586Y001653D02*
X005178Y001653D01*
X005183Y001645D02*
X005577Y001645D01*
X005569Y001636D02*
X005187Y001636D01*
X005190Y001627D02*
X005560Y001627D01*
X005552Y001619D02*
X005193Y001619D01*
X005195Y001610D02*
X005543Y001610D01*
X005535Y001602D02*
X005197Y001602D01*
X005199Y001593D02*
X005526Y001593D01*
X005518Y001585D02*
X005201Y001585D01*
X005201Y001576D02*
X005509Y001576D01*
X005501Y001568D02*
X005201Y001568D01*
X005202Y001559D02*
X005492Y001559D01*
X005483Y001551D02*
X005202Y001551D01*
X005203Y001542D02*
X005475Y001542D01*
X005466Y001533D02*
X005202Y001533D01*
X005202Y001525D02*
X005458Y001525D01*
X005449Y001516D02*
X005201Y001516D01*
X005201Y001508D02*
X005441Y001508D01*
X005432Y001499D02*
X005200Y001499D01*
X005200Y001491D02*
X005424Y001491D01*
X005415Y001482D02*
X005199Y001482D01*
X005199Y001474D02*
X005407Y001474D01*
X005398Y001465D02*
X005198Y001465D01*
X005198Y001457D02*
X005389Y001457D01*
X005381Y001448D02*
X005197Y001448D01*
X005197Y001439D02*
X005372Y001439D01*
X005364Y001431D02*
X005196Y001431D01*
X005196Y001422D02*
X005355Y001422D01*
X005347Y001414D02*
X005195Y001414D01*
X005195Y001405D02*
X005338Y001405D01*
X005330Y001397D02*
X005194Y001397D01*
X005194Y001388D02*
X005321Y001388D01*
X005313Y001380D02*
X005193Y001380D01*
X005193Y001371D02*
X005304Y001371D01*
X005296Y001363D02*
X005192Y001363D01*
X005192Y001354D02*
X005287Y001354D01*
X005278Y001346D02*
X005191Y001346D01*
X005191Y001337D02*
X005270Y001337D01*
X005261Y001328D02*
X005190Y001328D01*
X005189Y001320D02*
X005253Y001320D01*
X005244Y001311D02*
X005189Y001311D01*
X005189Y001303D02*
X005236Y001303D01*
X005227Y001294D02*
X005188Y001294D01*
X005187Y001286D02*
X005219Y001286D01*
X005210Y001277D02*
X005187Y001277D01*
X005186Y001269D02*
X005202Y001269D01*
X005193Y001260D02*
X005186Y001260D01*
X005045Y001824D02*
X005472Y001824D01*
X005456Y001832D02*
X005042Y001832D01*
X005039Y001841D02*
X005443Y001841D01*
X005434Y001850D02*
X005036Y001850D01*
X005033Y001858D02*
X005425Y001858D01*
X005419Y001867D02*
X005031Y001867D01*
X005029Y001875D02*
X005412Y001875D01*
X005408Y001884D02*
X005028Y001884D01*
X005026Y001892D02*
X005404Y001892D01*
X005400Y001901D02*
X005025Y001901D01*
X005023Y001909D02*
X005397Y001909D01*
X005394Y001918D02*
X005022Y001918D01*
X005022Y001926D02*
X005393Y001926D01*
X005392Y001935D02*
X005021Y001935D01*
X005021Y001944D02*
X005391Y001944D01*
X005392Y001952D02*
X005021Y001952D01*
X005021Y001961D02*
X005394Y001961D01*
X005567Y001926D02*
X005569Y001926D01*
X005572Y001918D02*
X005580Y001918D01*
X005573Y001909D02*
X005590Y001909D01*
X005600Y001901D02*
X005575Y001901D01*
X005576Y001892D02*
X005609Y001892D01*
X005616Y001884D02*
X005577Y001884D01*
X005579Y001875D02*
X005623Y001875D01*
X005630Y001867D02*
X005579Y001867D01*
X005575Y001858D02*
X005635Y001858D01*
X005640Y001850D02*
X005570Y001850D01*
X005563Y001841D02*
X005644Y001841D01*
X005647Y001832D02*
X005555Y001832D01*
X005541Y001824D02*
X005650Y001824D01*
M02*
