G75*
G70*
%OFA0B0*%
%FSLAX24Y24*%
%IPPOS*%
%LPD*%
%AMOC8*
5,1,8,0,0,1.08239X$1,22.5*
%
%ADD10C,0.0100*%
%ADD11C,0.0000*%
D10*
X000151Y001151D02*
X000151Y041151D01*
X000153Y041211D01*
X000158Y041272D01*
X000167Y041331D01*
X000180Y041390D01*
X000196Y041449D01*
X000216Y041506D01*
X000239Y041561D01*
X000266Y041616D01*
X000295Y041668D01*
X000328Y041719D01*
X000364Y041768D01*
X000402Y041814D01*
X000444Y041858D01*
X000488Y041900D01*
X000534Y041938D01*
X000583Y041974D01*
X000634Y042007D01*
X000686Y042036D01*
X000741Y042063D01*
X000796Y042086D01*
X000853Y042106D01*
X000912Y042122D01*
X000971Y042135D01*
X001030Y042144D01*
X001091Y042149D01*
X001151Y042151D01*
X005151Y042151D01*
X005211Y042149D01*
X005272Y042144D01*
X005331Y042135D01*
X005390Y042122D01*
X005449Y042106D01*
X005506Y042086D01*
X005561Y042063D01*
X005616Y042036D01*
X005668Y042007D01*
X005719Y041974D01*
X005768Y041938D01*
X005814Y041900D01*
X005858Y041858D01*
X005900Y041814D01*
X005938Y041768D01*
X005974Y041719D01*
X006007Y041668D01*
X006036Y041616D01*
X006063Y041561D01*
X006086Y041506D01*
X006106Y041449D01*
X006122Y041390D01*
X006135Y041331D01*
X006144Y041272D01*
X006149Y041211D01*
X006151Y041151D01*
X006151Y003651D01*
X006151Y001151D01*
X006151Y003651D02*
X006151Y004151D01*
X006151Y001151D02*
X006149Y001091D01*
X006144Y001030D01*
X006135Y000971D01*
X006122Y000912D01*
X006106Y000853D01*
X006086Y000796D01*
X006063Y000741D01*
X006036Y000686D01*
X006007Y000634D01*
X005974Y000583D01*
X005938Y000534D01*
X005900Y000488D01*
X005858Y000444D01*
X005814Y000402D01*
X005768Y000364D01*
X005719Y000328D01*
X005668Y000295D01*
X005616Y000266D01*
X005561Y000239D01*
X005506Y000216D01*
X005449Y000196D01*
X005390Y000180D01*
X005331Y000167D01*
X005272Y000158D01*
X005211Y000153D01*
X005151Y000151D01*
X001151Y000151D01*
X001091Y000153D01*
X001030Y000158D01*
X000971Y000167D01*
X000912Y000180D01*
X000853Y000196D01*
X000796Y000216D01*
X000741Y000239D01*
X000686Y000266D01*
X000634Y000295D01*
X000583Y000328D01*
X000534Y000364D01*
X000488Y000402D01*
X000444Y000444D01*
X000402Y000488D01*
X000364Y000534D01*
X000328Y000583D01*
X000295Y000634D01*
X000266Y000686D01*
X000239Y000741D01*
X000216Y000796D01*
X000196Y000853D01*
X000180Y000912D01*
X000167Y000971D01*
X000158Y001030D01*
X000153Y001091D01*
X000151Y001151D01*
D11*
X003051Y004051D02*
X003053Y004100D01*
X003059Y004148D01*
X003069Y004196D01*
X003083Y004243D01*
X003100Y004289D01*
X003121Y004333D01*
X003146Y004375D01*
X003174Y004415D01*
X003206Y004453D01*
X003240Y004488D01*
X003277Y004520D01*
X003316Y004549D01*
X003358Y004575D01*
X003402Y004597D01*
X003447Y004615D01*
X003494Y004630D01*
X003541Y004641D01*
X003590Y004648D01*
X003639Y004651D01*
X003688Y004650D01*
X003736Y004645D01*
X003785Y004636D01*
X003832Y004623D01*
X003878Y004606D01*
X003922Y004586D01*
X003965Y004562D01*
X004006Y004535D01*
X004044Y004504D01*
X004080Y004471D01*
X004112Y004435D01*
X004142Y004396D01*
X004169Y004355D01*
X004192Y004311D01*
X004211Y004266D01*
X004227Y004220D01*
X004239Y004173D01*
X004247Y004124D01*
X004251Y004075D01*
X004251Y004027D01*
X004247Y003978D01*
X004239Y003929D01*
X004227Y003882D01*
X004211Y003836D01*
X004192Y003791D01*
X004169Y003747D01*
X004142Y003706D01*
X004112Y003667D01*
X004080Y003631D01*
X004044Y003598D01*
X004006Y003567D01*
X003965Y003540D01*
X003922Y003516D01*
X003878Y003496D01*
X003832Y003479D01*
X003785Y003466D01*
X003736Y003457D01*
X003688Y003452D01*
X003639Y003451D01*
X003590Y003454D01*
X003541Y003461D01*
X003494Y003472D01*
X003447Y003487D01*
X003402Y003505D01*
X003358Y003527D01*
X003316Y003553D01*
X003277Y003582D01*
X003240Y003614D01*
X003206Y003649D01*
X003174Y003687D01*
X003146Y003727D01*
X003121Y003769D01*
X003100Y003813D01*
X003083Y003859D01*
X003069Y003906D01*
X003059Y003954D01*
X003053Y004002D01*
X003051Y004051D01*
X003051Y008789D02*
X003053Y008838D01*
X003059Y008886D01*
X003069Y008934D01*
X003083Y008981D01*
X003100Y009027D01*
X003121Y009071D01*
X003146Y009113D01*
X003174Y009153D01*
X003206Y009191D01*
X003240Y009226D01*
X003277Y009258D01*
X003316Y009287D01*
X003358Y009313D01*
X003402Y009335D01*
X003447Y009353D01*
X003494Y009368D01*
X003541Y009379D01*
X003590Y009386D01*
X003639Y009389D01*
X003688Y009388D01*
X003736Y009383D01*
X003785Y009374D01*
X003832Y009361D01*
X003878Y009344D01*
X003922Y009324D01*
X003965Y009300D01*
X004006Y009273D01*
X004044Y009242D01*
X004080Y009209D01*
X004112Y009173D01*
X004142Y009134D01*
X004169Y009093D01*
X004192Y009049D01*
X004211Y009004D01*
X004227Y008958D01*
X004239Y008911D01*
X004247Y008862D01*
X004251Y008813D01*
X004251Y008765D01*
X004247Y008716D01*
X004239Y008667D01*
X004227Y008620D01*
X004211Y008574D01*
X004192Y008529D01*
X004169Y008485D01*
X004142Y008444D01*
X004112Y008405D01*
X004080Y008369D01*
X004044Y008336D01*
X004006Y008305D01*
X003965Y008278D01*
X003922Y008254D01*
X003878Y008234D01*
X003832Y008217D01*
X003785Y008204D01*
X003736Y008195D01*
X003688Y008190D01*
X003639Y008189D01*
X003590Y008192D01*
X003541Y008199D01*
X003494Y008210D01*
X003447Y008225D01*
X003402Y008243D01*
X003358Y008265D01*
X003316Y008291D01*
X003277Y008320D01*
X003240Y008352D01*
X003206Y008387D01*
X003174Y008425D01*
X003146Y008465D01*
X003121Y008507D01*
X003100Y008551D01*
X003083Y008597D01*
X003069Y008644D01*
X003059Y008692D01*
X003053Y008740D01*
X003051Y008789D01*
X003051Y013551D02*
X003053Y013600D01*
X003059Y013648D01*
X003069Y013696D01*
X003083Y013743D01*
X003100Y013789D01*
X003121Y013833D01*
X003146Y013875D01*
X003174Y013915D01*
X003206Y013953D01*
X003240Y013988D01*
X003277Y014020D01*
X003316Y014049D01*
X003358Y014075D01*
X003402Y014097D01*
X003447Y014115D01*
X003494Y014130D01*
X003541Y014141D01*
X003590Y014148D01*
X003639Y014151D01*
X003688Y014150D01*
X003736Y014145D01*
X003785Y014136D01*
X003832Y014123D01*
X003878Y014106D01*
X003922Y014086D01*
X003965Y014062D01*
X004006Y014035D01*
X004044Y014004D01*
X004080Y013971D01*
X004112Y013935D01*
X004142Y013896D01*
X004169Y013855D01*
X004192Y013811D01*
X004211Y013766D01*
X004227Y013720D01*
X004239Y013673D01*
X004247Y013624D01*
X004251Y013575D01*
X004251Y013527D01*
X004247Y013478D01*
X004239Y013429D01*
X004227Y013382D01*
X004211Y013336D01*
X004192Y013291D01*
X004169Y013247D01*
X004142Y013206D01*
X004112Y013167D01*
X004080Y013131D01*
X004044Y013098D01*
X004006Y013067D01*
X003965Y013040D01*
X003922Y013016D01*
X003878Y012996D01*
X003832Y012979D01*
X003785Y012966D01*
X003736Y012957D01*
X003688Y012952D01*
X003639Y012951D01*
X003590Y012954D01*
X003541Y012961D01*
X003494Y012972D01*
X003447Y012987D01*
X003402Y013005D01*
X003358Y013027D01*
X003316Y013053D01*
X003277Y013082D01*
X003240Y013114D01*
X003206Y013149D01*
X003174Y013187D01*
X003146Y013227D01*
X003121Y013269D01*
X003100Y013313D01*
X003083Y013359D01*
X003069Y013406D01*
X003059Y013454D01*
X003053Y013502D01*
X003051Y013551D01*
X003051Y018289D02*
X003053Y018338D01*
X003059Y018386D01*
X003069Y018434D01*
X003083Y018481D01*
X003100Y018527D01*
X003121Y018571D01*
X003146Y018613D01*
X003174Y018653D01*
X003206Y018691D01*
X003240Y018726D01*
X003277Y018758D01*
X003316Y018787D01*
X003358Y018813D01*
X003402Y018835D01*
X003447Y018853D01*
X003494Y018868D01*
X003541Y018879D01*
X003590Y018886D01*
X003639Y018889D01*
X003688Y018888D01*
X003736Y018883D01*
X003785Y018874D01*
X003832Y018861D01*
X003878Y018844D01*
X003922Y018824D01*
X003965Y018800D01*
X004006Y018773D01*
X004044Y018742D01*
X004080Y018709D01*
X004112Y018673D01*
X004142Y018634D01*
X004169Y018593D01*
X004192Y018549D01*
X004211Y018504D01*
X004227Y018458D01*
X004239Y018411D01*
X004247Y018362D01*
X004251Y018313D01*
X004251Y018265D01*
X004247Y018216D01*
X004239Y018167D01*
X004227Y018120D01*
X004211Y018074D01*
X004192Y018029D01*
X004169Y017985D01*
X004142Y017944D01*
X004112Y017905D01*
X004080Y017869D01*
X004044Y017836D01*
X004006Y017805D01*
X003965Y017778D01*
X003922Y017754D01*
X003878Y017734D01*
X003832Y017717D01*
X003785Y017704D01*
X003736Y017695D01*
X003688Y017690D01*
X003639Y017689D01*
X003590Y017692D01*
X003541Y017699D01*
X003494Y017710D01*
X003447Y017725D01*
X003402Y017743D01*
X003358Y017765D01*
X003316Y017791D01*
X003277Y017820D01*
X003240Y017852D01*
X003206Y017887D01*
X003174Y017925D01*
X003146Y017965D01*
X003121Y018007D01*
X003100Y018051D01*
X003083Y018097D01*
X003069Y018144D01*
X003059Y018192D01*
X003053Y018240D01*
X003051Y018289D01*
X003051Y024051D02*
X003053Y024100D01*
X003059Y024148D01*
X003069Y024196D01*
X003083Y024243D01*
X003100Y024289D01*
X003121Y024333D01*
X003146Y024375D01*
X003174Y024415D01*
X003206Y024453D01*
X003240Y024488D01*
X003277Y024520D01*
X003316Y024549D01*
X003358Y024575D01*
X003402Y024597D01*
X003447Y024615D01*
X003494Y024630D01*
X003541Y024641D01*
X003590Y024648D01*
X003639Y024651D01*
X003688Y024650D01*
X003736Y024645D01*
X003785Y024636D01*
X003832Y024623D01*
X003878Y024606D01*
X003922Y024586D01*
X003965Y024562D01*
X004006Y024535D01*
X004044Y024504D01*
X004080Y024471D01*
X004112Y024435D01*
X004142Y024396D01*
X004169Y024355D01*
X004192Y024311D01*
X004211Y024266D01*
X004227Y024220D01*
X004239Y024173D01*
X004247Y024124D01*
X004251Y024075D01*
X004251Y024027D01*
X004247Y023978D01*
X004239Y023929D01*
X004227Y023882D01*
X004211Y023836D01*
X004192Y023791D01*
X004169Y023747D01*
X004142Y023706D01*
X004112Y023667D01*
X004080Y023631D01*
X004044Y023598D01*
X004006Y023567D01*
X003965Y023540D01*
X003922Y023516D01*
X003878Y023496D01*
X003832Y023479D01*
X003785Y023466D01*
X003736Y023457D01*
X003688Y023452D01*
X003639Y023451D01*
X003590Y023454D01*
X003541Y023461D01*
X003494Y023472D01*
X003447Y023487D01*
X003402Y023505D01*
X003358Y023527D01*
X003316Y023553D01*
X003277Y023582D01*
X003240Y023614D01*
X003206Y023649D01*
X003174Y023687D01*
X003146Y023727D01*
X003121Y023769D01*
X003100Y023813D01*
X003083Y023859D01*
X003069Y023906D01*
X003059Y023954D01*
X003053Y024002D01*
X003051Y024051D01*
X003051Y028789D02*
X003053Y028838D01*
X003059Y028886D01*
X003069Y028934D01*
X003083Y028981D01*
X003100Y029027D01*
X003121Y029071D01*
X003146Y029113D01*
X003174Y029153D01*
X003206Y029191D01*
X003240Y029226D01*
X003277Y029258D01*
X003316Y029287D01*
X003358Y029313D01*
X003402Y029335D01*
X003447Y029353D01*
X003494Y029368D01*
X003541Y029379D01*
X003590Y029386D01*
X003639Y029389D01*
X003688Y029388D01*
X003736Y029383D01*
X003785Y029374D01*
X003832Y029361D01*
X003878Y029344D01*
X003922Y029324D01*
X003965Y029300D01*
X004006Y029273D01*
X004044Y029242D01*
X004080Y029209D01*
X004112Y029173D01*
X004142Y029134D01*
X004169Y029093D01*
X004192Y029049D01*
X004211Y029004D01*
X004227Y028958D01*
X004239Y028911D01*
X004247Y028862D01*
X004251Y028813D01*
X004251Y028765D01*
X004247Y028716D01*
X004239Y028667D01*
X004227Y028620D01*
X004211Y028574D01*
X004192Y028529D01*
X004169Y028485D01*
X004142Y028444D01*
X004112Y028405D01*
X004080Y028369D01*
X004044Y028336D01*
X004006Y028305D01*
X003965Y028278D01*
X003922Y028254D01*
X003878Y028234D01*
X003832Y028217D01*
X003785Y028204D01*
X003736Y028195D01*
X003688Y028190D01*
X003639Y028189D01*
X003590Y028192D01*
X003541Y028199D01*
X003494Y028210D01*
X003447Y028225D01*
X003402Y028243D01*
X003358Y028265D01*
X003316Y028291D01*
X003277Y028320D01*
X003240Y028352D01*
X003206Y028387D01*
X003174Y028425D01*
X003146Y028465D01*
X003121Y028507D01*
X003100Y028551D01*
X003083Y028597D01*
X003069Y028644D01*
X003059Y028692D01*
X003053Y028740D01*
X003051Y028789D01*
X003051Y033551D02*
X003053Y033600D01*
X003059Y033648D01*
X003069Y033696D01*
X003083Y033743D01*
X003100Y033789D01*
X003121Y033833D01*
X003146Y033875D01*
X003174Y033915D01*
X003206Y033953D01*
X003240Y033988D01*
X003277Y034020D01*
X003316Y034049D01*
X003358Y034075D01*
X003402Y034097D01*
X003447Y034115D01*
X003494Y034130D01*
X003541Y034141D01*
X003590Y034148D01*
X003639Y034151D01*
X003688Y034150D01*
X003736Y034145D01*
X003785Y034136D01*
X003832Y034123D01*
X003878Y034106D01*
X003922Y034086D01*
X003965Y034062D01*
X004006Y034035D01*
X004044Y034004D01*
X004080Y033971D01*
X004112Y033935D01*
X004142Y033896D01*
X004169Y033855D01*
X004192Y033811D01*
X004211Y033766D01*
X004227Y033720D01*
X004239Y033673D01*
X004247Y033624D01*
X004251Y033575D01*
X004251Y033527D01*
X004247Y033478D01*
X004239Y033429D01*
X004227Y033382D01*
X004211Y033336D01*
X004192Y033291D01*
X004169Y033247D01*
X004142Y033206D01*
X004112Y033167D01*
X004080Y033131D01*
X004044Y033098D01*
X004006Y033067D01*
X003965Y033040D01*
X003922Y033016D01*
X003878Y032996D01*
X003832Y032979D01*
X003785Y032966D01*
X003736Y032957D01*
X003688Y032952D01*
X003639Y032951D01*
X003590Y032954D01*
X003541Y032961D01*
X003494Y032972D01*
X003447Y032987D01*
X003402Y033005D01*
X003358Y033027D01*
X003316Y033053D01*
X003277Y033082D01*
X003240Y033114D01*
X003206Y033149D01*
X003174Y033187D01*
X003146Y033227D01*
X003121Y033269D01*
X003100Y033313D01*
X003083Y033359D01*
X003069Y033406D01*
X003059Y033454D01*
X003053Y033502D01*
X003051Y033551D01*
X003051Y038289D02*
X003053Y038338D01*
X003059Y038386D01*
X003069Y038434D01*
X003083Y038481D01*
X003100Y038527D01*
X003121Y038571D01*
X003146Y038613D01*
X003174Y038653D01*
X003206Y038691D01*
X003240Y038726D01*
X003277Y038758D01*
X003316Y038787D01*
X003358Y038813D01*
X003402Y038835D01*
X003447Y038853D01*
X003494Y038868D01*
X003541Y038879D01*
X003590Y038886D01*
X003639Y038889D01*
X003688Y038888D01*
X003736Y038883D01*
X003785Y038874D01*
X003832Y038861D01*
X003878Y038844D01*
X003922Y038824D01*
X003965Y038800D01*
X004006Y038773D01*
X004044Y038742D01*
X004080Y038709D01*
X004112Y038673D01*
X004142Y038634D01*
X004169Y038593D01*
X004192Y038549D01*
X004211Y038504D01*
X004227Y038458D01*
X004239Y038411D01*
X004247Y038362D01*
X004251Y038313D01*
X004251Y038265D01*
X004247Y038216D01*
X004239Y038167D01*
X004227Y038120D01*
X004211Y038074D01*
X004192Y038029D01*
X004169Y037985D01*
X004142Y037944D01*
X004112Y037905D01*
X004080Y037869D01*
X004044Y037836D01*
X004006Y037805D01*
X003965Y037778D01*
X003922Y037754D01*
X003878Y037734D01*
X003832Y037717D01*
X003785Y037704D01*
X003736Y037695D01*
X003688Y037690D01*
X003639Y037689D01*
X003590Y037692D01*
X003541Y037699D01*
X003494Y037710D01*
X003447Y037725D01*
X003402Y037743D01*
X003358Y037765D01*
X003316Y037791D01*
X003277Y037820D01*
X003240Y037852D01*
X003206Y037887D01*
X003174Y037925D01*
X003146Y037965D01*
X003121Y038007D01*
X003100Y038051D01*
X003083Y038097D01*
X003069Y038144D01*
X003059Y038192D01*
X003053Y038240D01*
X003051Y038289D01*
M02*
