G75*
G70*
%OFA0B0*%
%FSLAX24Y24*%
%IPPOS*%
%LPD*%
%AMOC8*
5,1,8,0,0,1.08239X$1,22.5*
%
%ADD10C,0.0130*%
D10*
X046477Y009460D02*
X046356Y009703D01*
X046477Y009460D02*
X046721Y009216D01*
X046721Y009581D01*
X046843Y009703D01*
X046964Y009703D01*
X047086Y009581D01*
X047086Y009338D01*
X046964Y009216D01*
X046721Y009216D01*
X046356Y010008D02*
X047086Y010008D01*
X047086Y010373D01*
X046964Y010495D01*
X046477Y010495D01*
X046356Y010373D01*
X046356Y010008D01*
X046721Y010800D02*
X046964Y010800D01*
X047086Y010922D01*
X047086Y011165D01*
X046964Y011287D01*
X046721Y011287D01*
X046599Y011165D01*
X046599Y010922D01*
X046721Y010800D01*
X046721Y011592D02*
X046721Y011835D01*
X047086Y011592D02*
X046356Y011592D01*
X046356Y012079D01*
X046356Y013175D02*
X046356Y013541D01*
X046477Y013662D01*
X046964Y013662D01*
X047086Y013541D01*
X047086Y013175D01*
X046356Y013175D01*
X046599Y013967D02*
X046599Y014089D01*
X047086Y014089D01*
X047086Y013967D02*
X047086Y014211D01*
X046964Y014495D02*
X046721Y014495D01*
X046599Y014617D01*
X046599Y014982D01*
X047208Y014982D01*
X047330Y014860D01*
X047330Y014739D01*
X047086Y014617D02*
X047086Y014982D01*
X047086Y015287D02*
X047086Y015531D01*
X047086Y015409D02*
X046599Y015409D01*
X046599Y015287D01*
X046356Y015409D02*
X046234Y015409D01*
X046599Y015815D02*
X046599Y016058D01*
X046477Y015937D02*
X046964Y015937D01*
X047086Y016058D01*
X046964Y016343D02*
X046843Y016465D01*
X046843Y016830D01*
X046721Y016830D02*
X047086Y016830D01*
X047086Y016465D01*
X046964Y016343D01*
X046599Y016465D02*
X046599Y016708D01*
X046721Y016830D01*
X047086Y017135D02*
X047086Y017378D01*
X047086Y017256D02*
X046356Y017256D01*
X046356Y017135D01*
X046356Y018454D02*
X046356Y018820D01*
X046477Y018942D01*
X046721Y018942D01*
X046843Y018820D01*
X046843Y018454D01*
X047086Y018454D02*
X046356Y018454D01*
X046599Y019368D02*
X046599Y019612D01*
X046721Y019733D01*
X047086Y019733D01*
X047086Y019368D01*
X046964Y019246D01*
X046843Y019368D01*
X046843Y019733D01*
X047086Y020038D02*
X046599Y020038D01*
X046599Y020403D01*
X046721Y020525D01*
X047086Y020525D01*
X046964Y020830D02*
X046721Y020830D01*
X046599Y020952D01*
X046599Y021195D01*
X046721Y021317D01*
X046843Y021317D01*
X046843Y020830D01*
X046964Y020830D02*
X047086Y020952D01*
X047086Y021195D01*
X047086Y021622D02*
X047086Y021865D01*
X047086Y021744D02*
X046356Y021744D01*
X046356Y021622D01*
X046356Y022942D02*
X046356Y023429D01*
X046356Y023185D02*
X047086Y023185D01*
X046964Y023734D02*
X046721Y023734D01*
X046599Y023855D01*
X046599Y024099D01*
X046721Y024221D01*
X046843Y024221D01*
X046843Y023734D01*
X046964Y023734D02*
X047086Y023855D01*
X047086Y024099D01*
X047086Y024525D02*
X047086Y024891D01*
X046964Y025012D01*
X046843Y024891D01*
X046843Y024647D01*
X046721Y024525D01*
X046599Y024647D01*
X046599Y025012D01*
X046599Y025317D02*
X046599Y025561D01*
X046477Y025439D02*
X046964Y025439D01*
X047086Y025561D01*
X046964Y025845D02*
X046721Y025845D01*
X046599Y025967D01*
X046599Y026210D01*
X046721Y026332D01*
X046843Y026332D01*
X046843Y025845D01*
X046964Y025845D02*
X047086Y025967D01*
X047086Y026210D01*
X047086Y026637D02*
X046599Y026637D01*
X046599Y026880D02*
X046599Y027002D01*
X046599Y026880D02*
X046843Y026637D01*
X046843Y028089D02*
X046599Y028089D01*
X046356Y028332D01*
X046599Y028617D02*
X046356Y028860D01*
X047086Y028860D01*
X047086Y028617D02*
X047086Y029104D01*
X046964Y029408D02*
X046843Y029408D01*
X046721Y029530D01*
X046721Y029774D01*
X046843Y029896D01*
X046964Y029896D01*
X047086Y029774D01*
X047086Y029530D01*
X046964Y029408D01*
X046721Y029530D02*
X046599Y029408D01*
X046477Y029408D01*
X046356Y029530D01*
X046356Y029774D01*
X046477Y029896D01*
X046599Y029896D01*
X046721Y029774D01*
X046964Y030200D02*
X046477Y030200D01*
X046356Y030322D01*
X046356Y030566D01*
X046477Y030687D01*
X046964Y030200D01*
X047086Y030322D01*
X047086Y030566D01*
X046964Y030687D01*
X046477Y030687D01*
X046356Y031784D02*
X046356Y032149D01*
X046477Y032271D01*
X046964Y032271D01*
X047086Y032149D01*
X047086Y031784D01*
X046356Y031784D01*
X046721Y032576D02*
X046964Y032576D01*
X047086Y032698D01*
X047086Y032941D01*
X046964Y033063D01*
X046721Y033063D01*
X046599Y032941D01*
X046599Y032698D01*
X046721Y032576D01*
X046721Y033368D02*
X046721Y033611D01*
X047086Y033368D02*
X046356Y033368D01*
X046356Y033855D01*
X046356Y034160D02*
X046599Y034403D01*
X046843Y034403D01*
X047086Y034160D01*
X046843Y035479D02*
X046843Y035966D01*
X046599Y035966D02*
X046599Y035845D01*
X046599Y035479D01*
X046356Y035601D02*
X047086Y035601D01*
X047086Y035845D02*
X046356Y035845D01*
X046477Y036271D02*
X046356Y036393D01*
X046356Y036636D01*
X046477Y036758D01*
X046599Y036758D01*
X047086Y036271D01*
X047086Y036758D01*
X046964Y037063D02*
X046721Y037063D01*
X046721Y037428D01*
X046843Y037550D01*
X046964Y037550D01*
X047086Y037428D01*
X047086Y037185D01*
X046964Y037063D01*
X046721Y037063D02*
X046477Y037307D01*
X046356Y037550D01*
X046477Y037855D02*
X046356Y037977D01*
X046356Y038220D01*
X046477Y038342D01*
X046964Y037855D01*
X047086Y037977D01*
X047086Y038220D01*
X046964Y038342D01*
X046477Y038342D01*
X046477Y037855D02*
X046964Y037855D01*
X047086Y028332D02*
X046843Y028089D01*
X047086Y014617D02*
X046964Y014495D01*
X046356Y014089D02*
X046234Y014089D01*
M02*
